<?xml version="1.0" encoding="UTF-8"?>
<svg width="200px" height="200px" viewBox="0 0 200 200" version="1.1" xmlns="http://www.w3.org/2000/svg" xmlns:xlink="http://www.w3.org/1999/xlink">
    <!-- Generator: Sketch 54.1 (76490) - https://sketchapp.com -->
    <title>bryn-athyn</title>
    <desc>Created with Sketch.</desc>
    <g id="bryn-athyn" stroke="none" stroke-width="1" fill="none" fill-rule="evenodd">
        <g id="bryn-athyn_BGL">
            <g id="bryn-athyn" transform="translate(0.000000, 57.000000)">
                <g id="g10" transform="translate(100.000000, 42.814409) scale(-1, 1) rotate(-180.000000) translate(-100.000000, -42.814409) translate(0.000000, 0.345274)">
                    <g id="g12" transform="translate(0.000000, 0.303797)">
                        <polyline id="path14" fill="#9A1926" fill-rule="nonzero" points="86.7679303 76.3476774 88.4151877 74.8050614 95.4801664 74.9704623 106.821938 76.0236268 114.045567 75.4025298 119.89198 74.5316437 128.442191 72.7223611 133.822781 69.8329096 140.50295 66.6835426 146.494511 66.0624456 149.681009 66.1367072 154.896199 62.6632896 159.095355 63.0177199 160.833751 66.6059055 151.183119 74.6227829 139.118984 80.8708841 126.011811 82.2886055 113.873415 80.2835423 103.608436 80.1890275 86.7476772 76.9248926 86.7679303 76.3476774"></polyline>
                        <path d="M121.559491,49.8801675 C121.410967,49.8025304 121.262444,49.7215177 121.124048,49.6371296 C121.255693,49.7586485 121.387339,49.8734165 121.518984,49.9881844 C127.149364,54.9367075 131.527423,54.7814332 138.062444,55.6354416 C135.89198,57.0194079 129.512233,57.4447243 129.512233,57.4447243 L135.308013,60.5940913 C135.270883,60.5940913 135.237127,60.5974668 135.199997,60.5974668 C134.170461,61.3164542 133.039659,62.7258619 131.848098,62.9115159 C128.992402,63.3570855 123.641114,62.8710096 120.505249,64.2988576 C121.008202,63.1444273 124.281925,61.9697438 123.623697,60.518267 C121.97644,60.9705877 118.857991,57.9780576 118.857991,57.9780576 C118.857991,57.9780576 120.034434,58.0050618 120.672409,56.4118129 C112.544139,56.789872 110.092824,45.7415209 115.551052,39.1693692 C117.319828,43.0579767 118.385418,45.0664154 122.341536,46.0790737 C123.708624,46.426753 122.123436,46.462321 124.709628,47.6691971 C124.230304,47.341771 126.726884,48.1721507 126.153045,47.6691971 C124.212116,45.9578048 121.977517,43.3687753 121.018868,40.7898724 C120.731948,40.0135011 120.559796,39.2371298 120.542918,38.4877628 C120.664437,38.1873408 121.920672,37.9139231 122.16371,37.6810117 C122.221094,37.843037 122.278478,38.0151889 122.332486,38.207594 C123.723204,42.9333323 132.658225,48.0371296 132.658225,48.0371296 L138.568773,51.054851 C138.578899,51.0514755 137.343456,51.0244713 134.859068,51.2506316 C132.465819,51.4734164 125.616874,51.9898721 121.559491,49.8801675 Z" id="path24" fill="#9A1926" fill-rule="nonzero"></path>
                        <path d="M127.675946,72.3915594 C118.16371,76.1755255 113.96793,68.951897 117.070039,62.5113908 C118.03544,65.2995764 117.623626,71.0582261 122.832064,70.6059054 C128.428689,70.123205 134.862444,59.68945 141.758646,63.2641334 C134.399997,63.2067495 132.72236,70.3831206 127.675946,72.3915594" id="path28" fill="#B4B3B3" fill-rule="nonzero"></path>
                        <path d="M182.889447,18.4978898 C178.889447,20.246413 163.824468,15.3181431 163.574679,15.2371304 L163.564553,15.2337549 L163.48354,15.2270038 C162.406747,15.0818562 161.350207,14.9637127 160.320671,14.8827 L170.224468,14.2379743 L166.07257,12.7324891 L177.360333,12.9957803 C177.360333,12.9957803 177.353582,12.9924047 177.343455,12.9822782 C177.336704,12.9789026 177.333329,12.9755271 177.323202,12.9654005 C177.3097,12.9552739 177.292823,12.9417718 177.269194,12.9282697 C177.259067,12.9215187 177.252316,12.9181431 177.238814,12.9080166 C177.167928,12.8607592 177.063287,12.7898731 176.928266,12.6987339 C176.92489,12.6987339 176.921515,12.6953583 176.914764,12.6919828 C176.850628,12.6514765 176.779742,12.6042191 176.702105,12.5535862 C176.691979,12.5468351 176.678477,12.5400841 176.66835,12.533333 C176.583962,12.4793246 176.496198,12.4219406 176.394932,12.3611811 L176.394932,12.3611811 C176.195776,12.2362866 175.96624,12.09789 175.7097,11.9426157 C175.692823,11.9324892 175.679321,11.9223626 175.662443,11.9156115 C175.540924,11.8447254 175.416029,11.7704638 175.281008,11.6928267 C175.274257,11.6894512 175.267506,11.6860757 175.260755,11.6827001 C174.977211,11.5172993 174.666662,11.3417719 174.332485,11.1628689 C174.315607,11.1527423 174.295354,11.1426158 174.278477,11.1324892 C174.126578,11.0514765 173.974679,10.9704639 173.816029,10.8860757 C173.795776,10.8759491 173.775523,10.862447 173.75527,10.8556959 C173.40084,10.6700419 173.026156,10.4776369 172.631219,10.2852318 C172.607591,10.2751052 172.583962,10.2616031 172.560333,10.2514765 C172.391557,10.1670884 172.216029,10.0860757 172.037127,10.0016875 C171.999996,9.98480988 171.96624,9.96793224 171.92911,9.9510546 C171.729954,9.85991537 171.530797,9.76877613 171.328266,9.67763689 C169.410966,8.827004 167.169616,8.01012638 164.799996,7.50379728 C167.993245,6.95358632 170.454004,5.6540083 168.735861,3.11223621 C168.735861,3.11223621 168.415186,2.73417715 168.097886,2.37637125 C169.097042,1.82616029 170.943456,2.06919826 172.199152,2.36624467 L174.271726,2.99746828 C175.297886,3.35527418 176.583962,3.85822775 177.758645,4.49957795 C179.93586,5.68101252 180.854004,9.25232044 181.18143,11.1257381 C181.228687,11.3924048 181.262443,11.6253162 181.289447,11.8109702 C181.299574,11.7603373 181.367084,11.5915609 181.458223,11.3316453 C181.910544,10.0590715 183.010966,6.66329097 181.657379,5.24556949 L181.758645,5.27594924 C182.035438,5.39409269 182.801683,5.79578045 183.625312,6.86582261 C184.486071,7.97637111 185.40759,9.80928246 185.913919,12.783122 C185.964552,13.090295 186.015185,13.4042191 186.055692,13.7350208 C185.333329,17.3569616 182.889447,18.4978898 182.889447,18.4978898" id="path84" fill="#F8F8F8" fill-rule="nonzero"></path>
                        <path d="M84.9957785,73.5950599 C83.763711,73.4127814 82.5586477,73.2034987 81.35696,72.9503342 C80.2936689,72.7275494 79.2303778,72.4676338 78.1400824,72.1503342 C76.4624453,71.6608827 74.4708842,71.0195326 72.3949349,70.3241739 C68.4962008,69.0043427 64.3206735,67.5393639 61.2658213,66.5570854 C59.2506314,65.9089842 48.7831211,62.5402079 45.8295347,61.9798703 C45.7215178,61.9596172 45.6236276,61.9427395 45.5358638,61.9258619 C45.1949356,61.8414737 44.8236276,61.7570855 44.4253153,61.6794484 C43.2675095,61.439786 41.9004209,61.2170012 40.5535855,61.0279716 C39.4329104,60.8051868 37.2889119,59.5443023 36.2053676,59.3653994 C40.2593759,59.5206736 30.9815591,57.6807611 38.6102508,57.9001704 C49.064259,58.2039679 59.2921069,59.4547258 59.4473811,59.0361604 C59.3157356,59.0125317 59.18409,58.988903 59.05582,58.9652743 C58.4583516,58.8640085 57.8777609,58.7593672 57.3039213,58.6648524 C56.5444276,58.5332068 55.8456935,58.4184389 55.1638369,58.303671 C54.7148918,58.2327849 54.2794488,58.1585233 53.8473813,58.0876372 C53.3984361,58.0167511 53.0102505,57.9526161 52.6220648,57.8918566 C52.0954826,57.8074684 51.7376767,57.7500845 51.3832463,57.6927005 C50.8431619,57.6083123 50.5123603,57.5610549 50.1849341,57.5070465 C49.621221,57.4192828 49.3207991,57.3787765 49.0203772,57.3315191 C48.9191114,57.318017 48.8212211,57.3045149 48.7267063,57.2876372 C48.443162,57.2471309 48.1663688,57.2032491 47.892951,57.1661183 C47.7815586,57.1492406 47.6634152,57.132363 47.5587738,57.1154853 C47.3056093,57.0783545 47.0558203,57.0445993 46.8127823,57.010844 C46.6845123,56.9905908 46.5461156,56.9703377 46.4178456,56.9568356 C46.1916853,56.9230803 45.9756515,56.8927005 45.7528667,56.8623208 C45.607719,56.8420676 45.4591958,56.8218145 45.3140482,56.8015613 C45.114892,56.7745571 44.9157359,56.7509284 44.7233309,56.7239242 C44.5646811,56.7002955 44.4060313,56.6800423 44.2473815,56.6597891 C44.0684786,56.6327849 43.8929511,56.6125318 43.7140482,56.5889031 C43.5486474,56.5686499 43.379871,56.5416457 43.2144701,56.5247681 C43.0423182,56.5045149 42.8836685,56.4842617 42.7148921,56.4640086 C42.5494913,56.4437554 42.3807149,56.4201267 42.2119385,56.3998735 C42.0701664,56.3829959 41.9250187,56.3627427 41.779871,56.3492406 C41.5975925,56.3256119 41.408563,56.3019833 41.2262845,56.2851056 C41.1148921,56.268228 40.9967487,56.2547259 40.8786052,56.2412238 C40.6794491,56.2175951 40.4870441,56.1939664 40.2878879,56.1737132 C40.1832466,56.1635866 40.0819808,56.1500845 39.9773394,56.1365824 C39.7714323,56.1129537 39.5689006,56.0927006 39.37312,56.0690719 C38.8971707,56.0150634 38.6845125,55.9914347 38.4819808,55.967806 C38.0532888,55.9205487 37.830504,55.89692 37.6212213,55.8732913 C37.2431623,55.832785 37.0068754,55.8125318 36.780715,55.7889031 C36.5140484,55.7652744 36.3013901,55.7416457 36.0887319,55.7213925 C35.8828248,55.7011394 35.845694,55.6977639 35.7984366,55.6943883 C35.6296602,55.6775107 35.4608838,55.6606331 35.295483,55.6437554 C35.0794492,55.6235023 35.0220653,55.6201267 34.9613058,55.6133757 C34.8127826,55.5998736 34.6642594,55.5863715 34.5157362,55.5728693 C33.4186898,55.4749791 48.4883729,56.4624458 47.630989,56.3983108 C53.565166,55.0177201 64.9789013,51.8766669 69.7113907,51.2386922 C84.1012637,49.3011395 87.1635492,49.4969201 87.1635492,49.4969201 C87.1635492,49.4969201 85.891514,47.2978891 70.5058604,46.4911381 C83.6670415,45.5021086 91.9493648,42.2969203 98.9805882,38.3779331 C104.860757,35.0969205 116.799458,28.6649782 118.686378,26.7780584 C120.411273,25.0531639 117.291208,24.5283945 111.360407,25.2710105 C114.820322,22.4220654 119.823954,20.3964989 122.275102,20.3964989 C124.726251,20.3964989 126.58619,21.1796213 127.615725,22.5703385 C129.225852,24.7408026 122.936024,31.4056563 116.883703,32.8773862 C121.475102,32.6345983 121.475102,32.6345983 121.475102,32.6345983 L122.68408,32.715611 C120.425852,34.4405055 117.080705,37.0464126 113.654544,39.3147669 C114.613733,39.385653 113.445262,39.4531636 113.337245,39.5240496 C109.698426,41.9071719 106.008975,43.8683533 103.473954,43.9459905 C105.208975,45.2118132 111.558342,50.4254402 111.838511,57.8448493 C107.976907,56.0389422 104.098426,53.7856527 101.924587,55.3417708 C108.115304,57.5729943 111.707404,63.5258619 112.625547,66.2836677 C104.969851,65.2912627 101.084619,66.2751038 94.5090919,66.3561165 C103.342847,68.6480995 105.914999,71.4329096 114.958037,71.8345974 C112.085463,72.4523189 105.994934,73.9562413 101.667508,74.2026548 C100.354428,74.037254 98.825314,73.8279713 96.9789005,73.5815578 C96.7392381,73.5511781 87.2877615,73.9359882 84.9957785,73.5950599 Z" id="path86" fill="#9A1926" fill-rule="nonzero"></path>
                        <path d="M122.086073,40.7898724 C121.97468,40.6312226 121.866664,40.4725728 121.772149,40.3004209 C121.410967,39.6590707 121.397465,39.0312227 121.613499,38.4877628 C121.627001,39.2371298 121.799153,40.0135011 122.086073,40.7898724" id="path88" fill="#231F20" fill-rule="nonzero"></path>
                        <path d="M124.472571,48.2025304 C125.383963,47.9594925 126.302107,47.7907161 127.223626,47.6691971 C127.797465,48.1721507 128.340925,48.6008427 128.823625,48.9282688 C127.297887,48.7831211 125.839659,48.5502098 124.472571,48.2025304" id="path90" fill="#231F20" fill-rule="nonzero"></path>
                        <path d="M172.479321,31.0379739 C172.499574,31.0177207 172.523202,30.9974676 172.546831,30.9805899 C172.938392,30.5890288 173.464975,30.1502102 174.072569,29.6843874 C175.689447,28.4354423 177.846409,26.9940922 179.358645,25.7856534 C179.972991,25.2928264 180.624468,24.6852315 181.198308,24.381434 C181.843033,24.0371302 182.389869,24.0843876 182.659911,25.1375521 C179.672569,26.6430373 177.076789,28.4995773 174.204215,30.1164549 C173.637126,30.4405056 173.070038,30.7476786 172.479321,31.0379739" id="path104" fill="#231F20" fill-rule="nonzero"></path>
                        <path d="M176.725734,33.7721511 C179.729953,31.8784802 182.670038,29.9274254 185.654004,28.0135014 C185.751894,27.9527419 185.849784,27.8886069 185.944299,27.8244719 C186.150206,28.3713073 186.970459,28.4691976 187.014341,29.1443031 C184.421936,30.2379739 181.728265,31.7535857 179.149363,32.8573831 C178.325734,33.215189 177.512232,33.5291131 176.725734,33.7721511" id="path106" fill="#231F20" fill-rule="nonzero"></path>
                        <path d="M171.466662,34.9637122 C171.443034,34.9535856 171.422781,34.9535856 171.399152,34.943459 C171.16624,34.8556953 170.963709,35.0109696 170.84219,35.0616025 C170.832063,35.064978 170.818561,35.064978 170.81181,35.0717291 C170.7443,35.0886067 170.707169,35.064978 170.697042,34.9299569 C172.027,34.1839654 173.265818,33.3468346 174.467506,32.4691975 C176.523202,30.9704634 178.470882,29.3603368 180.560333,27.9054845 C181.488603,27.2641343 182.75105,26.9299571 183.416029,26.045569 C183.473413,25.9713074 183.534173,25.9004213 183.578054,25.8194086 C184.243033,26.1265816 184.722358,26.5721512 184.830375,27.3012651 C181.18143,29.0666659 177.775523,31.0345984 174.450629,33.0902945 C173.448097,33.7113916 172.452316,34.3324886 171.466662,34.9637122" id="path108" fill="#231F20" fill-rule="nonzero"></path>
                        <path d="M176.627844,20.8742611 C172.772991,21.8059066 169.286072,23.1763707 167.108857,23.4059066 C163.490291,23.7940922 159.635439,20.7527421 158.028688,21.3400839 C156.114764,22.0455691 155.648941,22.9097041 156.081009,23.824472 C156.357802,24.016877 158.798308,26.1198306 163.605059,28.3071723 C165.576367,28.0607588 170.20084,24.4556956 172.162021,23.152742 C173.46835,22.2852315 174.71392,21.6810121 175.463287,21.296202 C175.787337,21.1274256 176.239658,21.0059066 176.627844,20.8742611 L176.627844,20.8742611 Z M177.85316,20.5940923 C177.782274,20.6322129 177.711388,20.6627093 177.640502,20.7008299 C177.714763,20.7008299 177.78565,20.6779576 177.85316,20.5940923 Z M185.910544,12.7797465 C185.404215,9.8025314 184.482696,7.96962005 183.621936,6.86244709 C182.794932,5.79578045 182.032063,5.39071716 181.75527,5.27257371 C183.281008,6.94345974 181.363709,11.5071727 181.286071,11.8042191 C181.086915,10.312236 180.246409,5.84303783 177.75527,4.49282689 C176.577211,3.8514767 175.29451,3.34852312 174.26835,2.99071722 C173.124046,2.592405 172.297042,2.3831223 172.297042,2.3831223 C170.94008,2.06244721 169.093667,1.81940924 168.094511,2.36962019 C168.41181,2.72742609 168.732485,3.10548515 168.732485,3.10548515 C170.450629,5.64725724 167.989869,6.94683527 164.79662,7.49704623 C162.535017,7.88523187 159.905481,7.89873398 158.129954,7.70970445 C158.518139,8.27679304 159.199996,11.0177212 159.193245,11.2843879 C156.459068,9.45822761 149.792401,6.97383949 147.267507,11.3080166 C145.596621,10.4506327 141.569617,8.33080148 135.233752,10.7240504 C133.380587,11.4261601 129.890292,14.4573836 129.269195,16.0371304 C133.802528,16.054008 135.017718,17.6776367 135.669195,20.1654003 C135.854849,20.9282695 135.723203,22.1367083 135.60506,21.917299 C135.351895,21.4481007 133.667507,20.2700417 133.01603,20.5299573 C133.130798,20.8405058 133.23544,21.1409277 133.33333,21.4413497 C133.36371,21.53924 133.390714,21.6371303 133.421094,21.7350206 C133.481853,21.9341767 133.542613,22.1299573 133.596621,22.3257378 C133.627001,22.4405058 133.654005,22.5518982 133.684385,22.6632906 C133.728267,22.838818 133.768773,23.0109699 133.809279,23.1797463 C133.836284,23.2978897 133.859912,23.4126576 133.880165,23.5308011 C133.910545,23.6928264 133.9443,23.8514762 133.967929,24.010126 C133.988182,24.1282694 134.00506,24.2430374 134.018562,24.3578053 C134.038815,24.509704 134.059068,24.6649783 134.075946,24.8135015 C134.089448,24.9282694 134.099575,25.0396618 134.109701,25.1510542 C134.123203,25.2995774 134.13333,25.4481006 134.140081,25.5932483 C134.146832,25.7012652 134.153583,25.8092821 134.156959,25.9172989 C134.160334,26.0624466 134.160334,26.2075943 134.160334,26.352742 C134.160334,26.4540078 134.160334,26.5552736 134.156959,26.6531639 C134.153583,26.8016871 134.143457,26.9468348 134.13333,27.0919824 C134.126579,27.1831217 134.126579,27.2708854 134.116452,27.3620246 C134.099575,27.5274255 134.082697,27.6826997 134.062444,27.8413495 C134.052317,27.9088601 134.048942,27.9763706 134.038815,28.0405056 C134.008435,28.2632904 133.967929,28.4793242 133.920672,28.6919824 C133.849786,28.9924043 133.809279,29.1578052 133.765397,29.3198305 C133.745144,29.3940921 133.721516,29.4683537 133.697887,29.5392398 C133.660756,29.6675098 133.62025,29.7957798 133.576368,29.9206744 C133.549364,30.001687 133.518984,30.0793241 133.488604,30.1569613 C133.444722,30.2683537 133.400841,30.3831216 133.356959,30.494514 C133.323203,30.5755267 133.286073,30.6531638 133.252317,30.7308009 C133.20506,30.8354423 133.154427,30.9400836 133.10717,31.044725 C133.070039,31.1223621 133.029533,31.1999992 132.989026,31.2742608 C132.935018,31.3755266 132.884385,31.4700414 132.827001,31.5713072 C132.786495,31.6455688 132.742613,31.7164549 132.698731,31.7907165 C132.641347,31.8852313 132.580587,31.979746 132.519828,32.0742608 C132.475946,32.1451469 132.432064,32.2126574 132.381431,32.280168 C132.317296,32.3713072 132.253161,32.465822 132.185651,32.5535857 C132.138393,32.6177207 132.094511,32.6818557 132.047254,32.7426152 C131.976368,32.83713 131.898731,32.9248937 131.824469,33.0194085 C131.780587,33.0734169 131.736706,33.1274253 131.689448,33.1814338 C131.594933,33.2894506 131.500419,33.3907165 131.402528,33.4953578 C131.183119,33.7248937 131.054849,33.8531637 130.919828,33.9780582 C130.697043,34.1772143 130.605904,34.2616025 130.511389,34.3426152 C130.258225,34.5485223 130.173836,34.6160329 130.086073,34.6835434 C130.025313,34.7308008 129.964554,34.7746827 129.900419,34.8185645 C129.819406,34.879324 129.735018,34.9400835 129.65063,35.000843 C129.583119,35.0447249 129.518984,35.0886067 129.454849,35.1324886 C129.370461,35.186497 129.289448,35.2405054 129.20506,35.2945139 C129.13755,35.3350202 129.070039,35.3755265 129.005904,35.4194084 C128.921516,35.4700413 128.837128,35.5206742 128.752739,35.5679316 C128.685229,35.6050624 128.621094,35.6421932 128.550208,35.679324 C128.462444,35.7265814 128.378056,35.7704632 128.290292,35.8177206 C127.999997,35.9628683 127.908858,36.0033746 127.821094,36.0472565 C127.530798,36.178902 127.432908,36.2194084 127.335018,36.2599147 C127.03122,36.3814337 126.889448,36.4354421 126.751052,36.486075 C127.966242,38.1670877 129.714765,39.9831214 132.168773,41.8194082 C133.282697,42.6531635 124.92455,39.2438809 122.331465,37.6101256 C122.331465,37.6101256 122.100704,37.5744689 121.911751,38.1029526 C121.537618,39.1493661 122.025105,40.6167802 122.089448,40.7898724 C123.048098,43.3687753 125.282697,45.9578048 127.223626,47.6691971 C126.302107,47.7907161 125.383963,47.9594925 124.472571,48.2025304 C120.516453,47.1932478 117.323204,45.1814335 115.554427,41.292826 C110.0962,47.8649777 117.866664,56.7932475 125.994934,56.4118129 C125.356959,58.0050618 120.989027,57.9780576 120.989027,57.9780576 C120.989027,57.9780576 125.171305,59.9122348 126.818562,59.4565386 C127.47679,60.9080154 123.139237,62.0826989 122.636284,63.2371292 C125.772149,61.8092812 128.999153,62.2953571 131.851473,61.8497875 C133.04641,61.6641335 134.173836,61.3164542 135.203372,60.5974668 C136.837127,60.5434584 138.406748,60.4354415 139.871726,60.4556947 C140.492823,61.7586482 141.728266,62.8556946 143.412655,63.2135005 C143.335018,63.2405047 143.254005,63.267509 143.166241,63.2911377 C143.456536,63.3147663 143.753583,63.3282685 144.054005,63.338395 C146.180587,63.7063275 148.195777,64.3578043 150.264975,64.8438802 C151.999996,64.324049 153.154427,63.0919815 154.916452,62.6464119 C160.513076,60.0438804 165.954426,57.340083 171.021093,54.0725725 C172.499574,53.1172983 176.151894,51.1257371 174.315607,49.4852308 C173.805903,49.0329102 175.719827,47.8177203 176.357801,47.4227836 C177.302949,46.8388174 178.78143,46.0995769 180.38143,45.3400833 L176.334173,43.1189863 L183.125734,43.9662436 C184.303793,43.7839652 185.090291,43.6826993 186.481008,42.8624462 C186.686915,42.7375517 187.591556,41.9240496 187.763708,41.8329103 C187.880727,41.6686347 185.171303,41.6596333 179.635439,41.8059061 L183.736704,40.5637121 L189.255691,40.8506319 C189.370459,40.7594927 189.495354,40.6616024 189.626999,40.5535855 C189.728265,40.4725728 189.812653,40.4016868 189.900417,40.3308007 C190.021936,40.2329104 190.153582,40.1248935 190.295354,40.0135011 C190.528265,39.8278471 190.65316,39.7265813 190.788181,39.6219399 C190.994088,39.4599146 191.129109,39.3518978 191.270881,39.2438809 C191.638814,38.9603366 191.90548,38.7578049 192.205902,38.5316446 C192.425312,38.3628682 192.556957,38.2683535 192.691978,38.1670877 C192.911388,38.0016868 193.049784,37.900421 193.198307,37.7924041 C193.27932,37.7316446 193.363708,37.6708851 193.444721,37.6101256 C193.556113,37.529113 193.674257,37.4447248 193.7924,37.3569611 C194.04894,37.1713071 194.241345,37.0329105 194.443877,36.8877628 C194.737548,36.6784801 194.956957,36.5198303 195.186493,36.357805 C195.304636,36.2734168 195.382274,36.2160328 195.466662,36.1552734 C195.713075,35.9797459 195.96624,35.8042185 196.232906,35.615189 C194.572147,34.9063282 193.313075,35.0379738 191.449784,35.551054 C190.359489,35.8481004 189.789025,35.5611805 188.317295,35.4801679 C188.290291,34.7645561 189.576367,32.5805899 190.23797,31.7603368 L193.809278,28.6042187 C193.908293,28.5367081 193.963427,28.4883256 193.974679,28.459071 C193.974679,28.459071 191.848096,25.9578053 190.264974,24.2632905 C190.14008,24.1215184 190.008434,23.9797462 189.859911,23.8345986 C189.542611,23.5037969 189.262443,23.2270036 189.046409,23.0312231 C188.499573,22.5417716 187.902105,22.0523201 187.058223,21.5358644 C186.950206,21.4649784 186.852316,21.4008433 186.75105,21.3333328 C186.535016,21.1949362 186.447253,21.1375522 186.356113,21.0835438 C186.119827,20.9417716 186.038814,20.8945142 185.957801,20.8472569 C185.704637,20.7088602 185.630375,20.6683539 185.556114,20.6312231 C185.296198,20.5029531 185.232063,20.4691978 185.164552,20.4388181 C184.897886,20.3240501 184.840502,20.3004214 184.786493,20.2767927 C184.705481,20.246413 184.627843,20.2194088 184.553582,20.1924046 C184.307168,20.1113919 184.1924,20.0810122 184.084384,20.0573835 C182.116451,19.2337548 178.369616,20.8641345 175.706325,22.3729952 C175.486915,22.4776366 175.270882,22.5856534 175.071726,22.6869193 C174.983962,22.7308011 174.886072,22.7881851 174.791557,22.8489446 C174.632907,22.9468349 174.545143,23.0075944 174.450629,23.0683539 C174.177211,23.2540079 173.920671,23.4430374 173.647253,23.6523201 C172.361177,24.5434593 168.799996,27.4261597 168.799996,27.4261597 C168.523203,27.6219402 168.249785,27.8075942 167.972992,27.9898727 C167.682696,28.1721512 167.409279,28.3443031 167.132485,28.5029529 C166.575523,28.8270035 166.028688,29.1037967 165.491979,29.316455 C164.911388,29.5189866 164.280165,29.6810119 163.605059,29.758649 C162.312232,29.9037967 159.179743,27.9864972 156.769616,26.3459909 C156.624469,26.2447251 156.482697,26.1434593 156.3443,26.0421934 C155.750207,25.6135015 155.227,25.2286914 154.798308,24.9181428 C154.734173,24.8708855 154.673414,24.8270036 154.612654,24.7831217 C154.474258,24.6818559 154.423625,24.6447251 154.372992,24.6075943 C154.227844,24.509704 154.163709,24.4624466 154.10295,24.4219403 C154.021937,24.3679319 153.927422,24.3004213 153.832908,24.2362863 C153.677633,24.1282694 153.65738,24.1147673 153.640502,24.1046407 C153.572992,24.0472568 151.345144,22.2379741 150.416874,21.0362864 C150.318984,20.8810121 150.23122,20.7291134 150.153583,20.5738391 C150.055692,20.3814341 149.998308,20.2430375 149.9443,20.1046408 C149.856536,19.8683539 149.822781,19.7367084 149.792401,19.6050628 C149.728266,19.3046409 149.704638,19.132489 149.697887,18.9569616 C149.549363,15.4126578 154.349363,14.697046 158.089448,14.7645566 C158.81181,14.7780587 159.557802,14.818565 160.317296,14.8793245 C161.343456,14.9637127 162.403371,15.0818562 163.480165,15.2236283 C163.824468,15.3147675 178.889447,20.2430375 182.886071,18.4945143 C182.886071,18.4945143 185.329953,17.3535861 186.052316,13.7282697 C186.032063,13.5561178 186.008434,13.3839659 185.98143,13.2151895 C185.957801,13.0666663 185.937548,12.9215187 185.910544,12.7797465 Z M126.555271,23.6320669 C125.52236,22.2413497 122.278478,21.4582273 122.278478,21.4582273 C122.278478,21.4582273 118.015187,21.3569615 114.555271,24.2092821 C120.489448,23.4666661 121.481854,25.0531639 119.753584,26.7780584 C117.866664,28.6649782 104.864132,36.1620244 98.9839638,39.4396615 C91.9527403,43.3552732 87.9257362,45.498733 74.7645551,46.4911381 C90.1502087,47.3012646 92.4860736,50.5586485 92.4860736,50.5586485 C92.4860736,50.5586485 84.1046392,50.3628679 69.7147662,52.3004206 C64.9856524,52.9383953 55.6962011,55.0177201 49.7620241,56.3983108 C50.619408,56.4624458 51.5071717,56.5367074 52.4523194,56.6210956 C52.5029523,56.6278467 52.5502097,56.6312222 52.6042181,56.6345977 C52.7527413,56.6480998 52.9012645,56.661602 53.0497877,56.6751041 C53.1105472,56.6784796 53.1645556,56.6852307 53.2286907,56.6919817 C53.2421928,56.6953572 53.2489438,56.6953572 53.2624459,56.6953572 C53.269197,56.6987328 53.2826991,56.6987328 53.2894501,56.6987328 C53.3198299,56.7021083 53.3535852,56.7054838 53.3839649,56.7054838 C53.5493657,56.7223615 53.7181421,56.7392391 53.8869185,56.7561167 C53.9308003,56.7594923 53.9713067,56.7628678 54.0185641,56.7696188 C54.0219396,56.7696188 54.0219396,56.7696188 54.0286906,56.7696188 C54.075948,56.7729944 54.1265809,56.7797454 54.1772138,56.7831209 C54.3898721,56.8033741 54.5991548,56.8270028 54.8219396,56.847256 C54.8388172,56.8506315 54.8523193,56.8506315 54.8691969,56.8506315 C55.0953573,56.8742602 55.3282687,56.8945133 55.56118,56.9215176 C55.6084374,56.9248931 55.6590703,56.9316441 55.7097032,56.9350197 C55.9223615,56.9552728 56.1417707,56.9822771 56.3578045,57.0059057 C56.4320661,57.0126568 56.5029522,57.0194079 56.5704627,57.0295344 C56.7763699,57.0531631 56.9856526,57.0767918 57.1949353,57.1004205 C57.2793235,57.1105471 57.3704627,57.1206737 57.4616019,57.1308003 C57.6573825,57.154429 57.8599142,57.1746821 58.0658213,57.1983108 C58.1704627,57.2118129 58.2717285,57.225315 58.3763698,57.2354416 C58.575526,57.2556948 58.7713065,57.2793235 58.9670871,57.3029522 C59.0852306,57.3164543 59.203374,57.3299564 59.3147664,57.346834 C59.4970449,57.3637116 59.6860745,57.3873403 59.8683529,57.410969 C60.0135006,57.4278467 60.1586483,57.4480998 60.3004204,57.4616019 C60.4691968,57.4818551 60.6345976,57.5021083 60.803374,57.525737 C60.9687748,57.5459901 61.1308002,57.5662433 61.3029521,57.5864965 C61.4683529,57.6067496 61.6371293,57.6303783 61.8025301,57.6506315 C61.981433,57.6742602 62.1569605,57.6945133 62.3358634,57.7215175 C62.4911377,57.7383952 62.653163,57.7620239 62.8118128,57.7856526 C63.0075934,57.8126568 63.2067495,57.8362855 63.4025301,57.8632897 C63.5476777,57.8835429 63.6962009,57.903796 63.8413486,57.9240492 C64.0641334,57.9544289 64.2801672,57.9848087 64.5063275,58.018564 C64.6345975,58.0354416 64.7696186,58.0523192 64.9012642,58.0725724 C65.1443022,58.1063277 65.3940912,58.1400829 65.6472557,58.1772137 C65.7552726,58.1940914 65.8700405,58.210969 65.9814329,58.2278466 C66.2548507,58.2649774 66.5316439,58.3088593 66.8151882,58.3493656 C66.909703,58.3628677 67.0075933,58.3797454 67.1088591,58.3932475 C67.409281,58.4405049 67.7130785,58.4843867 68.0202515,58.5316441 C68.1046396,58.5417707 68.1890278,58.5586483 68.273416,58.5687749 C68.6008422,58.6227833 68.9316438,58.6700407 69.2658211,58.7240492 C69.3367071,58.7341757 69.4042177,58.7443023 69.4717282,58.7544289 C69.8261586,58.8084373 70.180589,58.8658213 70.5485214,58.9265808 C70.6025299,58.9367074 70.6565383,58.946834 70.7105468,58.953585 C71.0987324,59.0143445 71.486918,59.0784795 71.8886058,59.1426146 L71.9358632,59.1493656 C72.3679307,59.2202517 72.8033737,59.2911378 73.2455678,59.3653994 C73.2489433,59.3653994 73.2489433,59.3653994 73.2523188,59.3653994 C73.9307998,59.4801673 74.6329095,59.5983107 75.3383947,59.7198297 C75.3586479,59.7232053 75.3755255,59.7265808 75.3924032,59.7265808 C75.9696184,59.8244711 76.5468335,59.9257369 77.1443019,60.0270027 C77.2725719,60.0506314 77.407593,60.0776356 77.535863,60.0978888 C77.3805888,60.5164542 67.1527409,60.3274247 56.6987328,60.0236272 C49.0734165,59.8042179 41.3265812,59.5206736 37.2725729,59.3653994 C38.3561172,59.5443023 39.4362859,59.7468339 40.5232057,59.9628677 C40.5367078,59.9628677 40.5434589,59.9662432 40.556961,59.9662432 C41.9037964,60.1552728 43.2675095,60.374682 44.4286909,60.61772 C44.8270031,60.6953571 45.1983111,60.7797453 45.5392394,60.8641335 C45.6270031,60.8810111 45.7248934,60.8978888 45.8329102,60.9181419 C48.7864967,61.4784795 59.254007,64.8472558 61.2691968,65.495357 C64.324049,66.4776355 68.4995763,67.9426143 72.3814328,69.2388168 C72.3881838,69.2455679 72.3915594,69.2556945 72.3983104,69.2624455 C74.4742597,69.9544286 76.4658209,70.5991544 78.143458,71.0886058 C79.2337533,71.4059054 80.2970444,71.6624455 81.3603355,71.8886058 C82.5620233,72.1417703 83.7670865,72.351053 84.999154,72.5333315 C87.2877615,72.8742598 96.7392381,72.4894497 96.9822761,72.5198294 C98.8286895,72.7696184 100.357803,72.9755256 101.674259,73.1375509 C106.001685,72.8945129 109.964554,72.4489433 112.837128,71.8312218 L112.837128,71.8312218 L112.837128,71.8312218 C103.79409,71.4295341 101.221938,68.644724 92.3881833,66.352741 C98.9637106,66.2717283 102.848943,64.2261587 110.504639,65.2185638 C109.586495,62.4607579 107.05485,57.5696188 100.867508,55.3383952 C103.037972,53.7822771 106.916453,54.9738383 110.781432,56.7797454 C110.504639,49.3603363 104.151896,45.2084377 102.416875,43.9426149 C104.951896,43.8649778 108.641347,41.9037964 112.280166,39.5206741 C112.388183,39.449788 112.492824,39.3822775 112.597466,39.3113914 C116.023626,37.043037 119.372149,34.4371299 121.627001,32.7122355 L121.481854,32.6312228 C121.481854,32.6312228 115.557803,35.6624464 111.571305,34.9974675 C117.616875,33.5291131 128.162022,25.802531 126.555271,23.6320669 L126.555271,23.6320669 Z M141.758646,63.2641334 C134.859068,59.68945 128.425313,70.123205 122.832064,70.6059054 C117.623626,71.0548505 118.03544,65.2962009 117.070039,62.5113908 C113.964554,68.951897 118.16371,76.178901 127.675946,72.3915594 C132.72236,70.3831206 134.399997,63.2067495 141.758646,63.2641334 L141.758646,63.2641334 Z M99.1797444,77.6202512 C100.448943,77.8531626 103.078478,78.271728 106.018563,78.6261584 C109.664132,79.0649769 113.789027,79.4025297 116.408436,79.1662427 C124.448942,78.4371288 134.541769,76.4759475 144.111389,73.3535847 C140.72911,77.2624453 126.13333,80.249787 126.244723,80.243036 C125.795777,80.3746815 125.424469,80.4962005 125.157803,80.614344 C134.062444,81.9476773 140.496199,79.571306 143.70295,77.7924031 C146.150207,76.4320656 149.940925,74.8759475 152.324047,73.1780572 C153.502106,72.3409265 155.726578,70.8860742 156.320671,70.2548506 C157.383962,69.1308 158.146831,67.223627 158.221093,67.2067494 C158.423625,66.3189857 158.673414,65.0261587 159.09873,63.0143444 C158.29873,63.0784794 156.992401,63.6320659 156.236283,63.8683528 C156.037127,63.9324879 150.32911,66.7172979 150.183962,66.7510532 C150.089448,66.8320658 141.225313,71.9999982 136.654849,73.0565383 C137.721516,72.1856522 138.602528,70.4911375 138.649786,69.2253147 C128.023625,73.9409264 121.367086,76.8810107 112.394934,77.0025297 C107.297888,76.6480993 104.199154,76.5029517 100.533331,76.0573821 C100.070884,76.04388 91.3586475,75.5476774 90.4134998,75.6894496 C92.0708838,76.2632892 96.2632887,77.0801668 99.1797444,77.6202512 L99.1797444,77.6202512 Z M199.3924,34.3527418 C198.717295,36.3814337 196.158645,38.1367079 193.606746,39.8379737 C191.61181,41.3333323 190.102949,43.3485221 187.723202,44.6244715 C186.778054,45.1341761 184.195776,46.2548512 183.746831,46.3527415 C181.265818,47.7299566 179.578055,48.7493659 178.602527,49.4548511 C178.55527,49.633754 178.562021,49.876792 178.568772,50.1535852 C178.582274,50.676792 178.599152,51.3282688 178.231219,51.9594924 C176.590713,54.7409269 161.350207,62.5552727 161.350207,62.5552727 C161.515608,65.8902937 160.151895,68.0438802 159.497042,69.3502092 C158.825312,70.6970446 154.497886,74.4405045 154.109701,74.7206732 C152.384806,75.9527407 145.991558,79.5679305 145.184806,80.0135001 C142.886072,81.292825 137.545988,83.2978882 130.582275,83.4734156 C128.367929,83.5307996 116.303795,81.4548503 116.303795,81.4548503 L116.310546,81.4514748 L116.270039,81.4447237 C114.241347,81.4649769 112.118141,81.5156098 110.052318,81.5628672 C103.85485,81.7080148 97.4447233,81.8632891 92.1822762,81.2691963 C91.4970441,81.1915592 90.8421918,81.1105465 90.2042172,81.0227828 C84.8843861,80.3814326 83.9763692,80.057382 81.8430359,79.4194073 C81.3400824,79.264133 76.5299559,79.0987322 76.2734158,79.0413482 L67.4632895,78.4033736 L73.9307998,75.6691964 C72.0573822,75.3417703 70.1569603,74.9333315 68.1991544,74.4405045 C66.1940912,73.9375509 64.1350195,73.3434581 61.981433,72.6548505 C60.4084373,72.1485214 58.5620239,71.5274244 56.5502096,70.8489434 C52.6210957,69.5257367 48.1012646,68.0033738 43.7839652,66.7375511 C41.1848091,65.9814329 38.6599146,65.3164541 36.3949358,64.8506313 C34.9670877,64.5535849 33.5628684,64.3510532 31.9392397,64.1181419 C31.2472566,64.0202516 30.5248938,63.9156102 29.7687756,63.8008423 L26.3628685,63.2810111 L26.3662441,63.2708845 L26.3054846,63.2607579 L27.5274255,60.6312221 C27.6928263,60.2734162 27.9527419,59.9122348 28.2801681,59.5510534 C24.2362863,58.8658213 12.4286917,55.2945134 6.86244709,52.4826991 L6.84219392,52.4725725 C6.84219392,52.4725725 6.83881839,52.4725725 6.83881839,52.469197 L0.00675105468,48.7797456 L0.0168776367,48.7797456 L0,48.7729946 C0,48.7729946 11.4632909,52.4084375 26.9603369,52.1518974 C34.1434591,52.033754 44.1248934,50.6160325 53.3468341,48.5637119 C82.0793228,42.1772141 100.499576,34.5822776 113.090293,19.7839658 C114.082698,18.8151894 118.32236,15.8177211 119.834596,15.2540081 C124.189026,13.2320672 130.325735,9.52236263 132.935018,8.63797447 C142.16371,5.50548509 146.32911,8.62447236 146.32911,8.62447236 C146.32911,8.62447236 148.364553,5.22869185 154.531642,5.36708847 C154.886072,5.29282687 161.451473,5.17130789 162.214342,5.22869185 C169.799152,5.79915597 161.049785,0.0405063281 163.99662,0.0303797461 C169.735017,0.0135021094 173.215186,0.131645566 178.528266,1.83628687 C181.147675,2.97721512 186.420249,4.25316445 186.420249,4.25316445 L186.420249,5.86329099 C186.420249,6.31561166 186.582274,7.15611796 186.757801,8.04050613 C187.03797,9.45147656 187.362021,11.112236 187.362021,12.776371 C187.527421,14.9265819 187.277632,17.1713076 185.782274,18.9637126 C186.538392,19.0784805 187.024468,19.1459911 187.024468,19.1459911 C189.633751,20.2362864 192.553582,22.1907167 193.907168,23.8177209 C194.254847,24.2295353 194.744299,24.695358 195.172991,25.2590711 C198.318982,29.3907166 200.310544,31.5915604 199.3924,34.3527418 L199.3924,34.3527418 Z" id="path110" fill="#231F20" fill-rule="nonzero"></path>
                        <path d="M149.698309,23.4796619 C149.698309,23.4796619 149.573309,23.8129952 149.198309,23.1729952 C149.510809,23.3596619 149.698309,23.4796619 149.698309,23.4796619 Z" id="path156" fill="#B4B3B3" fill-rule="nonzero"></path>
                        <path d="M189.259067,40.8573829 L183.74008,40.5704631 L179.638814,41.8126572 L187.972991,41.6101255 C187.972991,41.6101255 187.767084,41.8396614 187.513919,42.1063281 C187.088603,42.4405053 186.690291,42.7443027 186.484384,42.8691972 C185.093666,43.6894504 184.307168,43.7907162 183.362021,43.9594926 C183.213498,43.9729947 183.129109,43.9729947 183.129109,43.9729947 L176.337548,43.1257373 L180.236282,45.4008427 L180.384806,45.3468343 C178.784806,46.1029524 177.3097,46.8421929 176.361177,47.4295347 C175.723202,47.8244714 173.809278,49.0396612 174.318983,49.4919819 C176.15527,51.1324882 172.499574,53.1240493 171.024468,54.0793235 C165.954426,57.3434585 160.516452,60.0472559 154.919827,62.653163 C153.259068,63.6793233 151.999996,64.3308001 150.268351,64.8506313 C148.195777,64.3645554 146.180587,63.7130786 144.05738,63.3451461 C143.760334,63.3350195 143.463288,63.3215174 143.169617,63.2978887 C143.260756,63.27426 143.338393,63.2438803 143.41603,63.2202516 C141.731642,62.8624457 140.496199,61.7653993 139.875102,60.4624457 C138.406748,60.4421926 136.837127,60.5468339 135.314765,60.6008424 L129.518984,57.4514754 C129.518984,57.4514754 135.898731,57.0261589 138.069195,55.6421927 C131.534174,54.7881843 127.156115,54.940083 121.525735,49.9949355 C121.539237,49.9578047 121.549364,49.9206739 121.566242,49.8869186 C125.623626,51.9966232 132.469195,51.4801675 134.865819,51.2573827 C137.346832,51.0278468 138.585651,51.0582266 138.585651,51.0582266 L132.675102,48.0405051 C132.675102,48.0405051 123.740081,42.9367078 122.349364,38.2109695 C122.29198,38.0185645 122.234596,37.8497881 122.180588,37.6843872 C122.227845,37.6405054 122.285229,37.6067501 122.335862,37.5628683 C124.708858,38.6700412 133.286073,42.6531635 132.175524,41.8227838 C129.721516,39.9831214 127.972993,38.1670877 126.724047,36.5029527 C126.73755,36.4995771 126.747676,36.4928261 126.757803,36.4894506 C126.899575,36.4388177 127.041347,36.3848092 127.179744,36.3308008 C127.233752,36.3105476 127.287761,36.2835434 127.341769,36.2632902 C127.439659,36.2227839 127.540925,36.1822776 127.638815,36.1383957 C127.70295,36.1113915 127.76371,36.0810118 127.827845,36.050632 C127.918984,36.0101257 128.010123,35.9662438 128.097887,35.922362 C128.165398,35.8886067 128.229533,35.8548514 128.297043,35.8210962 C128.384807,35.7772143 128.472571,35.7299569 128.556959,35.6826995 C128.624469,35.6455687 128.69198,35.6084379 128.75949,35.5713071 C128.843879,35.5240497 128.928267,35.4734168 129.012655,35.4227839 C129.080166,35.3822776 129.144301,35.3417713 129.211811,35.2978894 C129.296199,35.243881 129.380587,35.1898725 129.4616,35.1358641 C129.525735,35.0919822 129.58987,35.0481004 129.657381,35.0042185 C129.741769,34.943459 129.826157,34.8860751 129.90717,34.8219401 C129.967929,34.7780582 130.028689,34.7341763 130.092824,34.686919 C130.180587,34.6194084 130.264976,34.5518979 130.349364,34.4810118 C130.406748,34.4371299 130.460756,34.3898726 130.51814,34.3459907 C130.612655,34.264978 130.70717,34.1805899 130.798309,34.0962017 C130.842191,34.0590709 130.882697,34.0219401 130.926579,33.9814337 C131.0616,33.8565392 131.18987,33.7282692 131.31814,33.5966236 C131.34852,33.5628684 131.3789,33.5324886 131.409279,33.4987333 C131.50717,33.394092 131.601684,33.2928262 131.696199,33.1848093 C131.743457,33.1308009 131.783963,33.0767924 131.83122,33.022784 C131.908857,32.9316447 131.983119,32.8405055 132.054005,32.7459907 C132.101263,32.6852313 132.14852,32.6210962 132.192402,32.5569612 C132.259912,32.465822 132.327423,32.3746827 132.388182,32.2835435 C132.43544,32.2160329 132.479322,32.1451469 132.526579,32.0776363 C132.587338,31.9831216 132.644722,31.8919823 132.705482,31.794092 C132.749364,31.7198304 132.78987,31.6489444 132.833752,31.5746828 C132.891136,31.4767925 132.941769,31.3789022 132.995777,31.2776363 C133.036284,31.1999992 133.073414,31.1257376 133.113921,31.0481005 C133.164554,30.9434591 133.211811,30.8421933 133.259068,30.7341764 C133.292824,30.6565393 133.329954,30.5789022 133.36371,30.4978895 C133.407592,30.3864971 133.451473,30.2751047 133.495355,30.1603368 C133.525735,30.0793241 133.556115,30.001687 133.583119,29.9240499 C133.627001,29.7991554 133.664132,29.6708853 133.704638,29.5426153 C133.728267,29.4683537 133.751895,29.3974676 133.772149,29.323206 C133.819406,29.1611807 133.856537,28.9957799 133.893668,28.8270035 C133.903794,28.7831216 133.917296,28.7426153 133.927423,28.6953579 C133.971305,28.4826997 134.011811,28.266666 134.045566,28.0438812 C134.055693,27.9797461 134.062444,27.9122356 134.069195,27.844725 C134.089448,27.6860753 134.109701,27.5274255 134.123203,27.3654002 C134.129954,27.2776364 134.13333,27.1864972 134.140081,27.095358 C134.150208,26.9502103 134.156959,26.8050626 134.16371,26.6565394 C134.167085,26.5586491 134.167085,26.4573833 134.167085,26.3561175 C134.167085,26.2109698 134.167085,26.0691977 134.16371,25.9206745 C134.160334,25.8160331 134.153583,25.7080162 134.146832,25.5966238 C134.140081,25.4514762 134.129954,25.3063285 134.116452,25.1544298 C134.106326,25.0430373 134.096199,24.9316449 134.082697,24.816877 C134.065819,24.6683538 134.045566,24.5130796 134.025313,24.3611808 C134.008435,24.2464129 133.991558,24.131645 133.97468,24.0135015 C133.947676,23.8548517 133.917296,23.6962019 133.886916,23.5341766 C133.863288,23.4160332 133.843035,23.3012652 133.81603,23.1831218 C133.7789,23.0143454 133.735018,22.8421935 133.691136,22.6666661 C133.660756,22.5552737 133.637127,22.4438813 133.603372,22.3291134 C133.549364,22.1333328 133.49198,21.9375522 133.427845,21.7383961 C133.397465,21.6405058 133.370461,21.5426155 133.340081,21.4447252 C133.242191,21.1443033 133.137549,20.8405058 133.022781,20.5333328 C133.677634,20.2767927 135.362022,21.4548518 135.611811,21.9206746 C135.729954,22.1400838 135.8616,20.931645 135.675946,20.1687759 C135.024469,17.6843877 133.812655,16.0607591 129.275946,16.0405059 C129.897043,14.4607591 133.387338,11.4295356 135.240503,10.7274259 C141.576368,8.33080148 145.603372,10.4540082 147.274258,11.3113921 C149.799152,6.98059054 156.465819,9.46497867 159.199996,11.2877634 C159.206747,11.0177212 158.524891,8.27679304 158.136705,7.71307998 C159.912232,7.90210951 162.541768,7.8886074 164.803371,7.50042175 C167.169616,8.00337533 169.407591,8.81687742 171.318139,9.66751031 C174.913076,11.2675103 177.360333,12.9890292 177.360333,12.9890292 L166.07257,12.7257381 L170.224468,14.2312233 L160.320671,14.875949 C159.561177,14.8151895 158.815186,14.7746832 158.092823,14.7611811 C154.352739,14.690295 149.552739,15.4059068 149.701262,18.953586 C149.708013,19.1291134 149.731642,19.3012653 149.765397,19.4734172 C149.772148,19.5172991 149.78565,19.5578054 149.795777,19.6016873 C149.826157,19.7333328 149.863287,19.8649784 149.907169,19.996624 C149.917296,20.0303792 149.934173,20.06751 149.947676,20.1012653 C150.001684,20.2396619 150.059068,20.3780586 150.126579,20.5130797 C150.136705,20.5333328 150.146832,20.5502105 150.156958,20.5704636 C150.234595,20.7257379 150.322359,20.8776366 150.416874,21.0261598 C150.416874,21.0261598 150.416874,21.0295353 150.420249,21.0295353 C150.275102,20.8405058 150.160334,20.6683539 150.092823,20.5164552 C149.066663,18.2514763 150.062444,16.9991557 150.595777,16.5299574 C149.870038,17.1071726 148.033752,18.7544299 148.401684,20.4084383 C148.820249,22.2987336 149.066663,22.9535859 149.198309,23.1696197 C148.911389,23.0143454 148.182275,22.6700416 147.213498,22.5654003 C145.863287,22.4202526 141.701262,24.1451471 141.701262,24.1451471 C143.176368,24.3037969 145.535861,24.6075943 147.331642,25.1037968 C150.150207,25.8734171 156.378055,29.8261596 158.717296,30.43713 C159.274258,30.5822777 161.697886,31.3350203 161.697886,31.3350203 L154.990713,33.8329105 C154.990713,33.8329105 160.840502,34.0759485 162.670038,34.2109696 C164.597464,34.3493662 166.325734,34.9670877 166.325734,34.9670877 C166.325734,34.9670877 154.217718,40.2227838 152.21603,40.7662437 C150.835439,40.8202521 149.667507,40.9451467 149.04641,41.1881846 C146.71392,42.1130791 142.845566,47.9729946 143.081853,49.5021085 C143.081853,49.5021085 143.699574,48.7426148 144.685228,47.7907161 L166.295354,43.328269 L168.523203,38.6329104 L169.431219,36.7156109 L174.302105,44.6109693 L183.240502,36.664978 L186.869194,33.215189 L190.241345,31.7603368 C189.579742,32.5805899 188.293666,34.7679316 188.32067,35.4801679 C189.7924,35.5645561 190.362864,35.8481004 191.45316,35.551054 C193.316451,35.0379738 194.572147,34.9063282 196.236282,35.615189 C195.96624,35.8109696 189.373835,40.7696192 189.259067,40.8573829" id="path170" fill="#B4B3B3" fill-rule="nonzero"></path>
                        <path d="M185.944299,27.8278474 C186.150206,28.3746828 186.970459,28.4725731 187.014341,29.1476786 C185.292822,29.8767925 183.524046,30.7881849 181.775523,31.6421933 L180.084384,31.6185646 C181.940924,30.4168769 183.790713,29.2118136 185.654004,28.0168769 C185.751894,27.9527419 185.846409,27.8919824 185.944299,27.8278474" id="path172" fill="#231F20" fill-rule="nonzero"></path>
                        <path d="M179.149363,32.8607587 C178.325734,33.215189 177.512232,33.5291131 176.725734,33.7721511 C177.85316,33.0599148 178.97046,32.3375519 180.084384,31.6151891 L181.775523,31.6388178 C180.89451,32.0708853 180.016873,32.4894507 179.149363,32.8607587" id="path174" fill="#231F20" fill-rule="nonzero"></path>
                        <path d="M172.479321,31.0379739 C172.499574,31.0177207 172.523202,30.9974676 172.546831,30.9805899 C172.938392,30.5890288 173.464975,30.1502102 174.072569,29.6843874 C175.689447,28.4354423 177.846409,26.9940922 179.358645,25.7856534 C179.972991,25.2928264 180.624468,24.6852315 181.198308,24.381434 C181.843033,24.0371302 182.389869,24.0843876 182.659911,25.1375521 C179.672569,26.6430373 177.076789,28.4995773 174.204215,30.1164549 C173.637126,30.4405056 173.070038,30.7476786 172.479321,31.0379739" id="path182" fill="#231F20" fill-rule="nonzero"></path>
                        <path d="M183.416029,26.045569 C183.473413,25.9713074 183.534173,25.9004213 183.578054,25.8194086 C184.243033,26.1265816 184.722358,26.5721512 184.830375,27.3012651 C182.092822,28.6244719 179.490291,30.065822 176.958645,31.5679317 L175.699574,31.5476785 C177.313076,30.3223621 178.896198,29.0632904 180.563709,27.9054845 C181.485228,27.2641343 182.747675,26.9299571 183.416029,26.045569" id="path184" fill="#231F20" fill-rule="nonzero"></path>
                        <path d="M174.450629,33.086919 C173.444721,33.708016 172.452316,34.3324886 171.466662,34.9637122 C171.443034,34.9535856 171.422781,34.9535856 171.399152,34.943459 C171.16624,34.8556953 170.963709,35.0109696 170.84219,35.0616025 C170.832063,35.064978 170.818561,35.064978 170.81181,35.0717291 C170.7443,35.0886067 170.707169,35.064978 170.697042,34.9299569 C172.027,34.1839654 173.265818,33.3468346 174.467506,32.4691975 C174.882696,32.1687756 175.287759,31.8582271 175.696198,31.5510541 L176.95527,31.5713072 C176.114764,32.0708853 175.281008,32.5738388 174.450629,33.086919" id="path186" fill="#231F20" fill-rule="nonzero"></path>
                        <g id="path216" transform="translate(0.000000, 0.033755)"></g>
                        <g id="path292" transform="translate(0.000000, 0.033755)"></g>
                        <path d="M161.451473,41.0329104 C161.451473,41.0329104 153.691135,42.899577 149.4616,44.5232056 C147.601684,45.2354419 145.873414,46.6531634 144.685228,47.7974672 C143.699574,48.7493659 143.081853,49.5088595 143.081853,49.5088595 C142.845566,47.9797456 146.71392,42.1198302 149.04641,41.1949357 C149.667507,40.9518977 150.835439,40.8270032 152.21603,40.7729948 C156.023625,40.6244716 161.451473,41.0329104 161.451473,41.0329104" id="path316" fill="#231F20" fill-rule="nonzero"></path>
                        <path d="M185.944299,27.8278474 C185.846409,27.8919824 185.751894,27.9527419 185.654004,28.0168769 C183.790713,29.2118136 181.940924,30.4168769 180.084384,31.6185646 C178.967084,32.3409275 177.85316,33.0632903 176.725734,33.7755266 C177.512232,33.5291131 178.329109,33.2185646 179.149363,32.8641342 C180.013498,32.4928262 180.89451,32.0776363 181.775523,31.6455688 C183.524046,30.7915604 185.289447,29.880168 187.014341,29.1510541 C186.970459,28.4725731 186.153582,28.3746828 185.944299,27.8278474 Z M183.578054,25.8194086 C183.534173,25.9004213 183.473413,25.9713074 183.416029,26.045569 C182.75105,26.9299571 181.488603,27.2641343 180.560333,27.9054845 C178.892823,29.0632904 177.313076,30.3257376 175.696198,31.5476785 C175.287759,31.8582271 174.882696,32.1654 174.467506,32.465822 C173.265818,33.3434591 172.027,34.1805899 170.697042,34.9265814 C170.707169,35.064978 170.7443,35.0852312 170.81181,35.0683536 C170.818561,35.0616025 170.832063,35.0616025 170.84219,35.058227 C170.963709,35.0042185 171.16624,34.8523198 171.399152,34.9400835 C171.419405,34.9502101 171.439658,34.9502101 171.466662,34.9603367 C172.452316,34.3291131 173.448097,33.708016 174.450629,33.0835435 C175.281008,32.5704633 176.114764,32.0641342 176.95527,31.5645562 C179.486915,30.059071 182.089447,28.6210963 184.827,27.2978896 C184.718983,26.5721512 184.243033,26.1232061 183.578054,25.8194086 L183.578054,25.8194086 Z M181.194932,24.3848095 C180.621093,24.688607 179.969616,25.2962019 179.35527,25.7890289 C177.843034,26.9974677 175.689447,28.4354423 174.069194,29.687763 C173.461599,30.1535857 172.935017,30.5924043 172.543456,30.9839655 C172.519827,31.0008431 172.496198,31.0210963 172.475945,31.0413494 C173.066662,30.7510541 173.633751,30.4405056 174.194088,30.123206 C177.066662,28.5097039 179.662443,26.6497884 182.649784,25.1443032 C182.383118,24.0877631 181.839658,24.0405057 181.194932,24.3848095 L181.194932,24.3848095 Z M193.809278,28.6109697 C193.275945,28.9181427 192.810122,29.2286913 192.374679,29.572995 L192.374679,29.572995 C192.229531,29.687763 192.087759,29.8059064 191.949362,29.9308009 C191.945987,29.9341765 191.942611,29.937552 191.942611,29.937552 C191.80759,30.059071 191.669194,30.187341 191.534172,30.3189866 C191.524046,30.3291132 191.513919,30.3392397 191.500417,30.3527419 C191.372147,30.4810119 191.243877,30.6092819 191.115607,30.7510541 C191.088603,30.7814338 191.058223,30.8151891 191.031219,30.8455688 C190.919826,30.9704634 190.805059,31.0919823 190.690291,31.2270034 C190.541767,31.3957798 190.393244,31.5780583 190.241345,31.7637123 L186.869194,33.2185646 L183.240502,36.6683535 L174.302105,44.6143449 L169.431219,36.722362 L168.523203,38.6396615 L166.295354,43.33502 L144.685228,47.7974672 C145.873414,46.6565389 147.598309,45.2388174 149.4616,44.5232056 C153.691135,42.899577 161.451473,41.0329104 161.451473,41.0329104 C161.451473,41.0329104 156.023625,40.6244716 152.21603,40.7696192 C154.217718,40.2227838 166.325734,34.9704633 166.325734,34.9704633 C166.325734,34.9704633 164.597464,34.3527418 162.670038,34.2143451 C160.840502,34.079324 154.990713,33.8362861 154.990713,33.8362861 L161.697886,31.3383958 C161.697886,31.3383958 159.270882,30.5856532 158.717296,30.4405056 C156.378055,29.8295351 150.150207,25.8734171 147.331642,25.1071724 C145.535861,24.6109698 143.176368,24.3037969 141.701262,24.1485226 C141.701262,24.1485226 145.863287,22.4236281 147.213498,22.5687758 C148.182275,22.6734172 148.911389,23.0177209 149.198309,23.1729952 C149.299574,23.3350205 149.33333,23.2506323 149.33333,23.2506323 C149.33333,23.2506323 149.282697,23.2168771 149.198309,23.1729952 C149.066663,22.9569615 148.820249,22.3021091 148.401684,20.4118138 C148.033752,18.7578054 149.866663,17.1105481 150.595777,16.5333329 C150.062444,17.0025312 149.070038,18.2548519 150.092823,20.5198307 C150.160334,20.6717294 150.275102,20.8438813 150.420249,21.0329109 C150.538393,21.2151893 150.666663,21.3940923 150.801684,21.5662442 C150.84219,21.6202526 150.889448,21.6708855 150.93333,21.724894 C151.034595,21.8430374 151.132486,21.9611809 151.237127,22.0759488 C151.28776,22.1333328 151.341768,22.1873412 151.395777,22.2413497 C151.500418,22.3493665 151.60506,22.4540079 151.713076,22.5586492 C151.763709,22.6059066 151.817718,22.6565395 151.868351,22.7037969 C151.983119,22.8084382 152.101262,22.9130796 152.21603,23.0109699 C152.259912,23.0481007 152.303794,23.0852315 152.347676,23.1223623 C152.486072,23.2371302 152.624469,23.3451471 152.75949,23.453164 C152.779743,23.4666661 152.799996,23.4835437 152.820249,23.5004214 C152.982275,23.6253159 153.140924,23.7434593 153.289448,23.8514762 C153.292823,23.8514762 153.292823,23.8548517 153.296199,23.8548517 C153.417718,23.9426154 153.539237,24.0303791 153.650629,24.1080163 C153.667507,24.1215184 155.027844,25.1578053 156.766241,26.3392398 C156.901262,26.4371301 157.039659,26.5350204 157.181431,26.6329107 C157.194933,26.6430373 157.21181,26.6531639 157.225313,26.6632905 C157.346832,26.7476787 157.464975,26.8286913 157.586494,26.9130795 C157.613498,26.9333327 157.640502,26.9502103 157.667507,26.9704635 C157.799152,27.0582272 157.927422,27.1459909 158.062443,27.2371301 C158.069194,27.2438812 158.079321,27.2472567 158.086072,27.2540078 C158.227844,27.3485225 158.369616,27.4430373 158.511388,27.5375521 C158.538393,27.5544297 158.562021,27.5713073 158.589026,27.588185 C158.703794,27.6624466 158.818561,27.7367082 158.933329,27.8075942 C158.97046,27.8312229 159.007591,27.8548516 159.044722,27.8784803 C159.15949,27.9493664 159.277633,28.023628 159.392401,28.0945141 C159.419405,28.1113917 159.443034,28.1282693 159.470038,28.1417714 C159.608435,28.2261596 159.750207,28.3105478 159.888604,28.3915605 C159.915608,28.4084381 159.942612,28.4219402 159.972992,28.4388179 C160.084384,28.5029529 160.192401,28.5637124 160.300418,28.6244719 C160.340924,28.6481005 160.381431,28.6717292 160.421937,28.6953579 C160.526578,28.7527419 160.627844,28.8067503 160.72911,28.8607588 C160.762865,28.8776364 160.79662,28.8978896 160.830376,28.9147672 C160.962021,28.9822778 161.093667,29.0464128 161.221937,29.1105478 C161.245566,29.1206744 161.269194,29.130801 161.292823,29.1443031 C161.397464,29.194936 161.49873,29.2388178 161.603371,29.2860752 C161.643878,29.3029529 161.681009,29.3198305 161.721515,29.3367081 C161.812654,29.3772145 161.900418,29.4109697 161.988182,29.444725 C162.025312,29.4582271 162.059068,29.4717292 162.092823,29.4852313 C162.210966,29.5291132 162.325734,29.5696195 162.440502,29.6033748 C162.454004,29.6067503 162.467506,29.6101258 162.481009,29.6135014 C162.578899,29.6438811 162.676789,29.6675098 162.767928,29.6911385 C162.801684,29.6978896 162.835439,29.7046406 162.865819,29.7147672 C162.943456,29.7282693 163.014342,29.7417714 163.088604,29.751898 C163.118983,29.7552735 163.149363,29.758649 163.179743,29.7654001 C163.277633,29.7755267 163.368772,29.7822777 163.456536,29.7822777 C163.601684,29.7822777 163.753582,29.7687756 163.905481,29.751898 C163.942612,29.7485225 163.979743,29.7417714 164.016874,29.7383959 C164.145144,29.7215182 164.273414,29.6978896 164.405059,29.6675098 C164.432063,29.6607588 164.455692,29.6573832 164.479321,29.6506322 C164.813498,29.572995 165.151051,29.4616026 165.49873,29.323206 C165.49873,29.3198305 165.502106,29.3198305 165.502106,29.3198305 C167.473414,28.6312229 168.779743,27.4565394 168.810122,27.4261597 L168.810122,27.4261597 C169.907169,26.6531639 170.983962,25.7924044 171.952738,25.0092821 C172.57046,24.509704 173.147675,24.0438813 173.660755,23.6489446 C173.667506,23.645569 173.674257,23.638818 173.681008,23.6354424 C174.207591,23.2708855 174.916451,22.8253159 175.719827,22.3729952 C176.513076,21.9881851 177.421093,21.5898729 178.352738,21.2286915 C178.389869,21.2151893 178.427,21.1983117 178.467506,21.1848096 C178.595776,21.1341767 178.727422,21.0869193 178.855692,21.0396619 C178.929953,21.0126577 179.004215,20.9856535 179.081852,20.9586493 C179.19662,20.9181429 179.308012,20.8776366 179.42278,20.8405058 C179.51392,20.8067505 179.605059,20.7763708 179.696198,20.7493666 C179.800839,20.7122358 179.905481,20.681856 180.010122,20.6481007 C180.108012,20.617721 180.205903,20.5873413 180.303793,20.5569615 C180.401683,20.5265818 180.499574,20.4995775 180.597464,20.4725733 C180.69873,20.4421936 180.799995,20.4151894 180.901261,20.3881851 C180.992401,20.3611809 181.08354,20.3409278 181.174679,20.3172991 C181.27932,20.2902949 181.380586,20.2666662 181.481852,20.2430375 C181.56624,20.2227843 181.654004,20.2059067 181.738392,20.189029 C181.843033,20.1687759 181.944299,20.1485227 182.04219,20.1316451 C182.123202,20.1147674 182.200839,20.1012653 182.278476,20.0911387 C182.379742,20.0742611 182.477633,20.0641345 182.575523,20.0506324 C182.646409,20.0405058 182.720671,20.0303792 182.791557,20.0270037 C182.889447,20.0168771 182.987337,20.0135016 183.078476,20.0067506 C183.142611,20.003375 183.206746,19.9999995 183.267506,19.996624 C183.368772,19.9932484 183.463287,19.9999995 183.557801,20.003375 C183.605059,20.003375 183.655692,20.003375 183.702949,20.0067506 C183.841346,20.0168771 183.969616,20.0337548 184.091135,20.060759 C185.377211,20.6008434 186.318983,21.0835438 187.064974,21.5426155 C187.06835,21.545991 187.071725,21.545991 187.075101,21.5493665 C187.32489,21.7215184 187.574679,21.9004214 187.821092,22.0826999 C187.824468,22.0860754 187.827843,22.0860754 187.831219,22.0894509 C188.067506,22.2683539 188.297042,22.4472568 188.519827,22.6329108 C188.546831,22.653164 188.573835,22.6734172 188.600839,22.6970458 C188.816873,22.8759488 189.026156,23.0548517 189.225312,23.2337547 C189.245565,23.2540079 189.269194,23.274261 189.289447,23.2945142 C189.488603,23.4734171 189.681008,23.6556956 189.85316,23.831223 C189.856535,23.8345986 189.859911,23.8379741 189.866662,23.8413496 C189.994932,23.9763707 190.129953,24.1181429 190.271725,24.2666661 C190.342611,24.3476787 190.413497,24.4286914 190.477632,24.502953 C191.355269,25.552742 192.691978,26.9569614 193.856535,28.3881849 C193.886915,28.4219402 193.917295,28.459071 193.944299,28.4928263 L193.809278,28.6109697 L193.809278,28.6109697 Z" id="path318" fill="#F8F8F8" fill-rule="nonzero"></path>
                        <path d="M162.430376,47.3181423 L162.278477,47.1324883 L161.387338,47.4430368 L161.589869,47.6421929 L161.930798,47.9763701 L162.275101,48.3105473 L162.399996,48.4320663 L162.558646,48.0540072 L162.717296,47.6725726 L162.430376,47.3181423 Z M157.282696,50.7240494 C157.606747,51.5240493 157.81603,51.9223616 157.81603,51.9223616 C157.81603,51.9223616 158.990713,51.662446 160.678477,50.3021084 C160.935017,50.0928258 161.221937,49.8700409 161.508857,49.6506317 C160.347675,49.1645557 159.490291,47.8548511 159.652317,47.1054841 C158.636283,47.2168765 157.616874,47.5139229 157.383962,47.7704629 C156.739237,48.462446 157.002528,50.0388173 157.282696,50.7240494 L157.282696,50.7240494 Z M173.134173,48.7662435 C173.134173,48.7662435 172.334173,46.9637119 170.251473,46.9873406 C168.752738,47.6894503 166.87257,48.9282688 164.806747,50.369619 C162.308857,52.10464 159.827844,55.9054838 155.547675,57.6945133 C150.734173,59.1561167 149.059912,59.2101251 149.059912,59.2101251 L149.063287,59.203374 C148.391557,59.3046399 147.729954,59.3383951 147.071726,59.2810112 C149.748519,57.5763699 150.386494,57.1746821 151.297887,56.5232053 C153.019405,55.2945134 154.889448,52.5738383 154.889448,52.5738383 L153.650629,48.8708849 C151.091979,48.6751043 146.87257,48.2869186 146.87257,48.2869186 L153.927422,46.7476782 L167.993245,44.0236276 C168.594089,42.7172985 169.05316,41.4649779 169.282696,40.6278471 C170.977211,43.2101255 171.848097,44.5333322 172.297042,45.2118132 C173.907169,46.3392393 173.134173,48.7662435 173.134173,48.7662435 L173.134173,48.7662435 Z" id="path420" fill="#231F20" fill-rule="nonzero"></path>
                        <path d="M161.505481,49.6472561 C161.221937,49.8666654 160.931642,50.0928258 160.675101,50.2987329 C158.990713,51.662446 157.812654,51.918986 157.812654,51.918986 C157.812654,51.918986 157.606747,51.5206738 157.279321,50.7206738 C156.999152,50.0354418 156.735861,48.4590705 157.373836,47.7637119 C157.606747,47.5071718 158.626156,47.2101254 159.64219,47.098733 C159.486916,47.8514756 160.3443,49.1611802 161.505481,49.6472561" id="path422" fill="#FFFFFF" fill-rule="nonzero"></path>
                        <polyline id="path424" fill="#FFFFFF" fill-rule="nonzero" points="162.562021 48.0506317 162.403371 48.4286908 162.278477 48.3071718 161.934173 47.9729946 161.593245 47.6388174 161.390713 47.4396613 162.281852 47.1291127 162.433751 47.3147667 162.724047 47.6658216 162.562021 48.0506317"></polyline>
                    </g>
                </g>
            </g>
        </g>
    </g>
</svg>