<?xml version="1.0" encoding="UTF-8"?>
<svg width="200px" height="200px" viewBox="0 0 200 200" version="1.1" xmlns="http://www.w3.org/2000/svg" xmlns:xlink="http://www.w3.org/1999/xlink">
    <!-- Generator: Sketch 54.1 (76490) - https://sketchapp.com -->
    <title>dist-columbia</title>
    <desc>Created with Sketch.</desc>
    <g id="dist-columbia" stroke="none" stroke-width="1" fill="none" fill-rule="evenodd">
        <g id="dist-columbia_BGD" transform="translate(0.000000, -0.000000)">
            <g id="dist-columbia" transform="translate(1.000000, 20.000000)">
                <g id="g10" transform="translate(99.500000, 79.859384) scale(-1, 1) rotate(-180.000000) translate(-99.500000, -79.859384) translate(0.000000, 0.359384)" fill-rule="nonzero">
                    <g id="g12">
                        <path d="M0.382620389,23.3742732 C0.382620389,22.2772952 3.32971999,16.9926785 11.3351654,10.8109242 C23.7752946,1.20473516 57.8559006,-3.74043513 83.9563218,6.31614716 C107.689801,15.4566285 125.178099,38.3576584 130.819685,57.2460243 C131.719106,59.3977305 132.517566,61.7921591 133.419293,64.9116379 C133.921681,66.6496263 135.683599,73.1069605 135.864619,73.7554225 C136.915219,77.5189503 137.857501,80.6318478 138.937656,83.8104049 C141.752267,92.0929239 145.250134,99.9554256 149.885294,107.954479 C150.069927,108.245272 150.462373,108.842318 151.048983,109.70132 C152.046737,111.162381 153.211999,112.798028 154.530768,114.563789 C158.303492,119.615266 162.773889,124.522544 167.085035,129.360771 C174.056469,137.184533 184.397361,145.548225 198.10771,154.451845 C192.573664,157.276682 185.718489,158.689101 177.542187,158.689101 C159.047813,158.689101 138.865469,152.446412 129.264444,146.082442 C116.737119,139.468231 105.049486,129.542687 95.7062197,115.235404 L91.41372,115.332659 C69.5677934,115.827621 48.8316127,106.142639 33.8321523,80.2890081 C28.8096664,73.2292981 24.9135627,57.1221562 26.2132407,44.730516 C27.1866618,35.4495376 30.7748314,28.0882506 36.86734,23.3742732 C30.0881822,22.2772952 16.5871542,21.1137586 0.382620389,23.3742732 Z" id="path18" fill="#9A1A20"></path>
                        <path d="M61.8874889,24.4297269 C61.8874889,24.4297269 41.8089606,13.4146084 15.0091949,16.2445515 C28.1535264,7.34970067 54.6728955,2.06287933 81.6004368,12.4381538 C108.532711,22.8105876 121.930227,50.1648105 124.635996,59.4605403 C129.146004,69.9712165 130.434409,87.488221 144.350127,111.471722 C144.350127,111.471722 162.672922,140.329804 185.479698,151.784504 C162.026945,154.207296 138.164837,144.210767 132.625525,140.438693 C123.606691,135.723305 101.831586,121.84463 90.103435,88.9705383 C89.0764972,90.9899649 82.630924,89.2387379 82.630924,89.2387379 C82.630924,89.2387379 81.3448854,92.068681 71.4221574,87.7550002 C74.6413947,93.1468052 79.4093205,100.826591 91.2652472,108.77434 C79.4069543,109.043013 56.0867097,105.810653 39.3362646,76.7066231 C32.7664651,67.9476474 20.7851289,19.447086 61.8874889,24.4297269" id="path18" fill="#000000"></path>
                        <path d="M78.3232272,73.3841918 C82.0275388,77.2586454 82.5847828,77.8952939 86.2346714,81.0187651 C86.6759707,81.3077957 87.1716931,82.0044517 88.0046012,81.1353479 C88.3902944,82.2911151 90.1046181,86.6305979 85.0716761,86.1678176 C83.9086808,85.8211466 82.7480517,85.6458582 81.8086638,85.2417835 C80.7580638,85.9935944 80.3700043,86.398971 80.3700043,86.398971 C80.3700043,86.398971 73.1802561,86.2269967 67.0931647,79.1084648 C68.8098547,79.7459417 70.9134209,80.7895054 74.1208271,80.7895054 C72.5697723,79.7459417 62.3926761,74.1915126 62.7251295,64.0131861 C62.9984275,61.5234043 64.8819356,58.5728543 70.4697554,59.8461511 C70.4697554,59.8461511 72.3508973,66.4427236 78.3232272,73.3841918 Z" id="path20" fill="#F89C11"></path>
                        <path d="M76.8975819,82.5542253 C76.8975819,82.5542253 78.1244651,84.1210503 80.9887699,84.8340397 C80.9887699,84.8340397 81.142574,83.9810326 80.6208233,83.4765902 C80.0919739,82.9735682 79.9570996,82.8334321 78.4616509,83.0803272 C78.0274502,83.0674262 77.3424306,82.9504883 76.8975819,82.5542253" id="path22" fill="#000000"></path>
                        <path d="M42.0290187,43.4322445 C42.0290187,43.4322445 35.915899,54.4067662 44.8353512,74.3620667 C48.9170743,83.6555478 55.8370739,91.3580587 63.7662646,96.6272447 C71.6990048,101.897733 79.4235178,103.612742 79.8683665,103.706245 C79.8683665,103.706245 72.6241953,97.2829488 71.6682439,96.2851897 C70.717025,95.2883774 66.8707404,90.7985798 63.4113322,83.5958952 C59.9507409,76.3917904 59.591076,73.3043 59.1166496,70.4368374 C58.638674,67.5675994 58.3393476,61.704729 60.8155929,58.58398 C62.4258031,55.7465803 70.4165155,51.5369364 80.2552428,60.9858217 C85.3863829,65.350278 90.485579,76.2950918 90.485579,76.2950918 C90.485579,76.2950918 92.3051993,79.3206809 96.0319899,90.6409267 C98.0290765,95.2883774 102.236209,103.830521 105.693251,108.632311 C109.152659,113.432917 117.295993,123.475605 124.063371,128.306984 C130.833116,133.139547 135.812818,136.165964 143.834291,139.658713 C148.068635,141.249447 155.970615,144.336227 165.989174,144.554006 C165.989174,144.554006 161.24846,141.531139 157.102849,137.538919 C152.961971,133.549066 145.769856,125.190614 143.058172,120.57583 C140.07674,115.898317 136.587754,110.067995 134.293707,105.326568 C134.293707,105.326568 129.161384,94.0715374 128.387631,90.0782521 C127.255397,85.9653068 124.808729,77.732078 124.631263,76.8582398 C124.451431,75.9839283 121.707803,63.3265906 116.874806,54.2185767 C112.046542,45.114232 107.515238,35.636349 94.8098392,26.9060159 C82.1068071,18.174736 68.627656,15.4313127 59.9791355,15.9935139 C59.9791355,15.9935139 81.7483253,22.2285023 92.1253668,34.0144874 C102.507141,45.8003541 105.663673,51.8504671 109.48038,66.0691854 C110.436332,70.3119696 112.10688,78.9799278 112.762322,84.4072403 C113.416581,89.8318305 117.233288,104.862604 119.082486,107.857065 C119.082486,107.857065 110.138188,100.93193 105.066204,79.6049772 C102.084771,69.1904078 97.9722873,55.0924149 90.6370168,45.9279442 C83.298197,36.759331 76.3805637,32.5197424 66.9594735,30.9612025 C66.9594735,30.9612025 59.2645382,29.9005952 51.9292677,31.5196162 C51.9292677,31.5196162 80.7355848,33.0809967 88.4873093,57.7147578 C83.7773558,52.4740961 70.5975311,37.3830784 52.5847096,41.9338304 C55.2715482,42.310091 64.3341566,43.6809149 68.9861378,49.4833043 C65.7077451,49.2308464 45.6694425,46.3625553 52.5267373,73.8650809 C50.7390609,71.4955509 43.0429424,62.5151272 42.0290187,43.4322445" id="path24" fill="#F89C11"></path>
                        <path d="M143.0002,139.32376 C143.0002,139.32376 153.449411,144.164607 165.989174,144.554006 C161.828183,141.563096 156.668649,138.03839 149.512027,129.243197 C142.642901,120.566362 137.645453,114.872152 129.522232,93.6864 C127.200974,88.3662017 120.954163,58.127591 111.582763,44.5959417 C111.582763,44.5959417 105.435333,33.8512715 94.8098392,26.9060159 C100.758507,32.7031976 109.750129,42.5269231 113.546723,52.2513461 C117.833124,63.7311387 120.328299,70.7266965 122.469725,82.4880631 C126.302995,99.496246 129.2513,108.478445 141.481089,124.950347 C142.373153,125.977696 157.546515,141.097948 143.0002,139.32376" id="path26" fill="#FFFFFF"></path>
                        <path d="M79.8683665,103.706245 C77.8144907,101.93324 72.0988953,96.8828983 70.9323507,95.4921901 C69.7646229,94.104796 63.6077282,86.2354001 60.1045449,75.7120596 C60.1045449,75.7120596 62.2021957,85.1488724 65.4214329,90.2812364 C66.6305695,92.5277922 70.3715574,96.8828983 71.3334243,97.8108261 C72.3012068,98.7363867 73.1033541,99.2820177 72.8631832,101.429034 C72.8631832,101.429034 73.9161494,102.15457 79.8683665,103.706245 Z" id="path28" fill="#FFFFFF"></path>
                        <path d="M44.2286757,86.1413989 C49.8601159,91.8191051 53.8658118,104.022007 66.4943007,106.98954 C77.0651895,109.473563 97.4385246,113.973954 97.4385246,113.973954 C97.4385246,113.973954 63.5209559,122.718485 29.6033872,85.7163382 C32.2131667,86.6505104 35.4110909,88.1797707 40.287116,88.1797707 C37.9291415,86.6505104 26.1126409,67.6567664 29.6033872,57.7110633 C33.3006657,69.8831711 38.1757618,79.3599496 44.2286757,86.1413989 Z" id="path20" fill="#9A1A20"></path>
                    </g>
                </g>
            </g>
        </g>
    </g>
</svg>