<?xml version="1.0" encoding="UTF-8"?>
<svg width="200px" height="200px" viewBox="0 0 200 200" version="1.1" xmlns="http://www.w3.org/2000/svg" xmlns:xlink="http://www.w3.org/1999/xlink">
    <!-- Generator: Sketch 54.1 (76490) - https://sketchapp.com -->
    <title>georgian-court</title>
    <desc>Created with Sketch.</desc>
    <g id="georgian-court" stroke="none" stroke-width="1" fill="none" fill-rule="evenodd">
        <g id="georgian-court_BGD">
            <g id="georgian-court" transform="translate(0.000000, 29.000000)">
                <g id="g10" transform="translate(99.999998, 71.511921) scale(-1, 1) rotate(-180.000000) translate(-99.999998, -71.511921) translate(0.000000, 0.607757)" fill-rule="nonzero">
                    <g id="g12">
                        <path d="M186.095233,65.8861759 C182.251186,65.2009675 180.058329,60.6763285 180.058329,60.6763285 C176.883329,54.1788853 169.152377,52.3830437 169.152377,52.3830437 C165.698805,51.5559079 168.257139,54.3768211 168.257139,54.3768211 C170.357139,56.7904227 171.467853,58.892046 171.467853,58.892046 C175.292853,65.8000184 152.55952,72.6032432 152.55952,72.6032432 C132.639282,80.110743 119.279759,75.6535523 119.279759,75.6535523 C103.292378,68.9174183 118.811426,54.3031761 118.811426,54.3031761 C139.203568,37.0840699 153.413091,44.2941297 153.413091,44.2941297 C157.557139,46.617403 157.76071,51.8296337 157.76071,51.8296337 C158.324996,56.7904227 159.761901,52.0367454 159.761901,52.0367454 C165.974996,28.469631 148.438092,18.9330804 148.438092,18.9330804 C140.705949,14.1654605 131.109521,13.8196388 131.109521,13.8196388 L131.109521,13.8363222 C131.109521,13.8363222 136.198806,14.5657413 139.402377,17.6212937 C139.402377,17.6212937 136.78452,17.6212937 134.453568,18.0561329 C134.453568,18.0561329 138.923806,19.1844029 138.672616,21.4118661 C138.672616,21.4118661 136.927378,30.7310567 108.554164,17.3317187 C108.554164,17.3317187 94.7311881,10.7762056 95.1636881,-1.13686835e-14 C95.1636881,-1.13686835e-14 87.3092835,4.51297264 85.2710693,19.9511212 C85.2710693,19.9511212 83.0869027,34.0835725 77.9961885,40.0558482 C77.9961885,40.0558482 69.701903,53.0166528 52.0949987,60.5925543 C52.0949987,60.5925543 37.83488,68.6031758 34.1969039,55.0586928 C34.1969039,55.0586928 27.9413088,64.6735359 40.3078561,75.0130315 C40.3078561,75.0130315 33.7602373,93.0747652 4.5474734e-14,104.727001 C4.5474734e-14,104.727001 12.235833,111.171772 25.8054755,112.201968 C23.6082137,115.356548 20.9682138,120.277297 21.0528566,125.652905 C21.1216661,129.900005 22.8654756,133.699038 26.1695232,136.865297 C26.4727374,137.190622 33.1984516,144.183321 49.1164273,140.410505 C51.8205939,140.057771 54.9348796,139.372563 58.508689,138.199963 C58.508689,138.199963 67.0177364,135.593788 70.3659506,134.866872 C70.3659506,134.866872 73.1291648,134.41523 77.2902362,134.126847 C81.7336884,133.858722 86.6940455,133.968355 91.2226168,134.997955 C91.810831,135.177897 100.912855,137.881788 112.216307,137.357455 C119.099997,137.483772 128.096425,136.530438 138.238092,132.694463 C138.238092,132.694463 151.041663,125.704147 155.263091,127.013788 C155.263091,127.013788 158.755948,128.468813 159.920234,123.51863 C159.920234,123.51863 160.213091,120.895772 155.553568,117.399184 C155.553568,117.399184 156.13571,114.194196 159.046425,112.44626 C159.046425,112.44626 167.632139,106.038787 182.329757,101.231127 C182.329757,101.231127 193.534519,97.1510992 198.917852,85.4988637 C198.917852,85.4988637 200.810709,82.7324096 198.628566,80.985903 C198.628566,80.985903 196.444043,78.8021739 195.569043,74.7211923 C194.28809,67.6424541 186.095233,65.8861759 186.095233,65.8861759" id="path14" fill="#D09B17"></path>
                        <path d="M169.832139,77.4615489 C169.832139,77.4615489 160.715472,86.7845528 152.178568,88.338367 C152.178568,88.338367 136.267854,90.8613636 148.686901,90.4726419 C148.686901,90.4726419 155.670234,89.8893211 163.045234,86.9799862 C163.045234,86.9799862 156.251187,91.8351935 145.972615,93.5821768 C145.972615,93.5821768 134.330949,95.5232826 132.776187,101.349817 C132.776187,101.349817 130.642854,108.730286 127.927378,110.867778 C127.927378,110.867778 121.524997,117.2768 112.792973,118.052694 C112.792973,118.052694 121.138092,119.602814 130.059521,116.497926 C130.059521,116.497926 131.042854,116.002193 132.755949,115.513967 L132.747616,115.504672 C134.245235,110.623963 130.448806,109.118054 130.448806,109.118054 C135.344044,110.900906 135.539282,113.699416 135.382139,114.921351 L135.417854,114.905025 C136.430949,114.7314 137.566663,114.601508 138.790473,114.555986 C138.790473,114.555986 153.486901,114.021524 143.645235,122.908497 C143.645235,122.908497 147.717853,117.081247 132.195235,121.936097 C132.195235,121.936097 112.014997,128.346072 130.448806,127.374863 C130.448806,127.374863 110.839878,133.563188 93.5835691,128.346072 C93.5835691,128.346072 64.871665,120.575214 52.648332,128.346072 C52.648332,128.346072 42.4130942,134.778688 35.6723801,134.654755 C35.6723801,134.654755 31.336904,135.550888 28.7411898,132.282147 C21.9898804,121.265189 36.3778562,111.858411 36.3778562,111.858411 C34.2332134,112.262505 32.0521421,112.451026 29.8782135,112.477481 C29.2071421,113.308431 28.3374993,114.477694 27.4878565,115.88255 C25.8672613,118.558318 24.3210708,122.086247 24.3824994,125.753005 C24.4382137,129.075372 25.8379755,132.07718 28.5435707,134.673822 C28.6979755,134.831122 30.1888088,136.321897 33.3738087,137.359838 C37.1303562,138.581297 43.250118,139.16998 52.3390463,136.186047 C52.6344034,136.082372 60.5873794,133.240247 63.9983317,132.497838 C64.5749984,132.359605 79.0444028,128.955013 92.078212,131.917497 C92.4070215,132.015213 113.753211,138.33343 130.963092,129.441213 C133.170235,128.238822 144.588092,122.204222 149.247615,123.650905 C149.373806,123.696189 150.23333,124.01198 150.811901,123.667589 C151.273806,123.38993 151.611901,122.630839 151.75833,121.533314 C151.741663,121.528547 151.601187,119.633797 148.042853,116.961127 L147.188092,116.315482 L147.416663,115.269556 C147.448806,115.129416 148.205949,111.842085 151.440472,109.417758 C152.026187,108.866612 156.627377,104.676712 164.498805,100.604072 C167.119043,98.74686 176.155948,91.6032952 176.2369,81.3488846 C176.2369,81.3488846 176.641662,71.8374782 169.832139,77.4615489" id="path16" fill="#FFFFFF"></path>
                    </g>
                </g>
            </g>
        </g>
    </g>
</svg>