<?xml version="1.0" encoding="UTF-8"?>
<svg width="200px" height="200px" viewBox="0 0 200 200" version="1.1" xmlns="http://www.w3.org/2000/svg" xmlns:xlink="http://www.w3.org/1999/xlink">
    <!-- Generator: Sketch 54.1 (76490) - https://sketchapp.com -->
    <title>indianapolis</title>
    <desc>Created with Sketch.</desc>
    <g id="indianapolis" stroke="none" stroke-width="1" fill="none" fill-rule="evenodd">
        <g id="indianapolis_BGD">
            <g id="indianapolis" transform="translate(0.000000, 21.000000)">
                <g id="g10" transform="translate(100.074904, 79.041897) scale(-1, 1) rotate(-180.000000) translate(-100.074904, -79.041897) translate(0.299625, 0.341142)">
                    <g id="g12" transform="translate(0.539326, 0.000000)">
                        <path d="M118.580372,68.3756953 L117.579023,71.5769906 L119.262319,71.9474527 L130.409585,66.099059 L118.580372,68.3756953 Z M178.403591,45.3244534 L174.89258,50.1548844 L163.461269,52.5039373 L160.891681,53.4818615 L159.530183,55.8972865 L152.750258,60.8689 L147.119697,66.3821423 L140.799397,71.9779755 L135.503218,75.8543617 L132.314603,79.6942404 L132.339772,80.8493162 L134.237,82.6782858 L140.535727,82.0438919 L142.54082,80.4818465 L152.762843,79.5559904 L165.858872,78.2596723 C165.858872,78.2596723 167.599097,79.1430359 169.006138,80.1820056 C169.394453,80.4686798 169.748011,80.0611116 170.088985,80.3525737 C171.521793,81.5806646 172.719097,83.1498919 172.719097,83.1498919 L169.933179,85.6222327 L164.723292,88.7427326 L157.847487,92.4599219 L155.955652,96.75824 L154.670258,97.9797476 L146.195652,101.649058 L143.26951,101.255854 L136.357749,103.635429 L135.956851,102.62399 L138.097974,100.85427 C138.097974,100.85427 138.77333,98.8810657 139.465465,98.2143536 L138.032056,98.2400885 C133.851682,101.503028 127.543967,102.716157 116.026963,102.21702 C116.026963,102.21702 102.129735,102.065005 83.221571,95.3859143 C70.9261405,90.9164295 54.3983807,82.2312176 41.9761488,72.6991497 C28.3633251,62.7092409 16.8502168,50.6149995 15.446891,48.1654011 C15.8541419,47.7951185 16.1418423,47.5430965 16.1418423,47.5430965 C18.8345164,49.8154238 22.4946212,53.8164146 26.7256323,56.8406183 C30.1875049,59.5730606 34.8028755,63.3370514 42.0402686,67.8167104 C64.9815714,82.0283313 72.4044926,82.571157 72.4044926,82.571157 C72.4044926,82.571157 50.2151298,72.2634527 34.3595497,56.5161198 L35.4676845,55.4844516 C37.9588305,56.6561653 41.6339166,60.1471273 58.478021,67.5060968 C65.1391744,70.4159301 71.240148,72.2574679 75.9202977,73.4041648 C66.2100358,70.1962861 54.3265305,63.2053848 48.0650775,57.7668933 C48.6547404,57.3462781 49.1207778,56.9806637 49.1207778,56.9806637 C49.1207778,56.9806637 65.0654665,65.8231574 80.2241178,68.029771 L85.0187245,68.759324 L89.9667393,69.0322331 C95.6206718,69.3482331 101.026514,69.0286422 101.026514,69.0286422 L107.889735,58.9376493 L112.148012,57.3586667 L121.163742,58.3342569 L131.678199,58.0093395 L142.041644,55.7297107 L143.519996,55.6284471 L144.245689,55.2366191 L145.096026,55.1192562 L148.532131,51.5187714 L149.90861,51.8203479 L151.920296,50.5804071 L154.890183,50.3713563 L158.584565,46.2701193 L169.115801,44.1286807 L171.312655,42.3273611 L177.94876,42.1931808 L178.754752,42.95978 L178.403591,45.3244534 L178.403591,45.3244534 Z" id="path14" fill="#FFFFFF" fill-rule="nonzero"></path>
                        <path d="M133.586813,109.653793 L132.155802,106.042535 C128.979173,106.774482 125.226064,107.112626 120.67775,107.113225 C119.1976,107.113225 117.586214,107.076119 115.88554,107.003103 C114.522844,106.978566 100.482394,106.56202 81.6233687,99.8996869 L81.602395,99.8925051 L81.5820204,99.8853233 C67.6937811,94.8365052 51.0233995,85.6713085 39.0957294,76.5270587 C25.4721192,66.5209908 13.1760296,53.8425684 11.2858125,50.5432412 L9.37689864,47.2108776 L12.2186064,44.6259019 C12.6654678,44.2191716 12.9810334,43.9432701 12.9810334,43.9432701 L16.0837749,41.2278846 L19.2361943,43.8862345 C20.2799695,44.7666655 21.401947,45.8320284 22.5901418,46.9583769 C24.6704413,48.9322397 27.0278345,51.1692563 29.515445,52.9467563 L29.6083888,53.0138464 L29.6982764,53.0844078 L30.4103663,53.6476418 L31.0896771,53.0149835 L32.1978119,51.9825972 L34.5725834,49.7705374 L37.5102912,51.1524389 C38.428823,51.5847245 39.3092425,52.1429911 40.4236694,52.8485449 C41.2762237,53.3897547 42.3569727,54.0743017 43.8073397,54.9212774 L45.2773622,53.8720737 C45.7628753,53.5256108 46.1570625,53.2172115 46.1608378,53.2141593 L48.6648078,51.2537025 L51.4482684,52.7940828 C51.5983208,52.877332 66.836253,61.242953 80.9156534,63.2921651 L80.9306347,63.294559 L80.945616,63.2963545 L85.5125072,63.9911954 L90.2316082,64.2515363 C91.8022449,64.3395135 93.51011,64.3838014 95.3102598,64.3838014 C96.4877878,64.3838014 97.5520575,64.3646499 98.4197728,64.3407105 L103.923893,56.2475198 L104.785615,54.9816047 L106.221421,54.449013 L110.479098,52.8700305 L111.539772,52.4770654 L112.663967,52.5990964 L121.348312,53.5386578 L131.083143,53.2382782 L141.010933,51.0538086 L141.358498,50.9771427 L141.714453,50.9525449 L142.153704,50.9226207 L142.729584,50.6114684 L142.782319,50.6042268 L145.061869,48.215195 L146.923742,46.2640746 L149.041494,46.7285587 L149.402843,46.506461 L150.405989,45.8869693 L151.582918,45.8044382 L152.621419,45.7314829 L155.02082,43.0675073 L156.078498,41.8939383 L157.628161,41.5785368 L166.993254,39.6741581 L168.270857,38.6275278 L169.555052,37.5740748 L171.215576,37.5406794 L177.851681,37.4064991 L179.826213,37.3658021 L181.256025,38.7268763 L182.062018,39.4934755 L183.861568,41.206399 L183.496625,43.6625209 L183.145464,46.0270148 L182.973479,47.1874769 L182.283142,48.1373321 L178.771531,52.9677631 L177.679696,54.4705585 L175.858572,54.8446115 L164.806588,57.1158016 L164.218722,57.3390364 L163.707561,58.2463395 L163.200595,59.1459819 L162.367037,59.7563765 L155.862168,64.5262408 L150.476101,69.8000892 L150.389809,69.8844755 L150.300521,69.9646725 L144.001195,75.5419527 L152.309809,74.7890587 L165.385464,73.4951345 L166.781119,73.357483 L168.030558,73.9912785 C168.19655,74.0756648 169.387262,74.6873163 170.696026,75.5329754 C171.618273,75.6951648 172.486587,76.100339 173.205089,76.713786 C174.977074,78.233339 176.378123,80.0461495 176.53213,80.2484374 L179.226363,83.7794979 L175.903516,86.7288312 L173.118198,89.201172 L172.783217,89.498619 L172.399097,89.7284372 L167.189209,92.8489371 L167.098722,92.9033992 L167.005839,92.9536719 L161.574827,95.88924 L160.343966,98.6853612 L159.957449,99.5645354 L159.259921,100.227058 L157.973929,101.448566 L157.357899,102.034482 L156.576475,102.372626 L148.102468,106.041937 L146.878798,106.571596 L145.55685,106.394444 L143.7573,106.152656 L137.919997,108.162369 L133.586813,109.653793 L133.586813,109.653793 Z M130.409585,66.099059 L119.262319,71.9474527 L117.579023,71.5769906 L118.580372,68.3756953 L130.409585,66.099059 L130.409585,66.099059 Z M136.357749,103.635429 L143.26951,101.255854 L146.195652,101.649058 L154.670258,97.9797476 L155.955652,96.75824 L157.847487,92.4599219 L164.723292,88.7427326 L169.933179,85.6222327 L172.719097,83.1498919 C172.719097,83.1498919 171.521793,81.5806646 170.088985,80.3525737 C169.98831,80.2663919 169.886438,80.2412556 169.782767,80.2412556 C169.638348,80.2412556 169.490333,80.2903313 169.338123,80.2903313 C169.230258,80.2903313 169.119996,80.2657934 169.006138,80.1820056 C167.599097,79.1430359 165.858872,78.2596723 165.858872,78.2596723 L152.762843,79.5559904 L142.54082,80.4818465 L140.535727,82.0438919 L134.237,82.6782858 L132.339772,80.8493162 L132.314603,79.6942404 L135.503218,75.8543617 L140.799397,71.9779755 L147.119697,66.3821423 L152.750258,60.8689 L159.530183,55.8972865 L160.891681,53.4818615 L163.461269,52.5039373 L174.89258,50.1548844 L178.403591,45.3244534 L178.754752,42.95978 L177.94876,42.1931808 L171.312655,42.3273611 L169.115801,44.1286807 L158.584565,46.2701193 L154.890183,50.3713563 L151.920296,50.5804071 L149.90861,51.8203479 L148.532131,51.5187714 L145.096026,55.1192562 L144.245689,55.2366191 L143.519996,55.6284471 L142.041644,55.7297107 L131.678199,58.0093395 L121.163742,58.3342569 L112.148012,57.3586667 L107.889735,58.9376493 L101.026514,69.0286422 C101.026514,69.0286422 98.6061399,69.1716801 95.3102598,69.1716801 C93.6808965,69.1716801 91.8376007,69.136968 89.9667393,69.0322331 L85.0187245,68.759324 L80.2241178,68.029771 C65.0654665,65.8231574 49.1207778,56.9806637 49.1207778,56.9806637 C49.1207778,56.9806637 48.6547404,57.3462781 48.0650775,57.7668933 C54.3265305,63.2053848 66.2100358,70.1962861 75.9202977,73.4041648 C71.240148,72.2574679 65.1391744,70.4159301 58.478021,67.5060968 C41.6339166,60.1471273 37.9588305,56.6561653 35.4676845,55.4844516 L34.3595497,56.5161198 C50.2151298,72.2634527 72.4044926,82.571157 72.4044926,82.571157 C72.4044926,82.571157 64.9815714,82.0283313 42.0402686,67.8167104 C34.8028755,63.3370514 30.1875049,59.5730606 26.7256323,56.8406183 C22.4946212,53.8164146 18.8345164,49.8154238 16.1418423,47.5430965 C16.1418423,47.5430965 15.8541419,47.7951185 15.446891,48.1654011 C16.8502168,50.6149995 28.3633251,62.7092409 41.9761488,72.6991497 C54.3983807,82.2312176 70.9261405,90.9164295 83.221571,95.3859143 C102.129735,102.065005 116.026963,102.21702 116.026963,102.21702 C117.682694,102.288838 119.228761,102.325346 120.67775,102.325346 C129.311757,102.324747 134.452731,101.033816 138.032056,98.2400885 L139.465465,98.2143536 C138.77333,98.8810657 138.097974,100.85427 138.097974,100.85427 L135.956851,102.62399 L136.357749,103.635429 L136.357749,103.635429 Z" id="path16" fill="#FFFFFF" fill-rule="nonzero"></path>
                        <polyline id="path18" fill="#FFFFFF" fill-rule="nonzero" points="27.6285237 46.255636 60.1839685 46.255636 90.8062899 110.078717 58.2675641 110.252876 78.1183501 152.054648 190.86022 152.054648 171.01243 110.137967 138.46112 110.025452 108.405091 46.3640814 140.614828 46.3640814 120.649585 4.78787867 7.68143801 4.78787867 27.6285237 46.255636"></polyline>
                        <path d="M198.430557,156.842526 L75.0855412,156.842526 L73.7863652,154.106254 L53.9361185,112.304482 L50.7074145,105.505694 L58.2417963,105.464997 L83.2125822,105.331535 L57.165242,51.0435146 L27.6285237,51.0435146 L24.6130331,51.0435146 L23.3073253,48.3288473 L3.3602516,6.8603718 L0.0596910097,0 L7.68143801,0 L120.649585,0 L123.667413,0 L124.972581,2.7177316 L144.936626,44.2939822 L148.230708,51.1519601 L140.614828,51.1519601 L115.96584,51.1519601 L141.505914,105.248346 L171.02861,105.350088 L174.053029,105.360861 L175.346812,108.091149 L195.194602,150.00783 L198.430557,156.842526 Z M190.86022,152.054648 L171.01243,110.137967 L138.46112,110.025452 L108.405091,46.3640814 L140.614828,46.3640814 L120.649585,4.78787867 L7.68143801,4.78787867 L27.6285237,46.255636 L60.18277,46.255636 L60.1839685,46.255636 L90.8062899,110.078717 L58.2675641,110.252876 L78.1183501,152.054648 L190.86022,152.054648 L190.86022,152.054648 Z" id="path20" fill="#FFFFFF" fill-rule="nonzero"></path>
                        <path d="M15.3593404,9.75763688 L117.656926,9.55121946 L133.050484,41.6096581 L100.886889,41.6096581 L104.092881,48.3928852 L134.151308,112.053717 L135.434304,114.770838 L136.939622,114.776823 L138.441944,114.782209 L167.991606,114.883353 L183.34022,147.29789 L81.1313837,147.29789 L65.7791744,114.970133 L90.8332562,114.838467 L98.353256,114.799565 L95.1047167,108.026512 L64.4787999,44.198105 L63.1874142,41.4976815 L61.6850921,41.4976815 L60.18277,41.4953474 L30.6245386,41.4976815 L15.3593404,9.75763688 Z M27.6285237,46.255636 L60.1839685,46.255636 L90.8062899,110.078717 L58.2675641,110.252876 L78.1183501,152.054648 L190.86022,152.054648 L171.01243,110.137967 L138.46112,110.025452 L108.405091,46.3640814 L140.614828,46.3640814 L120.649585,4.78787867 L7.68143801,4.78787867 L27.6285237,46.255636 L27.6285237,46.255636 Z" id="path22" fill="#231F20" fill-rule="nonzero"></path>
                        <polyline id="path24" fill="#231F20" points="83.8262151 142.51839 176.271456 142.51839 165.491531 119.355232 132.562094 119.355232 93.5155033 37.1970294 126.183667 37.1970294 114.859623 13.6526959 22.4150406 13.6526959 33.5208381 37.1425074 66.6337062 37.1970294 105.564642 119.437224 72.7202978 119.355232 83.8262151 142.51839"></polyline>
                        <polyline id="path26" fill="#231F20" fill-rule="nonzero" points="131.850184 8.85033387 130.500072 8.85033387 130.500072 9.33708158 133.785764 9.33708158 133.785764 8.85033387 132.42966 8.85033387 132.42966 4.90453533 131.850184 4.90453533 131.850184 8.85033387"></polyline>
                        <path d="M138.023068,6.85217256 C137.990708,7.46962936 137.950558,8.21300737 137.957749,8.76594751 L137.938573,8.76594751 C137.786963,8.24532555 137.601794,7.68699905 137.378274,7.08246952 L136.595053,4.93095245 L136.159397,4.93095245 L135.442693,7.04105437 C135.231757,7.66712935 135.05318,8.23993919 134.927937,8.76594751 L134.915952,8.76594751 C134.902169,8.21300737 134.869809,7.46962936 134.82966,6.80590968 L134.711607,4.90453533 L134.164491,4.90453533 L134.473705,9.33708158 L135.204791,9.33708158 L135.962843,7.19324906 C136.146813,6.64737105 136.297824,6.16086272 136.410483,5.70056804 L136.430259,5.70056804 C136.542319,6.14757636 136.699922,6.63474302 136.897674,7.19324906 L137.688086,9.33708158 L138.418573,9.33708158 L138.695427,4.90453533 L138.135727,4.90453533 L138.023068,6.85217256" id="path28" fill="#231F20" fill-rule="nonzero"></path>
                        <path d="M118.580372,68.3756953 L117.579023,71.5769906 L119.262319,71.9474527 L130.409585,66.099059 L118.580372,68.3756953 Z M178.403591,45.3244534 L174.89258,50.1548844 L163.461269,52.5039373 L160.891681,53.4818615 L159.530183,55.8972865 L152.750258,60.8689 L147.119697,66.3821423 L140.799397,71.9779755 L135.503218,75.8543617 L132.314603,79.6942404 L132.339772,80.8493162 L134.237,82.6782858 L140.535727,82.0438919 L142.54082,80.4818465 L152.762843,79.5559904 L165.858872,78.2596723 C165.858872,78.2596723 167.599097,79.1430359 169.006138,80.1820056 C169.394453,80.4686798 169.748011,80.0611116 170.088985,80.3525737 C171.521793,81.5806646 172.719097,83.1498919 172.719097,83.1498919 L169.933179,85.6222327 L164.723292,88.7427326 L157.847487,92.4599219 L155.955652,96.75824 L154.670258,97.9797476 L146.195652,101.649058 L143.26951,101.255854 L136.357749,103.635429 L135.956851,102.62399 L138.097974,100.85427 C138.097974,100.85427 138.77333,98.8810657 139.465465,98.2143536 L138.032056,98.2400885 C133.851682,101.503028 127.543967,102.716157 116.026963,102.21702 C116.026963,102.21702 102.129735,102.065005 83.221571,95.3859143 C70.9261405,90.9164295 54.3983807,82.2312176 41.9761488,72.6991497 C28.3633251,62.7092409 16.8502168,50.6149995 15.446891,48.1654011 C15.8541419,47.7951185 16.1418423,47.5430965 16.1418423,47.5430965 C18.8345164,49.8154238 22.4946212,53.8164146 26.7256323,56.8406183 C30.1875049,59.5730606 34.8028755,63.3370514 42.0402686,67.8167104 C64.9815714,82.0283313 72.4044926,82.571157 72.4044926,82.571157 C72.4044926,82.571157 50.2151298,72.2634527 34.3595497,56.5161198 L35.4676845,55.4844516 C37.9588305,56.6561653 41.6339166,60.1471273 58.478021,67.5060968 C65.1391744,70.4159301 71.240148,72.2574679 75.9202977,73.4041648 C66.2100358,70.1962861 54.3265305,63.2053848 48.0650775,57.7668933 C48.6547404,57.3462781 49.1207778,56.9806637 49.1207778,56.9806637 C49.1207778,56.9806637 65.0654665,65.8231574 80.2241178,68.029771 L85.0187245,68.759324 L89.9667393,69.0322331 C95.6206718,69.3482331 101.026514,69.0286422 101.026514,69.0286422 L107.889735,58.9376493 L112.148012,57.3586667 L121.163742,58.3342569 L131.678199,58.0093395 L142.041644,55.7297107 L143.519996,55.6284471 L144.245689,55.2366191 L145.096026,55.1192562 L148.532131,51.5187714 L149.90861,51.8203479 L151.920296,50.5804071 L154.890183,50.3713563 L158.584565,46.2701193 L169.115801,44.1286807 L171.312655,42.3273611 L177.94876,42.1931808 L178.754752,42.95978 L178.403591,45.3244534 L178.403591,45.3244534 Z" id="path30" fill="#A80C30" fill-rule="nonzero"></path>
                        <path d="M103.992207,98.8840581 C111.663817,100.172596 117.42981,100.742952 119.895128,100.713028 C125.627562,100.645997 132.767038,99.7021869 136.115652,97.9055354 L133.167337,97.3226112 L131.223967,97.8450885 L126.82906,97.7870354 L126.288536,96.4721643 L128.636401,95.6277022 L130.298723,93.3474749 L134.184266,92.3031189 L135.297675,90.7488538 L137.214678,90.484922 L139.079547,88.2184599 L140.432656,87.3793842 L141.729435,87.9910357 L140.910858,89.2634144 L139.318049,92.8070431 L140.433854,97.0108006 L146.057824,99.9691111 L154.190258,96.6283688 L156.494977,91.3204068 L160.098872,89.340619 L169.665913,84.2319524 L169.495726,83.3755206 L167.569134,83.2725813 L167.832805,81.3119449 L164.90846,79.7786268 L155.389959,80.6362556 L156.127037,81.8577631 L155.288685,83.0894449 L154.313704,82.6549449 C154.313704,82.6549449 154.99685,81.6602631 151.887337,81.3454601 C144.575877,80.6051343 142.764341,85.2248388 142.764341,85.2248388 L134.75715,86.0836645 L124.841345,89.6296872 L123.490034,88.4740129 L121.227263,92.4162325 L119.094529,92.7609598 L114.906963,83.5664373 C110.202244,80.0724828 109.46996,79.575142 109.46996,79.575142 L113.524492,80.0138313 C113.55745,79.9246571 114.995653,77.7748996 114.995653,77.7748996 L116.811982,67.4953241 L138.623517,62.5829606 L149.304566,57.8795879 L151.643442,57.5562266 L156.940221,56.0876047 L158.393404,55.2515812 L159.243142,54.1916047 L158.542618,52.4415154 L155.717749,52.5193782 L156.148011,54.8995524 L155.034603,54.9850759 L153.24464,52.4752101 L148.802993,53.634535 L144.953405,57.9015523 L142.207038,58.1535743 L140.610034,58.2973304 L126.995652,60.5888091 L119.098724,61.4087333 C119.098724,61.4087333 115.834604,62.6679454 115.816027,62.6751272 L113.392656,62.3076575 L110.379023,63.0294302 L113.484342,60.0166576 L111.750709,59.4498925 L109.275203,61.1292409 L101.272806,75.9118163 L100.494979,75.8274299 L99.8945293,72.2036043 C95.2826942,72.9912103 89.0289116,71.8361346 89.0289116,71.8361346 C94.8050913,78.4811117 103.979024,80.915748 103.979024,80.915748 C103.979024,80.915748 102.625915,82.4221343 100.154005,86.2584221 C100.154005,86.2584221 99.1970013,85.27571 99.0022447,80.8995889 C95.6847916,80.5410965 91.6416456,80.6254828 84.9456159,79.5853162 C77.4483876,78.4188693 70.9854664,76.200286 62.4647175,73.0726042 C62.4647175,73.0726042 73.8139307,80.8475207 79.5517583,83.8255812 C86.5623948,87.464369 88.4548292,88.4387023 88.4548292,88.4387023 C88.4548292,88.4387023 82.9477133,87.8491948 76.5626947,86.4343766 C70.239399,85.0327251 67.7075639,84.16971 62.0518337,81.9888313 C65.040298,85.0818009 89.2530315,96.4087249 103.992207,98.8840581" id="path32" fill="#BDBCBC" fill-rule="nonzero"></path>
                        <polyline id="path34" fill="#A80C30" fill-rule="nonzero" points="149.648536 94.4504825 152.514753 92.1959901 153.273404 92.4353841 153.335127 93.8023234 154.11715 93.8358386 154.603142 92.2660128 154.35685 91.1402629 154.569584 89.1514978 153.238049 89.3950811 150.550408 89.0521493 146.945914 90.5304068 144.291832 90.206028 143.738124 90.563922 146.24479 92.9812022 147.877749 92.8974143 149.648536 94.4504825"></polyline>
                        <polyline id="path36" fill="#BDBCBC" fill-rule="nonzero" points="136.396101 69.0938771 141.448985 67.9142635 151.042992 59.6600803 148.964191 60.038203 141.646738 63.6955439 137.962543 64.814112 136.119248 64.8751575 135.831607 66.1020514 135.350409 67.6198089 136.396101 69.0938771"></polyline>
                        <polyline id="path38" fill="#BDBCBC" fill-rule="nonzero" points="161.382468 51.3883616 165.003142 49.8963389 174.008086 48.3977927 176.131232 44.9265807 176.195351 44.1562709 171.598498 44.0323247 170.01288 46.0073246 161.478947 47.66812 159.173629 49.9987397 160.901869 50.4990131 161.382468 51.3883616"></polyline>
                    </g>
                </g>
            </g>
        </g>
    </g>
</svg>