<?xml version="1.0" encoding="UTF-8"?>
<svg width="200px" height="200px" viewBox="0 0 200 200" version="1.1" xmlns="http://www.w3.org/2000/svg" xmlns:xlink="http://www.w3.org/1999/xlink">
    <!-- Generator: Sketch 54.1 (76490) - https://sketchapp.com -->
    <title>lander</title>
    <desc>Created with Sketch.</desc>
    <g id="lander" stroke="none" stroke-width="1" fill="none" fill-rule="evenodd">
        <g id="lander_BGL">
            <g id="lander" transform="translate(8.000000, 0.000000)">
                <g id="g10" transform="translate(92.000000, 100.104898) scale(-1, 1) rotate(-180.000000) translate(-92.000000, -100.104898) translate(0.000000, 0.358023)" fill-rule="nonzero">
                    <g id="g12" transform="translate(0.000000, 0.617609)">
                        <polyline id="path236" fill="#C99319" points="82.7171124 16.1949304 82.2615635 24.7488092 77.8300922 24.7488092 78.2807295 16.2133352 82.7171124 16.1949304"></polyline>
                        <path d="M168.415555,40.4795467 C141.954428,46.3998189 128.504072,54.8533981 128.504072,54.8533981 C141.28277,50.1152286 158.127027,50.4089633 163.259626,50.4572602 C161.120634,54.7607568 157.32644,55.1178581 152.746393,58.2540744 C167.393947,72.3775473 181.725932,95.5230463 181.725932,117.540792 C181.725932,160.386769 147.191398,195.11737 104.594509,195.11737 C62.0111269,195.11737 23.7781749,159.098438 23.7781749,116.24752 C23.7781749,80.0494811 33.1175407,41.4589503 66.4622446,32.9037128 C66.4094451,32.3390951 79.0100988,27.5859795 79.0100988,27.0078978 C79.0100988,10.7710919 104.421376,11.243933 127.938012,11.243933 C145.474802,11.243933 160.525105,18.5727234 167.058732,29.0238958 C144.481435,29.1251836 126.12564,35.4121918 126.12564,35.4121918 C139.862096,32.9369402 168.454848,40.4795467 168.415555,40.4795467 L168.415555,40.4795467" id="path238" fill="#EDEF2E"></path>
                        <path d="M142.654328,120.946286 L144.84612,107.740579 L154.798205,114.59727 C154.798205,114.59727 146.303631,120.208861 142.654328,120.946286 L142.654328,120.946286" id="path240" fill="#FFFFFF"></path>
                        <path d="M61.1098523,176.155552 C61.1098523,176.155552 47.8228056,156.106742 45.9809638,144.971259 L40.8152115,148.314992 C40.8152115,148.314992 35.419843,130.480927 42.6570533,115.638558 L34.6953852,115.267992 C34.6953852,115.267992 36.1492123,91.5913501 53.3581542,80.0013076 L44.1735031,78.3794675 C44.1735031,78.3794675 52.9271632,63.7026173 74.4005827,56.2420292 C74.4005827,56.2420292 67.7527617,52.5277312 62.9516941,52.5277312 C62.9516941,52.5277312 70.3374797,40.2768475 105.764693,38.4187104 C105.764693,38.4187104 100.59894,32.8554158 101.331993,28.0307812 C102.076098,23.1999704 107.24185,17.6328467 110.191253,15.7752036 C113.150478,13.9170665 51.880997,15.7752036 28.632042,73.6905832 C10.4641145,118.943999 32.695145,162.789267 61.4782207,177.636577" id="path242" fill="#C99319"></path>
                        <path d="M175.888521,136.661954 C175.888521,136.661954 178.402022,120.208861 168.085252,106.413956 L174.358565,106.254613 C174.358565,106.254613 172.564611,90.8576311 157.172953,81.4391003 L164.094595,77.9113202 C164.094595,77.9113202 149.954161,65.1737609 138.27934,63.7026173 L154.329149,57.1016168 C154.329149,57.1016168 176.215141,70.3122643 179.755161,100.913534 C182.843316,127.625105 175.888521,136.661954 175.888521,136.661954 L175.888521,136.661954" id="path244" fill="#C99319"></path>
                        <path d="M113.865113,159.262722 C113.865113,159.262722 104.147556,160.155784 102.823885,149.945479 C101.970499,143.316068 107.236938,140.314491 112.095717,138.838406 C112.095717,138.838406 94.6657541,132.68579 77.249298,132.005185 L94.8769519,124.633409 L75.8347635,119.649308 C75.8347635,119.649308 89.1205824,114.91472 94.6510193,112.405994 C95.4565181,112.044076 84.5786005,106.809225 84.65473,106.698056 C90.3104122,98.9779487 104.277712,87.6683004 119.860922,81.2896391 C120.134742,81.1784695 120.39874,81.0574182 120.671332,80.9462487 L121.674522,115.817664 L121.981496,119.026758 L123.569163,135.287157 L129.756524,147.27741 C129.756524,147.27741 125.104032,160.01991 113.865113,159.262722 L113.865113,159.262722" id="path246" fill="#C99319"></path>
                        <path d="M161.394454,118.58208 C157.470104,115.161764 154.981161,117.293749 154.981161,117.293749 C154.981161,117.293749 161.139052,118.58208 162.165572,126.321951 C162.165572,126.321951 163.705352,126.838272 165.235309,127.610282 C165.235309,127.610282 165.235309,121.935695 161.394454,118.58208 Z M151.714962,119.34915 C151.315896,119.566548 150.965946,119.779006 150.721595,119.958112 C149.41266,120.912935 131.185793,131.397458 123.400942,121.308204 C123.391119,127.527523 124.465526,141.250785 133.938733,143.35436 C141.14279,144.941614 150.87017,143.122139 150.87017,143.122139 C150.434268,137.858879 154.424925,130.316643 158.86622,127.445998 C158.314895,122.437193 155.738772,120.386732 151.714962,119.34915 L151.714962,119.34915 Z M145.857905,109.90715 L144.984872,119.128046 C148.280541,117.487678 150.266046,116.498269 151.94949,115.749727 L145.857905,109.90715 L145.857905,109.90715 Z M103.994069,182.437866 C102.65198,182.384752 101.331993,182.29211 100.042704,182.182176 C100.296878,184.347512 100.042704,185.766776 100.191279,187.030403 C101.764212,185.776658 104.829037,184.65261 106.91523,182.398339 C105.936598,182.451453 104.959194,182.476158 103.994069,182.437866 L103.994069,182.437866 Z M169.202636,141.554649 C167.274841,143.653283 162.72672,144.048552 158.645199,143.918854 C157.777077,144.511759 153.781508,146.79444 143.421762,147.392285 C145.641796,148.879486 147.430838,151.7736 147.028088,155.889344 C146.453434,161.796152 142.879033,165.33752 139.924719,168.145168 C134.298506,173.486247 125.320141,178.992845 115.980775,181.433634 C112.64213,185.327039 103.51519,190.490247 97.7060209,192.459183 L94.1709126,191.310431 L94.3538689,181.583096 C91.5137488,181.144594 88.4440125,180.097129 85.8494713,179.344882 C77.3119207,182.595974 70.6014771,185.525909 61.2338697,185.1924 L59.6326952,183.522387 C59.6363789,182.504568 62.2702127,156.121565 62.2702127,156.121565 C62.0970795,155.643535 56.1835395,141.921508 61.0140766,123.373487 C65.3117074,108.51259 81.4707994,90.6254103 102.402718,79.6727398 C114.964079,73.1013846 126.907809,66.4522107 126.907809,66.4522107 C126.907809,66.4522107 122.580708,58.9198565 143.215476,53.3527328 C163.830597,47.7841268 166.822976,49.434871 166.822976,49.434871 C157.427127,59.8993837 125.833401,73.3904254 103.572901,85.1731618 C90.8420905,91.9050953 76.6169324,103.16657 69.4890046,117.129465 C66.3369994,123.151148 61.3689381,136.333386 66.376292,153.304034 C66.4622446,153.79071 67.8436259,156.347609 67.8436259,156.347609 C67.3733423,159.296073 66.3517341,173.212029 65.7426984,179.388115 C70.1839929,177.960204 86.0852271,171.445669 86.0852271,171.445669 C87.6913131,172.083041 90.2809427,173.925985 96.2583333,175.470006 C102.244319,177.014027 106.743325,177.047378 110.983244,176.444592 C124.336598,174.543593 139.670544,163.542749 140.931592,157.018332 C141.344165,154.924639 141.258212,153.158279 140.322556,152.02929 C139.224819,150.692785 136.643784,149.844191 134.331659,150.543324 C129.948076,152.62837 126.907809,156.502011 122.456691,160.313892 C114.028423,167.537441 100.387743,163.758912 100.387743,163.758912 C104.450846,163.60451 114.028423,162.523695 119.017358,155.749764 C119.545353,155.04569 120.316471,154.124218 121.26195,153.124928 C120.877619,153.187924 120.484692,153.236097 120.091766,153.245979 C115.396297,153.42385 111.453528,150.12335 111.29513,145.872968 C111.13182,141.622586 114.820415,138.026868 119.515884,137.853938 C120.527669,137.815646 121.496477,137.945344 122.394068,138.201034 C118.000662,128.141426 119.568683,113.526336 119.568683,113.526336 L120.671332,80.9462487 C120.39874,81.0574182 139.63248,71.7648796 139.63248,71.7648796 L143.925199,83.7304282 L131.468209,80.117418 C130.792867,97.9267789 139.368482,112.454168 142.735369,117.733486 L144.284972,105.178739 L154.798205,114.59727 C160.525105,112.691329 166.037124,116.878716 167.446747,124.386365 C167.735302,125.901977 167.691098,127.349651 167.476216,128.647865 C170.362996,132.252228 171.940841,138.558012 169.202636,141.554649 L169.202636,141.554649 Z" id="path248" fill="#233265"></path>
                        <path d="M172.186419,27.5376825 C172.032933,27.7403816 166.314628,22.5587692 156.11328,18.9259955 C140.390091,13.3326852 116.426501,13.9170665 94.0088305,20.5997148 C44.4988951,35.3494428 15.278689,84.9656453 28.8776209,131.194882 C31.6158257,140.478775 35.9613445,149.153705 41.7840203,156.989922 C49.7125353,167.638729 60.3424183,176.482884 72.5440062,182.587327 C85.9403355,188.690535 100.767162,190.68294 115.160542,188.434845 C117.357245,188.087749 119.573595,187.648012 121.760475,187.108222 C122.844706,186.827828 123.952267,186.528905 125.031586,186.205278 C164.947981,174.326195 187.573166,128.618219 175.749769,88.4637803 C173.427821,80.5559201 171.193053,75.5088228 166.525826,68.7880063 L167.12995,68.4544977 C167.010844,68.092579 175.682235,75.9621475 179.755161,89.8879857 C192.724183,134.268103 168.837951,180.092189 124.734435,193.231193 C105.573141,198.92925 84.9764383,197.516162 66.7593951,189.221679 L66.7409767,189.221679 C66.7262419,189.216738 66.7213303,189.216738 66.7164188,189.216738 C53.10398,183.007301 41.3763593,173.255262 32.8289855,160.999437 C32.8203902,160.999437 32.8105671,160.979674 32.7958324,160.971027 C32.7860092,160.971027 32.7860092,160.971027 32.7860092,160.971027 C26.3641208,152.314625 21.5679648,142.746633 18.5596232,132.493096 C3.5374387,81.4773921 35.7550582,26.7425732 90.3533885,10.4772338 C115.069677,3.11904518 143.479473,3.64401247 160.074468,13.4591715 C166.180787,17.0634116 169.144925,21.7138807 169.125278,21.7138807 L172.186419,27.5376825" id="path250" fill="#233265"></path>
                        <path d="M37.0738169,100.397213 C37.0738169,100.397213 25.6494862,84.1022285 38.0291188,63.9916581 C45.8422117,51.2925141 10.3585156,79.9432524 37.0738169,100.397213 L37.0738169,100.397213" id="path252" fill="#233265"></path>
                        <path d="M108.283104,48.7256093 C108.671119,51.6441804 111.471947,53.0439285 113.434122,52.1991635 C113.434122,52.1991635 141.3061,38.669583 175.068288,39.7354518 C175.068288,39.7354518 145.273427,27.031614 111.357752,44.1123203 C111.357752,44.1123203 107.845974,45.4483312 108.283104,48.7256093 L108.283104,48.7256093" id="path254" fill="#233265"></path>
                        <path d="M114.274002,28.8607236 C114.50853,30.0134282 115.381563,31.9575365 117.985927,31.8662539 C117.985927,31.8662539 148.678379,22.6069427 181.903977,28.7199088 C181.903977,28.7199088 154.329149,11.7071395 118.264659,23.5087747 C118.264659,23.5087747 113.491833,25.2081865 114.274002,28.8607236 L114.274002,28.8607236" id="path256" fill="#233265"></path>
                        <path d="M12.9001345,72.9371007 C14.1516046,52.261789 26.0669703,31.7214865 47.7319414,17.3192251 C69.3834057,2.91634605 96.1907991,-2.2898472 120.854289,1.15467935 C97.6298915,0.812647718 72.8362451,7.55322771 51.823286,21.530945 C30.8054153,35.5136031 17.5048618,54.0852165 12.9001345,72.9371007 L12.9001345,72.9371007" id="path258" fill="#233265"></path>
                        <path d="M1.60497828,88.1895621 C-2.51608134,71.1905036 2.0122709,51.6061357 15.9320517,34.5393874 C29.8366065,17.4736272 50.1877305,6.53417356 70.9465154,3.11904518 C52.1204365,8.68616888 33.7744643,20.358971 20.2774476,36.9133512 C6.77551936,53.4825541 0.649553549,71.817994 1.60497828,88.1895621 L1.60497828,88.1895621" id="path260" fill="#233265"></path>
                        <path d="M80.0415302,167.909242 L68.9131221,173.110741 L72.7502925,166.818545 L71.1343833,159.590054 C72.639782,163.629214 80.0415302,167.909242 80.0415302,167.909242 L80.0415302,167.909242" id="path262" fill="#233265"></path>
                        <path d="M113.213101,145.323296 C113.285547,147.127948 114.954255,148.526214 116.939761,148.454572 C118.935089,148.376753 120.484692,146.857436 120.426981,145.052784 C120.355763,143.253072 118.685827,141.853571 116.700321,141.93139 C114.704993,142.007973 113.150478,143.528526 113.213101,145.323296 L113.213101,145.323296" id="path264" fill="#FFFFFF"></path>
                        <path d="M112.259027,168.347744 C112.259027,168.347744 133.032547,169.086404 138.663671,156.681118 C139.478993,154.876466 139.191666,153.187924 137.554882,152.772891 C135.349584,152.22816 133.402143,153.621485 131.742029,154.731945 C127.756284,157.409896 119.799527,167.909242 112.259027,168.347744 L112.259027,168.347744" id="path266" fill="#C99319"></path>
                        <path d="M131.742029,138.307263 C133.90558,140.314491 141.190678,141.177907 146.692873,139.14227 C146.692873,139.14227 146.692873,128.840559 151.94949,123.2722 C151.94949,123.2722 137.958859,129.8732 130.634469,128.560164 C122.753841,127.147076 128.14921,134.968471 131.742029,138.307263 L131.742029,138.307263" id="path268" fill="#C99319"></path>
                        <polyline id="path270" fill="#233265" points="80.8322943 138.982927 141.3061 134.427446 83.9216769 105.959396 126.653634 129.969547 75.585501 119.60484 124.029624 132.348575 80.8322943 138.982927"></polyline>
                        <polygon id="path272" fill="#FFFFFF" points="122.504579 83.0559996 128.14921 88.7491154 129.109424 79.986485"></polygon>
                        <polygon id="path274" fill="#FFFFFF" points="138.107435 75.6681658 140.140828 79.9383115 133.032547 77.7087446"></polygon>
                        <path d="M128.696851,121.877639 C128.696851,121.877639 133.445119,123.947863 139.771232,120.763474 L132.576998,109.347597 L128.696851,121.877639" id="path276" fill="#FFFFFF"></path>
                    </g>
                </g>
            </g>
        </g>
    </g>
</svg>