<?xml version="1.0" encoding="UTF-8"?>
<svg width="200px" height="200px" viewBox="0 0 200 200" version="1.1" xmlns="http://www.w3.org/2000/svg" xmlns:xlink="http://www.w3.org/1999/xlink">
    <!-- Generator: Sketch 54.1 (76490) - https://sketchapp.com -->
    <title>lewis</title>
    <desc>Created with Sketch.</desc>
    <g id="lewis" stroke="none" stroke-width="1" fill="none" fill-rule="evenodd">
        <g id="lewis_BGD">
            <g id="lewis" transform="translate(0.000000, 8.000000)">
                <g id="g10" transform="translate(100.000000, 92.251196) scale(-1, 1) rotate(-180.000000) translate(-100.000000, -92.251196) translate(0.000000, 0.751196)" fill-rule="nonzero">
                    <g id="g12">
                        <path d="M164.380219,135.322485 C150.407652,135.642102 154.19266,136.119933 141.205738,138.826791 C128.218179,141.537477 120.135244,151.179582 87.6803806,152.21754 C63.0308118,153.005419 56.0468886,148.348322 35.5125988,146.352149 C16.2696647,144.482293 8.86411461,127.788833 3.55038588,117.74609 C3.82949273,113.009886 3.14493772,112.902709 3.14119928,111.503665 C2.8085103,110.393618 2.4671068,109.0303 2.30687076,107.587876 C2.17105577,104.555659 3.3485358,98.4714489 4.1417479,96.8650693 C5.71596158,93.6797425 9.06226453,77.0877174 12.7990427,75.1763937 C16.5388194,73.2625181 26.6526947,69.2140334 41.609377,71.4456122 C56.5627418,73.6771911 51.0454214,70.6711306 58.6124387,70.3872391 C64.5256762,70.1665054 72.9065373,70.9244001 80.3987221,72.6430604 C82.3661861,60.666091 85.1763934,44.0523115 82.0625179,28.0395527 C81.0066965,24.2436996 75.9948944,6.82992008 74.7955324,3.33457727 C84.782135,-0.507874947 84.921848,7.36714495 89.7154683,8.06519916 C94.5084506,8.76369994 97.2051012,10.4575436 97.2051012,10.4575436 L99.6338093,16.6111001 L96.8586898,6.44140335 L106.273682,6.11742249 C106.273682,10.3099838 108.11164,19.9725673 108.948642,22.2263471 C111.437318,28.9379259 104.546728,66.3304609 99.7046227,80.1977651 C103.700795,82.1014334 106.523761,83.5617204 107.353745,84.3304604 C108.73046,85.6044636 111.287398,99.6440166 111.287398,102.351513 L108.532693,103.148961 C108.335563,99.9629959 102.448482,94.8842082 99.1043037,94.4057393 C95.7562974,93.9266324 81.399679,92.348961 74.1180205,92.0312577 C66.8369999,91.7122784 53.1125346,90.4472067 37.5660597,90.1282274 C29.3677824,92.3821349 22.6462514,92.0082912 17.7544493,95.9259944 C16.4603505,100.340667 28.7958525,104.829981 40.3022637,108.472087 C52.8982443,112.456775 56.5888981,125.14896 74.8905882,123.236999 C93.1904283,121.323123 105.391385,119.887716 117.001592,116.380858 C128.612437,112.875914 114.281975,106.976712 134.550555,106.02105 C154.818497,105.062198 172.137795,99.0060581 175.284206,98.0516722 C178.628385,99.9629959 177.448161,107.134926 183.942579,108.57097 C186.696008,108.57097 186.895689,108.729822 188.664748,108.092501 C191.026471,110.163953 192.012754,129.105579 197.129182,131.814989 C183.74545,132.609885 178.350235,135.003505 164.380219,135.322485" id="path14" fill="#FFFFFF"></path>
                        <path d="M187.033488,109.697967 L187.033488,109.696967 C187.033488,109.697967 187.033488,109.697967 187.033488,109.697967 Z M77.6816568,4.82181806 C81.1094079,4.00119926 82.3980841,5.32944803 84.0854843,7.06615612 C85.4124381,8.43125976 86.9161063,9.97830916 89.3843678,10.337416 C92.3444953,10.7693139 94.4133948,11.6198402 95.378626,12.0855499 L97.4972862,17.4539071 C97.9438572,18.5887715 99.2006355,19.1758847 100.357892,18.7903664 C101.515787,18.4051032 102.170332,17.1827747 101.848801,16.0070171 L99.838594,8.6366186 L104.098243,8.49007953 C104.523761,13.3767142 105.966824,20.7949596 106.795532,23.0265385 C108.599678,27.8922481 103.277828,62.997638 97.5368397,79.4405084 C97.1502368,80.5473664 97.6586897,81.7671431 98.716425,82.2711303 C103.587238,84.5920234 105.162996,85.5298224 105.660603,85.9068559 C106.390428,87.3320552 107.737158,93.5598063 108.474,98.0574138 C106.051034,95.101752 102.245611,92.5358829 99.4290246,92.1326931 C96.0797424,91.6535862 81.615309,90.0593279 74.217542,89.7365209 C71.8749583,89.6338096 68.8165852,89.4296628 65.2746395,89.1923423 C58.0489938,88.7100456 48.1531726,88.0484826 37.613141,87.8322147 C37.3928539,87.8334906 37.170334,87.8558192 36.9570007,87.9138734 C34.2815302,88.6494396 31.7753102,89.0934587 29.3523438,89.5221668 C24.547942,90.3732035 20.0102068,91.1770312 16.3187875,94.1339689 C15.9509406,94.4280678 15.6828066,94.8280678 15.550494,95.2797424 C13.8082931,101.22424 23.0525034,105.421369 39.6089942,110.66156 C43.9459,112.033809 47.1588505,114.554383 50.5601901,117.222964 C56.5679731,121.936839 62.7770957,126.81148 75.1291847,125.52089 C93.7397106,123.575117 105.888993,122.13652 117.665707,118.579263 C123.570651,116.796807 124.368737,114.065069 124.679423,111.420093 C124.808928,110.321528 124.841464,110.190109 125.391384,109.866664 C126.756616,109.062836 129.874957,108.540986 134.659008,108.315149 C153.304621,107.432852 169.283568,102.373841 174.70813,100.642422 C175.079421,101.215308 175.41116,102.07719 175.755657,102.972246 C176.844653,105.804782 178.3362,109.68357 183.446885,110.814032 C183.609565,110.849758 183.775434,110.868259 183.942579,110.868259 C184.456774,110.868259 184.87974,110.873362 185.239549,110.878466 C186.188193,110.890587 186.828066,110.890587 187.485163,110.790428 C187.953424,112.282613 188.487396,114.843378 188.905896,116.85231 C190.036359,122.270491 191.073041,126.761719 192.60478,129.859008 C188.532053,130.244335 185.183408,130.766185 181.917699,131.275914 C176.711957,132.088673 171.794573,132.856137 164.327907,133.026472 L164.327907,133.026472 C154.377668,133.254223 153.095371,133.584686 148.847205,134.681336 C147.084526,135.136201 144.669215,135.758848 140.736839,136.578625 C136.338753,137.496647 132.450395,139.178306 128.333649,140.958848 C119.811799,144.644335 109.206377,149.231256 87.6070154,149.922165 C72.418499,150.406376 63.913236,148.763633 54.9085154,147.024558 C49.3047516,145.941942 43.5100468,144.822325 35.7346722,144.066344 C18.9904939,142.43955 11.8635404,128.739391 6.65996794,118.735563 C6.39330128,118.222645 6.13262505,117.721847 5.87719284,117.235085 C6.00378932,114.44593 5.79196796,113.231895 5.54251342,112.148004 C5.46351501,111.804144 5.43809875,111.686122 5.43784994,111.497286 C5.43735234,111.276552 5.40445282,111.056457 5.34140975,110.844654 C4.9633683,109.584048 4.72014661,108.460603 4.59828378,107.4118 C4.49710994,104.604144 5.65116413,98.9958508 6.20115455,97.8819752 C6.75566171,96.7598062 7.32956919,94.809567 8.29696949,91.4596468 C9.43508748,87.5170632 12.1002868,78.2858035 13.8554383,77.2153091 C17.3001591,75.4519917 26.8877186,71.5712901 41.2704296,73.7173825 C50.6544166,75.1183394 52.6657084,74.5696951 54.8624548,73.4966489 C55.6613702,73.1074942 56.3514499,72.7700141 58.6986907,72.6826138 C64.851673,72.4535867 72.971609,73.2956919 79.8851655,74.8816568 C80.5039852,75.0239216 81.152789,74.9033474 81.6791048,74.5499184 C82.2054206,74.1964894 82.5620394,73.6414655 82.6653887,73.0156282 L82.7457715,72.5250381 C84.7381159,60.4024865 87.4666645,43.8003179 84.3164253,27.6011476 C84.3049421,27.5418813 84.290907,27.4825511 84.274958,27.4244969 C83.3429006,24.0714508 79.5119597,10.747113 77.6816568,4.82181806 Z M79.6044637,0 C78.0338099,0 76.1818163,0.340659641 73.9706521,1.19118976 C72.817861,1.6350175 72.2220078,2.91168095 72.6232837,4.07969368 C73.7830923,7.45964894 78.7310985,24.6411477 79.8251974,28.5665703 C82.6354046,43.1247198 80.4076535,58.3347992 78.5224861,69.8934592 C71.8118004,68.5569361 64.3534274,67.8736825 58.5266971,68.0918643 C55.4590098,68.2073348 54.1402219,68.7381163 52.8486111,69.3684193 C51.7441773,69.9074943 50.602104,70.4644321 41.9482605,69.1744799 C26.2512274,66.8331722 15.6025514,71.1623587 11.7526632,73.1317366 C8.54513535,74.7725659 6.46807001,81.2350857 3.88382127,90.1856437 C3.19527265,92.5703326 2.48330456,95.0373182 2.08258368,95.8475255 C1.09773522,97.8430598 -0.13905518,104.304942 0.0127093458,107.691225 C0.0149521527,107.741624 0.0186902069,107.791385 0.024172631,107.841784 C0.164722803,109.106217 0.437350547,110.428067 0.856012738,111.873681 C0.88766186,112.402549 0.981607631,112.810205 1.0663349,113.178307 C1.21835404,113.839232 1.42668577,114.744495 1.25772246,117.610842 C1.2333014,118.030619 1.32376392,118.44912 1.52038274,118.820412 C1.86553105,119.472405 2.21940026,120.152469 2.58472721,120.855499 C7.95279087,131.175116 16.0653266,146.770012 35.2905892,148.637955 C42.8506528,149.372883 48.5374151,150.472086 54.0373192,151.534286 C63.3014338,153.324398 72.0516728,155.016264 87.7543838,154.512915 C110.226473,153.793936 121.27719,149.014988 130.156297,145.174478 C134.222006,143.416264 137.73333,141.897923 141.674638,141.074957 C145.712277,140.233489 148.187556,139.594893 149.994893,139.128545 C153.948959,138.108449 155.011798,137.834127 164.432532,137.618497 C172.203504,137.441145 177.50175,136.614351 182.626471,135.814989 C186.885482,135.150236 191.290585,134.462517 197.265705,134.107812 C198.293456,134.046568 199.155338,133.30845 199.372882,132.302389 C199.591702,131.296328 199.113871,130.267301 198.203504,129.785005 C196.058687,128.649439 194.331096,120.364909 193.402866,115.914511 C192.244971,110.359168 191.6236,107.633171 190.179262,106.366186 C189.550872,105.814351 188.671128,105.64912 187.887077,105.932374 C186.847204,106.306217 186.755976,106.305579 185.301431,106.285165 C184.989469,106.281337 184.63285,106.276871 184.214349,106.274957 C181.822005,105.658052 181.062196,103.975117 180.042739,101.323761 C179.303983,99.4028683 178.466981,97.2255159 176.4236,96.0574139 C175.875594,95.7441762 175.221686,95.670811 174.617539,95.8539051 C174.335562,95.9400295 173.943217,96.0644314 173.448799,96.2226451 C168.302388,97.8660263 152.64242,102.866345 134.442102,103.727589 C122.912916,104.270492 120.637318,106.468259 120.118019,110.88357 C119.953426,112.278147 119.85518,113.120252 116.338115,114.181815 C104.950556,117.621688 92.9926612,119.034766 74.6513538,120.952469 C64.1556603,122.051672 58.927654,117.950236 53.3956605,113.609567 C49.8213066,110.805101 46.1258681,107.905579 40.9950867,106.282613 C36.3267615,104.804463 30.3984681,102.842741 25.9604459,100.770651 C21.9901111,98.9173819 20.6419772,97.6338094 20.1869213,97.0079721 C22.8144811,95.3448142 26.1076867,94.7617201 30.1529817,94.0452927 C32.4710678,93.6344474 35.0869529,93.1719275 37.8483563,92.4318956 C48.151195,92.6519913 57.467367,93.2746388 64.9677815,93.7760742 C68.5384353,94.0146707 71.6216888,94.2200933 74.017223,94.3253565 C81.2778289,94.6417839 95.487079,96.20861 98.7789449,96.6794234 C101.427111,97.0583708 106.130141,101.510045 106.240508,103.290588 C106.283889,103.9866 106.63987,104.625197 107.210205,105.027111 C107.779902,105.428387 108.500795,105.550237 109.171289,105.355021 L111.925994,104.557573 C112.907812,104.273682 113.584048,103.37416 113.584048,102.351513 C113.584048,100.719615 111.372246,84.9199341 108.914192,82.644974 C108.201592,81.9859629 106.785324,81.0845275 102.518658,79.0041448 C107.174479,64.2411467 113.872405,28.9002864 111.10239,21.4284524 C110.367461,19.4487395 108.570332,10.0777669 108.570332,6.11742249 C108.570332,5.49416892 108.317063,4.89832843 107.869216,4.46570962 C107.422007,4.03309719 106.82743,3.79585317 106.194575,3.82202223 L96.7795829,4.14598395 C96.0778285,4.170405 95.4264729,4.51355651 95.009886,5.07874947 C94.6341284,5.58911629 94.487398,6.22906524 94.5984027,6.8465708 C93.3537457,6.4421051 91.8271109,6.05163621 90.0465687,5.79196796 C89.165548,5.66387865 88.4925018,5.00921838 87.3792642,3.86488029 C85.7926613,2.2321084 83.6229644,0.000747610827 79.6044637,0 L79.6044637,0 Z" id="path16" fill="#231F20"></path>
                        <path d="M164.380219,135.322485 C150.407652,135.642102 154.19266,136.119933 141.205738,138.826791 C128.218179,141.537477 120.135244,151.179582 87.6803806,152.21754 C63.0308118,153.005419 56.0468886,148.348322 35.5125988,146.352149 C16.2696647,144.482293 8.86411461,127.788833 3.55038588,117.74609 C3.92294727,111.430938 2.58049116,113.344176 3.4270366,109.455181 L8.34577332,100.170332 C8.12274302,100.987557 18.2678145,94.9460901 18.2354062,94.9901093 C14.7029661,99.6988811 27.9804778,104.572246 40.3022637,108.472087 C52.8982443,112.456775 56.5888981,125.14896 74.8905882,123.236999 C93.1904283,121.323123 105.391385,119.887716 117.001592,116.380858 C128.612437,112.875914 114.281975,106.976712 134.550555,106.02105 C154.818497,105.062198 172.137795,99.0060581 175.284206,98.0516722 C178.628385,99.9629959 177.448161,107.134926 183.942579,108.57097 C186.696008,108.57097 186.895689,108.729822 188.664748,108.092501 C191.026471,110.163953 192.012754,129.105579 197.129182,131.814989 C183.74545,132.609885 178.350235,135.003505 164.380219,135.322485" id="path18" fill="#ED1248"></path>
                        <path d="M28.7285479,106.500795 C28.7285479,147.36459 54.2177339,180.48931 85.6612419,180.48931 C117.104941,180.48931 142.594574,147.365866 142.594574,106.500795 C142.594574,65.6382759 117.104941,32.5141938 85.6612419,32.5141938 C54.2177339,32.5141938 28.7285479,65.6382759 28.7285479,106.500795" id="path20" fill="#FFFFFF"></path>
                        <path d="M140.611161,86.2794237 C140.094414,86.5913854 139.563633,86.9090887 139.012437,87.2401892 C133.256137,90.6915448 132.72408,91.6867601 132.095053,91.734607 C133.760762,92.3610822 139.387556,95.1598062 132.095053,99.3263133 C123.957254,103.975755 112.038913,108.236042 100.839551,108.959487 C89.642103,109.682932 75.2618801,111.866026 67.1240813,108.959487 C58.9830288,106.05231 47.1204454,103.312916 43.0497597,101.571927 C38.9802861,99.8251969 32.2741938,97.9508747 34.4970964,93.5062178 C35.4740023,91.5527888 39.5198076,89.134288 42.5612749,90.3304603 C39.5259958,88.7866007 36.2602224,88.3859627 30.4986276,84.5435386 C30.1390742,84.3043041 33.8342575,77.6918641 33.4754059,77.4424223 C32.1209561,75.1738418 36.5256131,69.8896314 38.8183084,68.9071753 C44.8913545,57.1094723 41.4386593,55.8046557 51.5929174,47.2873991 C62.7305247,38.7714185 74.5339694,35.3915143 86.3457714,34.9855175 C117.564909,33.9087711 93.3671428,32.9301427 122.970332,52.9538105 C128.458689,57.9298869 133.344175,69.3039855 137.219773,75.6618801 C138.65518,81.9866008 143.353744,83.6982435 140.611161,86.2794237" id="path22" fill="#231F20"></path>
                        <path d="M111.885803,76.6953729 C113.166823,79.6446551 120.015946,80.1448146 123.957254,80.8835705 C127.897923,81.6216885 133.334606,89.2663455 131.840507,88.7680999 C131.100475,88.5205719 128.100156,94.2003166 125.884526,95.1859625 C123.666983,96.1728844 119.031576,98.7859624 118.294096,100.016584 C117.554064,101.248482 117.552788,97.0098859 114.84274,93.8066962 C112.131417,90.6028685 109.22424,89.0596469 106.957573,86.798084 C105.971927,85.8111621 106.218817,83.8424221 104.741305,82.3629963 C103.263155,80.8835705 101.014352,73.2146712 101.537478,69.7971274 C101.946409,67.1349266 90.8140328,30.5614665 90.7272705,27.5573199 C93.0755958,28.3413071 95.8430598,30.2322799 100.028706,33.7205733 C102.004463,40.4625189 119.644654,62.9615295 122.433171,64.821689 C120.688992,69.4717686 115.375436,74.4127573 111.885803,76.6953729" id="path24" fill="#FFFFFF"></path>
                        <path d="M132.785324,80.6940969 C131.470491,79.1859629 120.810842,75.0972868 122.098243,72.4159472 C123.261879,69.9904289 124.450396,67.4781482 125.143219,65.8073349 C126.148641,66.1148309 110.003187,42.8299192 111.092182,41.61531 C123.813713,41.3581489 138.030619,74.1926616 138.996488,74.4829327 C138.953745,79.6535865 137.193617,85.7295034 132.785324,80.6940969" id="path26" fill="#FFFFFF"></path>
                        <path d="M61.8558198,78.6743202 C60.5754371,81.6242404 53.7281007,82.1237619 49.7869206,82.8631558 C45.8445284,83.6012738 40.4069527,91.2452928 41.900924,90.7476851 C42.6435715,90.4995193 44.3057086,95.5821348 46.5236352,96.5665048 C48.7402859,97.5521507 54.0657084,98.7859624 54.8046557,100.016584 C55.5460273,101.248482 59.6852298,102.528865 62.3940654,99.3263133 C65.1055805,96.1237616 64.5186587,91.0392322 66.7840494,88.7763933 C67.7690573,87.7901094 67.5240812,85.8220074 69.0028691,84.3419437 C70.4784671,82.8631558 72.7285468,75.1936185 72.2047829,71.7767127 C71.7952135,69.1145118 81.8220075,34.8435079 81.9094078,31.8393612 C79.5604446,32.6233485 73.4826138,33.0385319 69.296968,36.5275908 C67.3218484,43.2682605 54.8345122,64.3413062 52.0434437,66.2022312 C53.7891534,70.8510349 58.3662505,76.3923426 61.8558198,78.6743202" id="path28" fill="#FFFFFF"></path>
                        <path d="M46.0239861,74.6354048 C47.3384996,73.1279089 52.2378296,73.8679407 50.9494724,71.187239 C49.7869206,68.7598069 49.8098871,68.0650701 49.1153417,66.3948947 C48.1110674,66.7017527 64.2558198,43.4175428 63.1666332,42.2017214 C61.7137465,40.5799033 45.7747995,56.1582761 44.435278,56.5619763 C44.4777022,61.7334594 41.614353,79.6708114 46.0239861,74.6354048" id="path30" fill="#FFFFFF"></path>
                        <path d="M82.4484828,54.4236031 C82.4484828,54.4236031 81.3058991,62.4250064 81.3058991,68.71196 C81.3058991,75.0003171 81.3058991,77.8577333 85.8762339,77.8577333 C90.4503965,77.8577333 92.8057393,77.1617206 95.3435383,77.5100459 C97.8806993,77.8577333 98.4523101,75.5693761 97.3084505,68.71196 C96.1658668,61.8545439 96.7368397,49.8519924 96.7368397,49.8519924 L87.0200935,48.1384358 L82.4484828,54.4236031" id="path32" fill="#FFFFFF"></path>
                        <path d="M89.688036,82.2832515 C88.3719276,83.0098863 87.1100457,83.8309389 85.7295034,84.3942563 C83.8577332,85.1598065 81.8979246,83.4475258 82.2411463,82.4650697 C83.5872387,78.5945754 87.0628367,78.9901097 89.688036,82.2832515" id="path34" fill="#FFFFFF"></path>
                        <path d="M91.9368398,81.9444956 C93.055819,81.6395514 94.4912257,82.8816566 95.7620391,83.8175418 C96.5684186,84.4114811 97.5655478,85.2178607 97.5438572,85.9189771 C97.4366802,89.349918 92.6475256,86.8618798 91.857095,90.2641126 C90.5441764,88.8191365 88.3547027,87.3747985 88.3547027,85.9279085 C88.3547027,84.4854843 90.349599,82.3770314 91.9368398,81.9444956" id="path36" fill="#FFFFFF"></path>
                        <path d="M85.6612419,178.575434 C55.3236988,178.575434 30.6424235,146.243059 30.6424235,106.500795 C30.6424235,66.7598069 55.3236988,34.4280693 85.6612419,34.4280693 C115.999359,34.4280693 140.680698,66.7598069 140.680698,106.500795 C140.680698,146.243059 115.999359,178.575434 85.6612419,178.575434 Z M85.6612419,30.6003182 C53.2134596,30.6003182 26.8146724,64.6494402 26.8146724,106.500795 C26.8146724,148.353425 53.2134596,182.403185 85.6612419,182.403185 C118.110364,182.403185 144.508449,148.353425 144.508449,106.500795 C144.508449,64.6494402 118.110364,30.6003182 85.6612419,30.6003182 L85.6612419,30.6003182 Z" id="path38" fill="#231F20"></path>
                        <path d="M108.948642,22.2263471 C111.677828,29.5828382 103.13365,73.8169041 98.3738412,83.5023903 C98.3738412,83.5023903 97.2012735,87.1859627 97.946409,88.4867601 C98.6915446,89.7888335 97.946409,89.0028686 97.946409,89.0028686 L79.3984031,88.4867601 C76.4229646,81.9808592 87.1483232,54.1978296 82.0625179,28.0395527 C81.0066965,24.2436996 75.9948944,6.82992008 74.7955324,3.33457727 C84.782135,-0.507874947 84.921848,7.36714495 89.7154683,8.06519916 C94.5084506,8.76369994 97.2051012,10.4575436 97.2051012,10.4575436 L99.6338093,16.6111001 L96.8586898,6.44140335 L106.273682,6.11742249 C106.273682,10.3099838 108.11164,19.9725673 108.948642,22.2263471" id="path40" fill="#ED1248"></path>
                        <path d="M76.2354048,4.04206688 C81.1917045,2.44343216 83.0009549,4.30248155 84.9090888,6.26544801 C86.167143,7.55980842 87.4673024,8.89754364 89.550237,9.20127569 C93.1527887,9.72637934 95.485803,10.8285803 96.285803,11.2555021 L98.5652288,17.0327268 L100.741305,16.3088353 L98.3483229,7.53888338 L105.163634,7.30462502 C105.428387,11.9305898 107.020093,20.3316741 107.872406,22.6258368 L107.872406,22.6258368 C110.377031,29.3779897 102.136521,73.2433793 97.3435382,82.9958512 L97.2797424,83.1540649 C97.0354043,83.9202531 96.4031874,86.1231238 96.5875574,87.8156278 L80.2251974,87.3607634 C79.5808593,84.7023902 80.5288656,78.9320554 81.6127571,72.3381162 C83.5904285,60.2997752 86.2992004,43.8142892 83.1897906,27.8202226 L83.168738,27.7319929 C82.1722467,24.1467299 77.8570953,9.14698542 76.2354048,4.04206688 Z M79.6357237,1.13187876 C78.1958513,1.13187876 76.4771911,1.45783728 74.3834112,2.26350872 L73.3499184,2.66098239 L73.7090891,3.70713866 C74.8797429,7.11846872 79.8736822,24.4579898 80.9435386,28.302902 C83.9610824,43.878085 81.2944158,60.1108757 79.3460905,71.9655484 C78.001274,80.1524701 77.0296631,86.0676215 78.354065,88.9645911 L78.6513537,89.6153088 L97.5145111,90.1397107 C98.1958508,90.5990408 98.7298221,90.318977 98.9505557,90.1543837 C99.8443356,89.4909069 99.2580517,88.4669834 98.9435382,87.9164252 C98.6928205,87.4794237 98.9365207,85.5585306 99.4436977,83.9285465 C102.096967,78.4555004 105.447525,64.0727257 107.599359,52.195214 C108.653267,46.3788186 111.943857,26.9978303 110.025516,21.8271765 L110.025516,21.8264109 C109.24912,19.7370968 107.422007,10.2673682 107.422007,6.11742249 L107.422007,4.92822954 L95.3690566,5.34364899 L96.2877169,8.70940967 C94.9543836,8.12376375 92.780221,7.35119599 89.8813375,6.92835708 C88.5703327,6.7374161 87.6369994,5.77726301 86.5562977,4.66482285 C84.9760744,3.03927265 83.121529,1.13187876 79.6357237,1.13187876 L79.6357237,1.13187876 Z" id="path42" fill="#231F20"></path>
                        <path d="M2.30687076,107.587876 C2.17105577,104.555659 3.3485358,98.4714489 4.1417479,96.8650693 C5.71596158,93.6797425 9.06226453,77.0877174 12.7990427,75.1763937 C16.5388194,73.2625181 26.6526947,69.2140334 41.609377,71.4456122 C56.5627418,73.6771911 51.0454214,70.6711306 58.6124387,70.3872391 C67.4430605,70.0574145 81.7767125,71.8966489 90.4357234,75.8826137 C99.0953723,79.8673026 105.974479,83.0519915 107.353745,84.3304604 C108.73046,85.6044636 111.287398,99.6440166 111.287398,102.351513 L108.532693,103.148961 C108.335563,99.9629959 102.448482,94.8842082 99.1043037,94.4057393 C95.7562974,93.9266324 81.399679,92.348961 74.1180205,92.0312577 C66.8369999,91.7122784 53.1125346,90.4472067 37.5660597,90.1282274 C27.1361397,92.9964889 19.0956295,91.6063773 14.1758848,100.21499 C14.1758848,100.21499 12.3728865,102.828706 11.8782134,104.644336 L2.48828702,116.454224 C2.53688032,116.221369 2.6826666,110.963953 2.30687076,107.587876" id="path44" fill="#ED1248"></path>
                        <path d="M49.8791056,73.4092486 C52.4234756,73.4092486 53.3507483,72.956298 54.3590417,72.46507 C55.1983399,72.0548626 56.0658359,71.6318961 58.6553095,71.5349264 C67.5636347,71.1993603 81.7052611,73.1285468 89.9553407,76.9256759 C97.4928205,80.3936184 105.28676,83.9808591 106.573522,85.1732036 C107.494096,86.3323742 109.756935,97.4456116 110.096329,101.501114 L109.368418,101.71164 C108.017222,98.0810183 102.645611,93.7524697 99.2663452,93.2688972 C95.931736,92.7917042 81.5310984,91.2051014 74.1677812,90.8842083 C71.8118004,90.780859 68.7470477,90.5754363 65.1980845,90.3381158 C57.5817529,89.8296628 48.1028377,89.1955321 37.5897279,88.9799021 L37.422519,88.9773502 L37.2612431,89.0213694 C34.5322479,89.7722466 31.9978301,90.2200934 29.5467297,90.6539052 C22.8568415,91.8379562 17.0771288,92.8599658 13.2022325,99.6044632 C12.9645292,99.9540645 11.417735,102.26475 10.8398083,104.104623 L3.70788507,113.075595 C3.69916418,111.278466 3.63337152,109.148961 3.45270167,107.500476 C3.33482607,104.606058 4.48190738,98.7700135 5.17145123,97.3735223 C5.70773829,96.2883548 6.3633874,94.0165846 7.19349264,91.1413055 C8.59151494,86.2992004 11.1931736,77.2873984 13.3218497,76.1984032 C16.8759804,74.3795835 26.7309722,70.3866011 41.4398714,72.5811784 C45.4650068,73.1821353 48.0773832,73.4092486 49.8791056,73.4092486 L49.8791056,73.4092486 Z M60.7561069,69.2006362 C59.9985312,69.2006362 59.2683239,69.2133954 58.5695679,69.2395517 C55.4949268,69.3550222 54.3565537,69.9106841 53.3520242,70.3999982 C52.0310035,71.0449743 50.783986,71.6535867 41.7788187,70.3100461 C26.4112274,68.0172232 16.0272404,72.2347669 12.2759806,74.1537462 C9.48414649,75.5821353 7.40931401,82.1135546 4.98704294,90.503985 C4.22024232,93.1604442 3.55786275,95.4545431 3.11229338,96.3559785 C2.2019521,98.2009545 1.01724399,104.459965 1.15978944,107.639551 L1.16551831,107.715468 C1.52312596,110.927589 1.3893014,115.911321 1.35043059,116.303665 L1.59390108,116.327908 L3.38690901,117.168737 L12.9238912,105.173841 L12.9862198,104.946728 C13.3497923,103.612119 14.6505897,101.549599 15.1210842,100.866345 L15.1729502,100.784686 C18.5137475,94.9384346 23.3094093,94.0899498 29.9469211,92.9154682 C32.2873995,92.5014331 34.934736,92.0331715 37.7083244,91.2797425 C48.1025825,91.4979243 57.4925025,92.1250376 65.0443365,92.6303007 C68.6079728,92.8682592 71.6848467,93.0736819 74.0676218,93.1783071 C81.3620394,93.4966484 95.6350853,95.0692161 98.9416243,95.5432193 C101.947685,95.9725654 107.235723,100.780221 107.386281,103.220412 L107.474957,104.650715 L112.435723,103.21467 L112.435723,102.351513 C112.435723,100.276871 110.036361,85.2484827 108.133969,83.4877172 C106.654543,82.1167444 100.627111,79.307813 90.9154682,74.8395516 C82.7177013,71.065389 69.8118005,69.2006362 60.7561069,69.2006362 L60.7561069,69.2006362 Z" id="path46" fill="#231F20"></path>
                        <path d="M11.8222007,131.129821 L4.72787229,120.063793 L3.77217853,117.030938 L3.63586594,108.996489 L5.27362666,103.084527 L7.49652294,100.588833 L13.0046568,97.1432193 L9.94494393,109.570651 C9.94494393,109.570651 7.34526297,119.535563 8.18379565,121.019455 C10.0054862,124.237955 13.573333,127.850077 13.573333,127.850077 L20.4894413,138.401272 C20.4894413,138.401272 13.1235084,132.271129 11.8222007,131.129821" id="path48" fill="#ED1248"></path>
                        <path d="M105.348004,97.1508748 L109.067302,108.315149 C113.020731,106.918658 119.184686,114.953107 122.276233,114.408291 C128.927588,113.240827 136.294095,109.92089 133.423282,116.598402 C130.007652,120.209247 129.58022,116.35534 122.939072,121.187876 C120.469534,122.984367 119.224877,124.707493 118.664112,127.078785 C118.260284,128.74896 118.210523,130.764909 118.316424,133.37097 C118.354702,134.335563 117.73971,137.89282 117.5177,140.890587 C117.439232,141.933011 115.501751,148.435722 115.279742,149.968736 C114.784048,152.211798 113.245292,157.521527 111.327589,160.263473 C109.333969,163.112596 100.214352,173.655498 85.3964891,173.655498 C70.5786266,173.655498 60.1512585,170.613074 55.2731087,151.092181 C55.1298232,150.514829 53.9710353,148.313234 53.9436031,147.226791 C53.9025186,145.619773 53.9436031,142.239231 52.6963942,139.495371 C51.4491215,137.002867 50.875214,133.691225 50.9506845,132.016584 C51.1625506,127.369056 55.4575425,119.076233 47.4593928,118.300476 C39.7303339,117.554702 40.1988507,112.096967 41.3776066,116.598402 C43.3861552,124.280061 49.0031886,109.166823 55.119871,112.965228 C59.8771277,115.920252 66.0478452,102.034447 68.1403492,99.9419433 L88.6054204,89.2472067 L105.348004,97.1508748" id="path108" fill="#231F20"></path>
                        <path d="M91.3862816,158.805738 C93.3811779,158.55502 94.2819753,163.044972 94.378945,164.789151 C95.0022305,162.669214 94.6283868,158.805738 97.4430598,158.936519 C99.2931395,159.024557 101.150237,158.199039 102.809567,158.574159 C104.407015,158.935243 107.59298,161.0488 105.348004,163.293138 C91.3875575,177.25486 60.9649108,174.332372 59.3306524,149.520251 C59.2317051,148.059964 61.480764,146.214988 62.7143206,147.617221 C67.527909,153.092819 73.1821353,152.653904 74.6819758,163.791383 C75.6803809,157.140028 77.6140331,158.392341 79.1687381,158.305578 C81.9202531,158.153744 87.6472067,158.305578 91.3862816,158.805738" id="path110" fill="#FFFFFF"></path>
                        <path d="M89.3913853,144.343856 C91.3913853,143.778625 98.4899497,145.656775 98.1199338,146.338114 C95.531736,151.059645 79.0022309,154.149278 78.4191368,147.583409 C78.1033473,143.989151 86.6641127,145.112596 89.3913853,144.343856" id="path112" fill="#FFFFFF"></path>
                        <path d="M58.9725663,131.994255 C58.8304929,134.380858 59.7986588,138.107812 56.97767,138.107812 C54.1566813,138.107812 55.1273351,134.380858 54.9840497,131.994255 C55.9795839,128.884845 57.9744802,128.884845 58.9725663,131.994255" id="path114" fill="#FFFFFF"></path>
                        <path d="M62.46137,136.614351 C61.7910032,136.612437 62.9984035,131.323761 63.2937145,131.016903 C70.650078,123.413713 65.5374784,132.889311 75.1381161,136.629024 C73.8047828,137.367142 63.7933636,136.616265 62.46137,136.614351" id="path116" fill="#FFFFFF"></path>
                        <path d="M61.2153733,130.878466 C60.7742888,131.385005 61.8271755,127.788833 61.9654849,127.388195 C63.1658676,123.900475 74.1799025,118.162676 79.4169039,123.647844 C68.4472072,118.911002 62.9635072,128.884845 61.2153733,130.878466" id="path118" fill="#FFFFFF"></path>
                        <path d="M90.8440169,136.50526 C90.596489,134.510363 91.4698542,129.33652 94.4637935,128.028067 C102.439551,124.535882 94.5875574,131.143218 103.065388,136.379582 C100.571608,135.630619 94.3355638,136.255818 90.8440169,136.50526" id="path120" fill="#FFFFFF"></path>
                        <path d="M59.9698231,140.10526 C59.9698231,140.10526 58.4729172,142.847843 88.8931397,142.348322 C109.087079,142.017859 113.079423,139.604462 113.079423,139.604462 C113.079423,139.604462 105.806058,140.992022 86.8567761,140.992022 C63.9170638,140.992022 59.9698231,140.10526 59.9698231,140.10526" id="path122" fill="#FFFFFF"></path>
                        <path d="M105.057733,113.813713 C100.818498,102.093777 107.052629,114.312597 106.0555,109.825197 C104.632852,103.422007 97.6038253,97.0360422 94.6283868,96.7177009 C91.1355639,96.3432193 92.0950535,99.9406674 89.5980839,99.8507152 C85.6835704,99.7078125 86.1492801,96.0937775 83.1578927,96.7177009 C80.5448146,97.2618795 74.4127573,100.029982 72.1862821,103.200635 C63.1678453,116.058051 71.7894719,107.900476 71.2905883,110.394894 C70.8880365,112.407653 68.0102056,113.79904 65.2038261,117.663793 C63.5583397,119.936839 65.9540653,122.651353 65.9540653,122.651353 C65.9540653,122.651353 70.4433794,119.657413 77.9228051,120.405101 C84.6226454,121.075595 87.2784667,126.391065 87.2784667,126.391065 L89.7728845,126.391065 C89.7728845,126.391065 93.3811779,120.405101 101.859009,120.405101 C110.336839,120.405101 108.548642,122.29282 108.548642,122.29282 C108.796807,115.059646 105.757573,115.746728 105.057733,113.813713" id="path124" fill="#FFFFFF"></path>
                        <path d="M80.6232835,112.068259 C81.3709709,111.817541 86.8567761,113.190428 89.350556,112.940348 C91.8424219,112.690906 98.5754361,112.068259 98.5754361,112.068259 C98.5754361,112.068259 93.3811779,111.179583 89.3913853,111.179583 C85.644655,111.179583 80.6232835,112.068259 80.6232835,112.068259" id="path126" fill="#231F20"></path>
                        <path d="M85.6095672,106.333012 C84.3687379,106.921209 84.613076,109.326313 84.613076,109.326313 C84.613076,109.326313 87.0985624,109.573203 89.642103,109.682932 C92.8389131,109.825197 95.5827727,110.074638 95.5827727,110.074638 C95.5827727,110.074638 97.3295031,105.335883 95.5827727,105.5866 C92.9250375,105.96491 93.0909068,106.832533 89.8488016,107.081337 C87.0685784,107.296967 87.0188176,105.665069 85.6095672,106.333012" id="path128" fill="#231F20"></path>
                        <path d="M91.8424219,126.530778 C92.4688972,126.914191 92.8242401,125.146408 93.3397106,124.629024 C94.8350853,123.132373 97.2886738,116.733011 94.3266324,116.450396 C91.3365208,116.165228 89.5521509,114.429343 88.6864412,116.16778 C87.7696948,118.008928 83.3397108,117.128546 83.2395513,117.929184 C83.1164254,118.943538 84.5531079,118.461241 85.6835704,118.949279 C86.2149899,119.178944 88.8816565,118.355978 89.8086102,118.394255 C90.8765528,118.433171 92.734288,119.550236 92.8006356,120.526951 C92.8427409,121.1866 91.1310982,126.094415 91.8424219,126.530778" id="path130" fill="#231F20"></path>
                        <path d="M66.9786267,103.751194 C67.6759154,102.878466 69.5936187,100.088036 70.4669839,99.039232 C70.4669839,97.4730438 70.495692,95.224878 70.6724065,93.4806994 C68.7521514,94.1767122 67.5298229,97.4909067 66.6602854,98.3642719 C66.6602854,100.10845 66.8905884,102.005101 66.9786267,103.751194" id="path132" fill="#ED1248"></path>
                        <path d="M71.1744799,171.519613 C75.8768721,171.519613 81.7582117,175.046248 87.0488017,174.459964 C92.3393916,173.871128 104.098243,169.461559 107.332693,169.168098 C110.271768,166.229661 114.680699,159.467301 115.562358,156.528864 C116.443378,153.588513 116.443378,147.709087 116.443378,145.062835 C116.443378,142.417859 121.147046,138.597126 121.147046,138.597126 C121.439869,135.656775 121.147046,134.482293 121.147046,131.541942 C126.143538,126.83955 138.19904,120.958211 139.372883,115.079423 C143.488354,114.491225 146.134606,115.372884 149.66124,117.138115 C153.188513,118.900794 158.187556,121.547684 161.714828,118.311959 L158.481655,115.079423 C155.245929,115.372884 149.659964,113.023283 146.721527,111.847525 C143.783728,110.669854 142.606057,110.375117 140.255818,110.669854 C137.021368,107.437956 133.495371,105.379264 131.730778,105.379264 C129.965547,105.379264 114.680699,105.96491 112.620731,116.549917 C115.267621,117.430938 117.032852,123.900475 116.737477,127.719933 C116.443378,131.541942 113.505579,139.478146 108.212437,138.889311 C101.744176,141.535563 90.8701732,146.239231 76.4657078,142.125036 C62.062646,138.00829 62.357957,131.541942 62.357957,127.719933 C62.357957,123.900475 62.357957,112.729822 58.239871,109.788195 C54.124273,106.847844 42.6609878,101.849439 35.6060597,108.318977 C30.6082927,107.141305 28.8183087,109.378626 26.4665384,110.555021 C24.1140664,111.732055 21.4687714,111.43668 19.7044333,111.143857 C17.9413074,110.848482 14.7084526,112.318338 15.0012755,114.082932 C15.2972883,115.844973 16.7638273,115.256137 17.9413074,116.433171 C19.1168097,117.608928 21.4687714,118.490587 22.9378623,117.608928 C24.4098877,116.728546 25.6815943,115.744176 26.5617218,114.274957 C29.2095049,113.686122 32.3726308,111.549598 34.4298556,113.315468 C34.7226148,120.371927 41.4847199,131.541942 48.5396479,131.541942 C50.3032842,132.423601 52.9497913,135.656775 52.9497913,135.656775 C52.0683879,138.597126 53.8153097,142.427429 57.4436987,144.939071 C58.9127258,154.639231 60.297032,160.644972 60.8851659,162.112915 C61.474512,163.583409 70.2934592,171.81435 71.1744799,171.519613" id="path134" fill="#FFFFFF"></path>
                        <path d="M35.952216,109.644654 L36.4246881,109.211481 C42.6851664,103.469854 53.3512586,107.785643 57.5358837,110.773841 C59.9319921,112.485484 61.1468565,118.186919 61.1468565,127.719933 L61.1466013,127.943856 C61.1408597,131.808609 61.1303972,139.001591 76.1333314,143.289311 C90.596489,147.422006 101.617222,142.902708 108.201592,140.202867 L108.401273,140.121209 C110.02424,140.223282 111.546409,139.686759 112.93652,138.535244 C116.192023,135.839869 117.73652,130.527588 117.945133,127.813075 C118.202868,124.481018 116.88357,118.049758 114.013394,115.934287 C116.66794,106.6992 131.576392,106.590109 131.730778,106.590109 C132.86443,106.590109 135.992341,108.121209 139.400315,111.526632 L139.819454,111.945771 L140.407014,111.871768 C142.50526,111.607653 143.483888,111.855181 146.271129,112.971608 L146.826153,113.194894 C149.774159,114.380858 154.5799,116.314511 157.915786,116.314511 C157.945132,116.314511 157.974478,116.314511 158.003824,116.313873 L159.83923,118.149279 C157.096009,119.507493 153.478146,117.695053 150.50207,116.204782 L150.202229,116.054862 C146.427429,114.16459 143.555977,113.259327 139.201272,113.880061 L138.352788,114.001273 L138.185005,114.842102 C137.494095,118.301113 131.95534,122.150555 127.068577,125.546408 C124.478466,127.346089 122.031895,129.046249 120.3177,130.660284 L119.936201,131.018817 L119.936201,131.541942 C119.936201,132.625834 119.975117,133.48644 120.010204,134.245611 C120.066345,135.478147 120.11164,136.475914 119.9866,137.988513 C118.63349,139.147684 115.232533,142.333011 115.232533,145.062835 C115.232533,147.561081 115.232533,153.41116 114.402549,156.181176 C113.603187,158.842101 109.561082,165.076232 106.761082,168.019773 C105.066664,168.279422 102.128227,169.172564 98.7719274,170.192021 C94.5231236,171.482611 89.7071748,172.94545 86.9148304,173.256136 C84.2303009,173.552787 81.2497587,172.656455 78.3668242,171.788193 C75.8736823,171.037954 73.5164256,170.328544 71.2676218,170.308768 C69.7052614,169.538752 62.6569681,162.967141 62.0008278,161.643377 C61.5069203,160.408289 60.1480049,154.709406 58.6410831,144.757891 L58.5628693,144.241145 L58.1329491,143.943218 C55.0602857,141.816264 53.3684835,138.477827 54.1098551,136.0051 L54.2949907,135.388194 L53.8873352,134.889949 C53.5994883,134.538434 51.0204772,131.428386 49.0809557,130.458689 L48.8255171,130.331097 L48.5396479,130.331097 C42.2530133,130.331097 35.9063468,119.684845 35.6399353,113.265069 L35.6182447,112.739391 L35.2185637,112.396807 C33.198787,110.662836 30.5676547,111.625516 28.4539706,112.398721 C27.6866341,112.680061 26.9617218,112.945452 26.2988191,113.09282 L25.7904938,113.205739 L25.5228064,113.65231 C24.8691541,114.743219 23.9099835,115.615946 22.3161079,116.570332 C21.4411478,117.094734 19.6768097,116.455499 18.7978305,115.576393 C18.131738,114.911002 17.4100155,114.651353 16.8832532,114.461879 C16.2552468,114.235404 16.2552468,114.235404 16.1956615,113.882613 C16.1785004,113.778626 16.2856136,113.594256 16.4757891,113.404144 C17.2234126,112.657732 18.7435402,112.211799 19.5043057,112.338115 C21.6389787,112.69282 24.4206055,112.933331 27.0082928,111.638275 C27.5455814,111.369694 28.0449754,111.057732 28.5277186,110.756616 C30.2387233,109.688036 31.8560758,108.679423 35.3282288,109.497924 L35.952216,109.644654 Z M44.2738107,103.943219 C41.1246561,103.943219 37.961275,104.762358 35.2661554,107.007334 C31.2103979,106.229024 29.0208605,107.593618 27.2450392,108.701752 C26.789792,108.985643 26.3598717,109.254224 25.924784,109.471768 C23.9603184,110.454224 21.6738751,110.243059 19.9028384,109.948961 C18.2999676,109.68038 15.9950873,110.461241 14.764274,111.689949 C13.9964909,112.456775 13.6565228,113.376712 13.8063154,114.281337 C14.1011161,116.035085 15.2815945,116.459965 16.0628385,116.740667 C16.4760442,116.889311 16.8019773,117.006696 17.0851032,117.289311 C18.6605418,118.865707 21.5844333,119.832852 23.5610839,118.647525 C24.7555337,117.933011 26.2327904,116.921209 27.321339,115.33333 C27.9792019,115.15215 28.641339,114.909726 29.2865064,114.673681 C31.0727903,114.019774 32.375374,113.604463 33.2605414,113.994256 C33.9152145,121.386919 40.6888028,132.435722 48.2156926,132.746408 C49.2067611,133.349279 50.6740657,134.863155 51.6297914,135.970013 C51.0234756,139.216583 52.8710673,143.040507 56.3227418,145.624877 C57.6844005,154.511001 59.0759794,160.853584 59.7610192,162.563313 C60.2788502,163.855817 63.9776699,167.333329 65.0992009,168.368098 C69.6555007,172.57352 70.7240812,172.865067 71.3390732,172.732372 C73.2210508,172.768736 75.3830922,173.420091 77.6688976,174.107811 C80.784687,175.04561 84.0082914,176.016583 87.182135,175.663154 C90.1971269,175.328225 95.1266324,173.830299 99.4768715,172.509725 C102.885484,171.47368 106.105898,170.49569 107.442422,170.373839 L107.878785,170.334924 L108.188833,170.024876 C111.312278,166.902707 115.778625,160.021687 116.722804,156.877189 C117.654861,153.766503 117.654861,147.887716 117.654861,145.062835 C117.654861,143.640826 120.143538,140.975435 121.911321,139.536839 L122.302389,139.218497 L122.35215,138.717062 C122.549279,136.74577 122.493777,135.536201 122.429981,134.135244 C122.400635,133.503665 122.371289,132.854223 122.361719,132.072724 C123.933011,130.674957 126.132054,129.146408 128.450396,127.535563 C133.607014,123.95215 138.92695,120.25518 140.324717,116.183729 C143.63317,115.857094 145.94896,116.634766 149.118976,118.221369 L149.41754,118.370651 C153.030299,120.179901 158.490586,122.913554 162.533329,119.204463 L163.465387,118.349598 L158.937157,113.821369 L158.371926,113.873043 C155.636998,114.120571 150.488672,112.057413 147.73014,110.948004 L147.171288,110.722804 C144.313234,109.577669 142.918657,109.202549 140.695371,109.404144 C137.426472,106.254543 133.871767,104.16778 131.730778,104.16778 C130.99904,104.16778 113.769694,104.306217 111.432214,116.318338 L111.228705,117.363314 L112.238594,117.699519 C113.976393,118.278147 115.822645,123.844335 115.53046,127.626791 C115.344176,130.04593 113.899838,134.59266 111.392023,136.669215 C110.42105,137.473681 109.422645,137.806695 108.346409,137.686121 L108.038913,137.651671 L107.282294,137.961719 C100.989471,140.542899 90.4561381,144.86124 76.7987222,140.960124 C63.5551499,137.175116 63.5633158,131.622325 63.5688022,127.947684 L63.5690574,127.719933 C63.5690574,121.017541 63.0896316,111.763953 58.9438582,108.802549 C56.5184037,107.069854 50.4248791,103.943857 44.2738107,103.943219 L44.2738107,103.943219 Z" id="path136" fill="#231F20"></path>
                        <path d="M108.506536,166.229661 C108.644973,162.630937 109.016265,159.745451 107.92089,157.99872 C104.98054,160.056774 99.6899497,160.938433 96.1594872,160.349597 C92.6334905,159.760762 88.2239212,161.819454 85.2848464,160.643696 C82.3464094,159.467301 80.2870793,157.117061 76.7591687,158.292181 C76.1735228,161.231256 75.2893123,166.815307 73.5247191,168.875275 C74.7049423,165.641463 75.2893123,159.467301 73.5247191,156.234765 C69.4118005,153.002229 67.6484832,151.531097 65.2963301,149.472405 C62.9436029,147.416902 60.8851659,144.77065 59.7089618,144.476551 C58.5344164,144.181177 59.53078,143.020092 59.53078,143.020092 C59.53078,143.020092 57.1209555,140.857413 58.0019124,138.799359 C58.8828055,136.741942 62.062646,133.893458 58.5344164,135.068577 C59.4161389,132.13014 59.7089618,128.602868 57.6530129,127.131097 C55.5958519,125.662517 55.8886748,128.602868 55.3005409,130.659646 C54.7124069,132.7177 54.4188822,135.362676 53.5374149,135.362676 C52.6552459,135.362676 50.3032842,132.7177 50.3032842,132.7177 C50.3032842,132.7177 53.2433798,130.071448 51.7723113,129.189789 C50.3032842,128.308131 49.7171279,127.719933 50.8909078,125.955978 C52.0683879,124.193298 53.2433798,121.840507 53.8302379,119.785005 C54.419584,117.725037 54.124273,115.668259 55.8886748,115.372884 C57.6530129,115.079423 61.474512,116.84274 61.474512,116.84274 L62.062646,124.193298 C62.062646,124.193298 64.4127576,133.893458 63.8271116,134.775754 C63.2389139,135.656775 61.1804769,135.362676 62.9436029,137.714829 C64.7081324,140.066982 64.7081324,141.535563 67.3531084,142.125036 C69.9999982,142.712596 73.233172,143.593617 75.5840491,144.77065 C77.9349263,145.944494 81.168738,147.121527 86.1658671,147.416902 C91.1629961,147.709087 101.15853,145.944494 105.274001,144.181177 C108.683251,142.722165 112.372565,137.741623 114.3866,135.656775 C114.806377,135.224239 113.998721,133.295052 113.798402,133.601273 C104.277509,147.90494 115.215308,125.675914 114.680699,131.835403 C114.495053,133.987875 116.983091,127.256775 117.015627,125.661879 C117.032852,124.59585 117.032852,123.900475 117.032852,123.900475 L114.974798,117.725037 C114.974798,117.725037 116.443378,114.491225 121.439869,113.315468 C126.437636,112.140986 128.790427,114.196488 129.084526,116.254543 C129.379901,118.311959 127.909407,120.960125 126.733011,120.960125 C125.557892,120.960125 126.143538,117.136201 124.380858,116.84274 C122.617541,116.549917 121.733968,117.138115 121.147046,118.900794 C120.558849,120.666026 121.73652,121.843697 122.910364,120.960125 C124.086759,120.077828 125.263155,120.078466 125.557892,121.547684 C125.849439,123.016265 124.96778,124.487397 123.791384,125.076233 C122.617541,125.662517 122.324718,126.545451 120.852948,125.662517 C119.384367,124.780858 119.972565,122.135244 118.794893,122.135244 C117.62105,122.135244 113.798402,144.476551 113.210205,147.416902 C112.620731,150.355339 112.620731,151.824558 110.271768,155.057731 C110.564591,157.409246 109.09601,163.878784 108.506536,166.229661" id="path138" fill="#231F20"></path>
                        <path d="M47.9503018,128.896329 C46.4812748,125.955978 42.9550228,119.48963 49.1265697,114.785324 C49.1265697,114.785324 43.5419447,121.547684 40.0156928,116.549917 C42.6609878,115.667621 47.6574789,113.022645 44.7186592,110.669854 C47.3646559,110.081018 49.1265697,110.377031 51.1849429,110.377031 C47.3646559,109.495372 40.6030612,108.318977 38.8419767,110.081018 C37.0750868,111.847525 37.3703978,115.372884 39.4263467,119.196169 C41.4847199,123.016265 45.5991057,128.602868 47.9503018,128.896329" id="path140" fill="#231F20"></path>
                        <path d="M87.8098862,131.737796 C84.613076,131.98341 82.999041,127.996807 81.1304605,125.325675 C79.2580522,122.651991 74.9811783,119.713554 70.7062183,120.248163 C65.1362025,120.941624 62.6893764,127.194893 63.7597432,132.273681 C64.8274306,137.349917 66.9645916,140.556296 74.4472071,140.824239 C78.7215291,140.290268 86.4733631,139.219773 88.3419436,139.219773 L88.8765528,139.219773 C90.7483231,139.219773 98.4982432,140.290268 102.773841,140.824239 C110.255819,140.556296 112.395531,137.349917 113.462836,132.273681 C114.532055,127.194893 112.08357,120.941624 106.515468,120.248163 C102.240508,119.713554 97.962996,122.651991 96.0925016,125.325675 C94.2232831,127.996807 92.609886,131.98341 89.412438,131.737796 L87.8098862,131.737796" id="path142" fill="#FFFFFF"></path>
                        <path d="M89.7090887,132.81467 C92.6692162,132.81467 94.3700136,130.065706 95.8775096,127.628067 C96.2507153,127.024558 96.6041443,126.454223 96.9658668,125.936839 C98.777031,123.347365 102.693458,120.842102 106.38341,121.305898 C108.694734,121.593617 110.114192,122.96459 110.898881,124.063793 C112.42424,126.20223 113.007972,129.263793 112.420412,132.054223 C111.413075,136.84274 109.580859,139.492819 102.820412,139.755658 C101.90558,139.641464 100.836999,139.503027 99.7052607,139.356934 C95.347366,138.792979 90.4076532,138.154383 88.8765528,138.154383 L88.3419436,138.154383 C86.812757,138.154383 81.8711303,138.792979 77.5119598,139.356934 C76.3808593,139.503665 75.3148307,139.641464 74.4006361,139.755658 C67.6414656,139.492819 65.8098867,136.84274 64.8025502,132.054223 C64.2143525,129.263793 64.7968086,126.20223 66.3221674,124.063793 C67.1062184,122.96459 68.5263141,121.593617 70.8376378,121.305898 C74.5224862,120.84593 78.4440172,123.348003 80.2570953,125.936839 C80.6194557,126.454223 80.9716088,127.024558 81.3454525,127.628067 C82.9090888,130.155659 84.6730441,133.022644 87.8488016,132.803186 L89.3741604,132.803186 C89.4877171,132.81148 89.5993598,132.81467 89.7090887,132.81467 L89.7090887,132.81467 Z M105.480061,119.118976 C101.307812,119.118338 97.2523102,121.807971 95.2191364,124.715148 C94.8229641,125.281018 94.4376372,125.904303 94.0644315,126.506536 C92.4529482,129.112596 91.2688972,130.801911 89.4940966,130.674957 L89.412438,130.672405 L87.7288654,130.674957 C85.9572546,130.805738 84.7700138,129.112596 83.1578927,126.506536 C82.7853249,125.904303 82.3999979,125.281018 82.0031877,124.71451 C79.7792644,121.537477 75.1393921,118.619455 70.573523,119.190428 C68.1371594,119.494096 66.066346,120.751512 64.5869202,122.826153 C62.7262504,125.434128 62.0095678,129.138753 62.7168086,132.493139 C63.8590096,137.922804 66.2845278,141.598721 74.4095675,141.888992 L74.494416,141.892181 L74.5792645,141.881336 C75.5145117,141.76459 76.6156281,141.622325 77.785006,141.471129 C81.8685785,140.942899 86.9499181,140.285802 88.3419436,140.285802 L88.8765528,140.285802 C90.2704922,140.285802 95.3505558,140.942899 99.4315765,141.470491 C100.602868,141.622325 101.705261,141.76459 102.641784,141.881336 L102.725994,141.892181 L102.811481,141.888992 C110.937796,141.598083 113.363953,137.922804 114.505898,132.493139 C115.212756,129.138115 114.495053,125.434128 112.634128,122.825515 C111.153426,120.750874 109.083251,119.494096 106.646887,119.190428 C106.257733,119.141943 105.86794,119.118976 105.480061,119.118976 L105.480061,119.118976 Z" id="path144" fill="#231F20"></path>
                        <path d="M70.8369998,121.305898 C68.5263141,121.594255 67.1062184,122.965866 66.3215294,124.065069 C65.1891531,125.653585 64.5760749,127.749279 64.5760749,129.86475 C64.5760749,130.59904 64.6507161,131.335882 64.8025502,132.053585 C65.8118006,136.84593 68.4318962,140.301113 74.4191369,139.753107 C74.6149902,139.729502 77.4258354,139.368418 77.4258354,139.368418 C81.8207316,138.799359 85.6944157,138.15502 87.2331717,138.15502 L90.1473662,138.15502 C91.688036,138.15502 95.4022305,138.799359 99.7990406,139.368418 C101.450077,139.580858 101.414352,139.578306 102.803187,139.753107 C108.287079,139.903665 111.409886,136.84593 112.420412,132.053585 C112.57097,131.335882 112.644335,130.601592 112.644335,129.867301 C112.644335,127.749917 112.031257,125.653585 110.898881,124.065069 C110.11483,122.965228 108.694734,121.594255 106.384686,121.305898 C102.655181,120.838912 97.8966483,123.307812 96.1346068,125.826472 C96.1346068,125.827748 94.517382,127.588514 94.517382,127.588514 C92.6634746,129.839231 91.7167441,131.853904 88.5716086,131.61148 C88.5716086,131.61148 88.5741605,131.61148 88.5716086,131.61148 C85.4877172,131.809247 83.8526295,129.687397 82.599679,127.588514 L81.0928209,125.827748 C79.3301416,123.307812 74.5703331,120.838912 70.8369998,121.305898" id="path146" fill="#231F20"></path>
                        <path d="M96.531417,126.103984 C98.2149896,123.698243 102.757254,121.340986 106.32408,121.786919 C108.461879,122.052948 109.776712,123.325675 110.504622,124.34577 C111.556616,125.822006 112.159487,127.834128 112.159487,129.867301 C112.159487,130.576073 112.088035,131.278466 111.945771,131.954064 C111.222964,135.385005 109.080699,139.443697 102.816584,139.268896 C101.906218,139.15215 101.626792,139.115786 101.003506,139.035403 L99.8609225,138.888035 C98.3629959,138.694095 96.9429003,138.491225 95.6618796,138.308131 C93.1668238,137.95215 91.19617,137.67081 90.1473662,137.67081 L87.2331717,137.67081 C86.151832,137.67081 84.0331717,137.968099 81.3505562,138.343856 C80.1141926,138.517381 78.7655483,138.706217 77.3633155,138.888035 L77.3633155,138.888035 C77.3633155,138.888035 74.5575739,139.248481 74.3617206,139.272086 C69.3843683,139.72376 66.4095677,137.33333 65.2765534,131.954064 C65.1330127,131.275914 65.0602855,130.572883 65.0602855,129.86475 C65.0602855,127.83349 65.6637942,125.822006 66.7157878,124.34577 C67.4449744,123.325675 68.7623587,122.052948 70.8969679,121.786919 L70.8969679,121.786919 C74.4650699,121.340348 79.0118003,123.69888 80.6960107,126.105898 L82.2054206,127.872405 C83.5259947,130.076552 85.3097267,132.285802 88.5684188,132.096966 C91.4634746,132.302389 92.6806994,130.731097 94.0918637,128.907174 C94.3444952,128.581177 94.6073342,128.241783 94.8912257,127.896648 C95.9362017,126.759805 96.3489609,126.310683 96.5122783,126.090587 L96.531417,126.103984 Z M105.455819,120.765547 C101.759487,120.765547 97.4570949,123.1177 95.7562974,125.523442 C95.5744793,125.721209 94.1607632,127.260603 94.1607632,127.260603 C93.8526292,127.633809 93.5840487,127.980858 93.3256755,128.31451 C91.9285463,130.120571 91.0015926,131.316105 88.6086102,131.127907 L88.5747984,131.125356 L88.5403487,131.127907 C85.9259947,131.294415 84.4452929,129.735244 83.0156279,127.340348 L82.967781,127.273362 L81.460923,125.513235 C79.6484829,122.917381 74.678786,120.334925 70.7770317,120.825515 C68.2940972,121.134925 66.7693763,122.604782 65.9272711,123.783091 C64.7432201,125.443697 64.0912265,127.603825 64.0912265,129.86475 C64.0912265,130.640507 64.1709713,131.410523 64.328547,132.153745 C65.5636347,138.019773 68.9747989,140.738115 74.463794,140.235403 C74.6724064,140.210523 77.4877174,139.8488 77.4877174,139.8488 C78.89314,139.666982 80.245612,139.477508 81.4845275,139.303346 C84.1301414,138.932692 86.2194556,138.639231 87.2331717,138.639231 L90.1473662,138.639231 C91.1272704,138.639231 93.0679403,138.916743 95.5247185,139.26762 C96.809567,139.450714 98.2334904,139.654223 99.7371586,139.8488 L100.879742,139.996169 C101.503028,140.076552 101.78373,140.112915 102.743219,140.233489 C108.182453,140.375116 111.763953,137.513872 112.894415,132.153745 C113.050077,131.412437 113.129184,130.643059 113.129184,129.867301 C113.129184,127.604463 112.47719,125.443697 111.293139,123.783729 C110.453586,122.604782 108.930141,121.134925 106.444016,120.825515 C106.121847,120.784686 105.790747,120.765547 105.455819,120.765547 L105.455819,120.765547 Z" id="path148" fill="#FFFFFF"></path>
                        <path d="M69.7103651,137.228067 C64.9958516,134.16459 65.7569362,127.022006 67.589791,124.974798 C75.601912,116.018498 70.2424225,133.724399 79.8417843,137.464111 C77.0156281,137.464111 72.1862821,138.83636 69.7103651,137.228067" id="path150" fill="#FFFFFF"></path>
                        <path d="M93.9814969,136.993936 C92.333012,134.636041 95.7001571,126.991384 98.6928205,125.681656 C106.672406,122.191385 97.7556594,132.701113 106.234766,137.935563 C101.993618,138.170969 97.4692161,136.74258 93.9814969,136.993936" id="path152" fill="#FFFFFF"></path>
                        <path d="M75.8826137,169.367779 C80.6105243,170.718975 80.6105243,172.070171 84.6634748,171.394573 C88.7157873,170.718975 96.5696946,167.68612 96.5696946,167.68612 C90.0682593,168.016583 88.0516724,171.618497 83.3122786,168.692819 C78.5735228,165.766503 75.8826137,169.367779 75.8826137,169.367779" id="path154" fill="#231F20"></path>
                        <path d="M118.438275,98.4421028 C123.165547,95.0647504 131.840507,88.7680999 131.840507,88.7680999 C123.841145,91.6867601 121.814989,96.4153086 117.08644,95.0647504 L118.438275,98.4421028" id="path156" fill="#231F20"></path>
                        <path d="M62.3728852,96.4153086 C62.3940654,99.3263133 58.9949587,101.144495 56.292375,99.7932989 C53.5910034,98.4421028 48.8623911,95.7403485 48.8623911,95.7403485 L44.8091217,93.0379562 C44.8091217,93.0379562 58.3196158,98.4421028 62.3728852,96.4153086" id="path158" fill="#231F20"></path>
                        <path d="M71.8290253,168.016583 L73.1802215,161.938114 C70.4784671,163.288672 67.1017527,164.63923 63.723571,161.262516 C63.723571,161.262516 70.1339695,167.158529 71.8290253,168.016583" id="path160" fill="#231F20"></path>
                        <path d="M54.2663463,66.6940972 C60.3456444,56.5619763 68.4523109,40.3501106 68.4523109,40.3501106 C65.7492807,51.8333639 60.3456444,65.343539 60.3456444,65.343539 C58.3196158,65.343539 54.2663463,66.6940972 54.2663463,66.6940972" id="path162" fill="#231F20"></path>
                        <path d="M113.034766,74.1244001 C117.08644,70.0714496 122.433171,64.821689 122.433171,64.821689 L113.70845,57.912662 C115.735882,63.3166172 117.08644,68.7202535 113.034766,74.1244001" id="path164" fill="#231F20"></path>
                        <path d="M100.874639,84.2564572 C88.9952131,79.7626774 87.365867,78.1779885 70.4784671,79.5285467 C53.5910034,80.8791048 51.5649748,77.5011145 43.4584359,77.5011145 C52.2403177,77.5011145 49.5389461,78.8516727 61.0221994,77.5011145 C72.5052613,76.1505563 87.3652291,76.1499184 100.874639,84.2564572" id="path166" fill="#231F20"></path>
                        <path d="M6.98264735,93.7141922 C11.035215,87.6338096 13.7372883,82.905899 13.0624558,79.5285467 C17.7905578,76.8267923 20.4931414,73.448802 29.2738111,74.1244001 C23.194513,76.8267923 16.439872,82.905899 16.439872,82.905899 C16.439872,82.905899 11.035215,92.3636341 6.98264735,93.7141922" id="path168" fill="#231F20"></path>
                        <path d="M189.478783,108.040827 C182.977986,109.379264 174.374477,112.438275 165.770969,112.629024 C174.183728,110.526951 178.963313,107.658689 178.771925,104.407653 C178.581176,101.157254 179.154063,102.496329 179.154063,102.496329 L180.492499,105.172565 L181.830298,107.084527 L185.46411,107.658689 L189.478783,108.040827" id="path170" fill="#231F20"></path>
                        <path d="M6.50341292,114.733011 C6.18645599,112.592023 10.5188514,103.643379 12.2395531,101.348642 C13.9603186,99.054543 19.5050713,95.4220072 19.5050713,95.4220072 L19.5050713,93.5100455 C12.0481656,96.7604442 6.4406378,102.851672 6.50341292,114.733011" id="path172" fill="#231F20"></path>
                        <path d="M22.1814986,138.632213 C16.0636041,134.043378 4.01839224,126.778306 12.2395531,100.585005 L17.7544493,95.9259944 C11.1535563,109.228067 5.92977338,122.953107 22.1814986,138.632213" id="path174" fill="#231F20"></path>
                        <path d="M146.610523,134.419773 C159.825833,131.115786 174.692181,134.419773 192.037635,128.637955 C186.668576,127.39904 179.235083,127.398402 171.801591,129.051352 C164.368736,130.703027 150.519294,132.353426 147.023282,131.941942 L146.610523,134.419773" id="path176" fill="#231F20"></path>
                    </g>
                </g>
            </g>
        </g>
    </g>
</svg>