<?xml version="1.0" encoding="UTF-8"?>
<svg width="200px" height="200px" viewBox="0 0 200 200" version="1.1" xmlns="http://www.w3.org/2000/svg" xmlns:xlink="http://www.w3.org/1999/xlink">
    <!-- Generator: Sketch 54.1 (76490) - https://sketchapp.com -->
    <title>mount-olive</title>
    <desc>Created with Sketch.</desc>
    <g id="mount-olive" stroke="none" stroke-width="1" fill="none" fill-rule="evenodd">
        <g id="mount-olive_BGD" transform="translate(-0.000000, 0.000000)">
            <g id="mount-olive" transform="translate(3.000000, 0.000000)">
                <g id="g10" transform="translate(96.999998, 99.894201) scale(-1, 1) rotate(-180.000000) translate(-96.999998, -99.894201) translate(0.000000, 0.317405)" fill-rule="nonzero">
                    <g id="g12">
                        <path d="M188.798059,85.8999232 C185.049258,90.5682078 179.24729,92.9381356 171.558175,92.9381356 C171.352361,92.9381356 171.141573,92.9375132 170.941355,92.9356462 C166.577598,92.8746554 161.885534,92.84416 156.602144,92.8398035 C151.934951,92.8292235 147.9194,92.0736845 144.608343,90.593102 L144.608343,92.8510059 L142.250496,92.8678095 L133.79533,92.9244438 C127.965381,92.9636521 122.126106,93.0041052 116.279991,93.0296218 L112.806645,93.0426912 L111.456728,93.0482924 L110.760318,91.8900898 L108.97017,88.9096318 C106.275311,84.4249419 103.577965,80.0018651 101.136177,76.0138144 C100.659882,76.7730875 100.184209,77.5317382 99.7097796,78.2885218 C97.4619912,81.8720418 95.2142027,85.4568064 92.9682797,89.0670876 L91.1638311,91.9604159 L90.4661772,93.0831443 L89.1405106,93.0794102 L85.7392927,93.0657184 C78.9778955,93.0426912 72.2842738,93.0041052 65.4507484,92.9611627 L59.3811601,92.9219544 L57.0225056,92.9082626 L57.0225056,92.9039061 C50.8543007,92.8678095 44.7765046,92.8379364 38.6217304,92.8360694 L34.1122254,92.8360694 L29.5789679,92.8678095 C21.7786136,92.9219544 14.9728823,93.0557607 8.77675875,93.2710955 L2.45754468,93.4932762 L0,93.5797836 L0,91.1171249 L0,61.0604914 L0,58.439879 L2.60449346,58.6944222 L4.06790009,58.8373149 L4.06790009,21.6287647 C4.06790009,18.2580902 4.06790009,8.00479193 11.8680119,3.75286274 C13.8543977,2.65133177 16.1219592,2.09242589 18.5950861,2.09242589 C21.9199475,2.09242589 25.6237929,3.0974296 30.2495736,5.26132673 C34.8581305,7.41112752 39.6042285,9.35841401 44.348088,11.0580032 C49.7532885,13.000871 53.9256563,15.4064597 57.0225056,18.3745328 L57.0225056,18.2661185 L57.0225056,15.3758398 L59.8540972,15.9347146 L67.1426522,17.369305 C73.4973956,18.6220433 79.9621967,19.4884859 86.353626,19.9304202 L92.0393182,20.3279183 L94.2491771,20.4810799 L94.2491771,22.7003977 L94.2491771,29.6520406 L98.884036,22.2579656 L100.88435,19.0608658 L102.902074,22.2535469 L107.130279,28.9375771 L107.130279,22.2666786 L107.130279,20.1474976 L109.231324,19.906584 L114.635965,19.2825487 C121.16108,18.525765 127.706093,17.3425438 134.09317,15.7592105 L141.6629,13.884864 L144.608343,13.1528501 L144.608343,14.0839553 C147.079977,12.4466016 150.044695,10.96465 153.558458,9.6054267 C158.195804,7.80738094 162.820714,5.7704131 167.301989,3.55931034 C172.145771,1.14941496 175.99779,0.0286843408 179.418284,0.0286843408 C182.247451,0.0286843408 184.863963,0.809061468 186.988636,2.28715454 C193.268764,6.56391569 193.995643,15.3466513 193.995643,21.5782295 L193.995643,66.4171007 C193.995643,75.2097318 192.295655,81.5826467 188.798059,85.8999232" id="path14" fill="#FFFFFF"></path>
                        <path d="M140.303035,156.324368 L142.936336,155.118244 L144.432375,157.465767 L162.726823,186.151352 L164.562361,189.030989 L161.337111,190.533976 C160.423073,190.9578 138.632272,200.932905 111.923074,198.667533 C95.8627348,197.304576 81.4781326,191.776196 69.1721906,182.238606 C45.8311309,164.151726 45.7493027,141.811672 45.6834546,123.862954 C45.6373174,111.359221 45.5462245,101.26649 38.6916824,94.6757507 C35.001703,91.1270826 29.6974819,88.4030349 29.6974819,88.4030349 C29.6974819,88.4030349 50.9356936,83.9961393 66.4083124,96.3816257 C72.0436392,100.894322 72.8693828,106.364199 73.6366776,110.643512 C74.3635558,114.682596 74.9293892,117.821132 78.7341519,120.403905 C79.8577352,116.291384 80.8967544,111.654839 80.7475236,109.910378 C80.5298954,107.32636 77.9967032,99.6962883 76.448434,95.4935251 L74.9542609,91.4326589 L79.4989596,91.3617104 C79.5897416,91.3617104 81.7492351,91.329348 84.7276325,91.5826465 C88.8532414,91.9317876 94.2336323,92.8037069 98.3517796,94.9265597 C103.762017,90.4711205 120.019465,79.7130924 150.219419,80.3491391 L154.756035,80.4462265 L153.107035,84.4934009 L144.109041,106.539704 C144.470926,106.550906 144.838407,106.568954 145.213349,106.603184 C148.66431,106.892579 151.55006,108.064473 153.802823,110.074057 L155.42322,111.524767 L154.534054,113.499499 C154.503586,113.571692 151.333054,120.691433 150.105009,127.943736 C150.020445,128.434152 149.936503,128.961909 149.853182,129.517672 C149.213977,133.678737 148.25206,139.968879 143.941778,145.687076 C139.595432,151.458174 132.684804,155.498502 123.354773,157.725911 L124.33783,159.194046 C127.454266,159.205249 134.6304,158.920832 140.303035,156.324368" id="path16" fill="#FFFFFF"></path>
                        <path d="M171.558175,90.5638514 C171.368528,90.5638514 171.170797,90.5619843 170.984259,90.5570055 C166.611797,90.4972594 161.913515,90.4673863 156.602144,90.4630299 C150.486791,90.4468486 145.667259,89.0950936 142.234952,86.4370155 L142.234952,90.4897911 L133.781651,90.5476701 C127.951702,90.5868785 122.113048,90.6267092 116.268177,90.6503587 L112.795452,90.6665399 L111.005927,87.686082 C107.739017,82.2404759 104.422985,76.8210088 101.156696,71.5067196 C100.001401,73.3488904 98.8498373,75.1879493 97.698895,77.0257636 C95.4486194,80.6099059 93.200831,84.19716 90.9505554,87.8111753 L89.1504593,90.7007695 L85.7448889,90.6908118 C78.9816262,90.6665399 72.2164982,90.6254645 65.4662932,90.5850114 L59.3964562,90.5464254 L59.3964562,90.5402019 C52.375273,90.4972594 45.4993412,90.4624075 38.6255856,90.4592957 L34.1122254,90.4592957 L29.563423,90.4904135 C21.7169315,90.5476701 14.8912407,90.6808541 8.69567671,90.8986783 L2.37423661,91.1171249 L2.37423661,61.0604914 L6.44384663,61.461288 L6.44384663,21.6287647 C6.44384663,18.6071691 6.44384663,9.4167909 13.0054612,5.84017909 C14.648865,4.92849129 16.5287996,4.46906885 18.5950861,4.46906885 C21.5597418,4.46906885 24.9470936,5.40645991 29.2438204,7.4172266 C33.9240081,9.59497113 38.7361407,11.5738732 43.5482111,13.2960539 C49.6233334,15.4805821 53.9953595,18.2425313 56.9236402,21.740104 C57.9000447,22.9094468 58.7146581,24.1896932 59.3964562,25.5513436 L59.3964562,18.2661185 L66.6831458,19.700709 C73.1348892,20.9770346 79.6991775,21.849763 86.1913376,22.2995389 L91.8726772,22.7003977 L91.8726772,37.8627698 C93.1678759,35.8313409 94.4605874,33.7875272 95.7445938,31.7388591 L100.896164,23.5225909 L106.076337,31.7196905 C107.219818,33.527445 108.362677,35.3274201 109.506779,37.1203003 L109.506779,22.2666786 L114.912042,21.6411496 C121.53167,20.8763375 128.174926,19.6739477 134.660868,18.0682097 L142.234952,16.1900046 L142.234952,19.0073433 C145.072823,16.2291507 149.016246,13.9133056 154.413426,11.8223174 C159.115438,9.99875504 163.810611,7.93066946 168.352823,5.68894683 C172.862701,3.44772209 176.379573,2.40603678 179.418284,2.40603678 C181.792919,2.40603678 183.898938,3.0351941 185.630015,4.23761503 C190.999835,7.89587981 191.620386,15.8863576 191.620386,21.5782295 L191.620386,66.4171007 C191.620386,74.6427664 190.088906,80.5321115 186.953194,84.4019147 C183.670739,88.4901646 178.49181,90.5638514 171.558175,90.5638514" id="path18" fill="#231F20"></path>
                        <path d="M39.3039638,31.1177488 L38.8211401,30.9752917 C35.7883978,30.0653465 32.7340793,29.0782915 29.7441166,28.0266361 L28.8405865,27.7116 L28.8405865,83.5200377 C21.5055834,83.576672 15.0520368,83.7017654 9.16077926,83.8996743 L9.16077926,68.3669388 L13.2301157,68.7696025 L13.2301157,21.4425561 C13.2301157,16.0156829 14.2536522,12.706746 16.2844964,11.5969626 C18.2555239,10.5073435 21.4511764,11.0835198 26.3798955,13.3894072 C31.2497928,15.6541569 36.257169,17.7111024 41.2573323,19.503298 C46.1644129,21.2682345 49.5868962,23.3650729 51.7221397,25.9162304 C53.9101115,28.5313037 54.9725102,31.87335 54.9761166,36.122852 L54.9761166,72.1745065 L55.9103012,72.2280291 C56.9435377,72.2859081 57.9777691,72.3437871 59.0148607,72.3991767 L59.0148607,83.5617355 C52.3619045,83.5219048 45.8328098,83.4864306 39.3039638,83.4820741 L39.3039638,31.1177488" id="path20" fill="#1E5E3E"></path>
                        <path d="M59.0148607,72.3991767 C57.9777691,72.3437871 56.9435377,72.2859081 55.9103012,72.2280291 L54.9761166,72.1745065 L54.9761166,36.122852 C54.9725102,31.87335 53.9101115,28.5313037 51.7221397,25.9162304 C49.5868962,23.3650729 46.1644129,21.2682345 41.2573323,19.503298 C36.257169,17.7111024 31.2497928,15.6541569 26.3798955,13.3894072 C21.4511764,11.0835198 18.2555239,10.5073435 16.2844964,11.5969626 C14.2536522,12.706746 13.2301157,16.0156829 13.2301157,21.4425561 L13.2301157,68.7696025 L9.16077926,68.3669388 L9.16077926,83.8996743 C15.0520368,83.7017654 21.5055834,83.576672 28.8405865,83.5200377 L28.8405865,27.7116 L29.7441166,28.0266361 C32.7340793,29.0782915 35.7883978,30.0653465 38.8211401,30.9752917 L39.3039638,31.1177488 L39.3039638,83.4820741 C45.8328098,83.4864306 52.3619045,83.5219048 59.0148607,83.5617355 L59.0148607,72.3991767 Z M38.6255856,84.8400526 L37.9474561,84.8400526 L37.9474561,32.1310049 C35.3621574,31.3492026 32.7571479,30.5072808 30.1993326,29.6228521 L30.1993326,84.868681 L29.5231307,84.8724151 C21.629445,84.9290494 14.7557516,85.0634781 8.5059671,85.28068 L7.80619916,85.3068189 L7.80619916,66.8689304 L11.8719292,67.2703493 L11.8719292,21.4425561 C11.8719292,15.3984313 13.1045753,11.7880256 15.6317983,10.4108163 C16.4630137,9.94772193 17.4609944,9.71508564 18.5950861,9.71508564 C20.7094373,9.71508564 23.4435936,10.5146251 26.9553045,12.1578289 C31.7865883,14.406273 36.7555997,16.4481574 41.7146624,18.2226159 C46.855911,20.0716948 50.4700936,22.2995389 52.7609724,25.0405769 C55.1643961,27.9162926 56.3287691,31.5410124 56.3287691,36.122852 L56.3287691,70.8899659 C57.4603736,70.9540684 58.5944652,71.0187933 59.7297383,71.0772947 L60.3736068,71.1109019 L60.3736068,84.9278047 L59.6888863,84.9234482 C52.5671589,84.8811281 45.6001341,84.8425421 38.6255856,84.8400526 L38.6255856,84.8400526 Z" id="path22" fill="#FFFFFF"></path>
                        <path d="M167.805643,28.1951076 C165.186643,29.1573306 162.527227,30.0784782 159.887708,30.932287 L159.887708,69.3029607 C162.531579,69.0832694 165.170477,68.8542427 167.805643,68.6171255 C167.802534,55.1443227 167.805643,41.6703375 167.805643,28.1951076 Z M159.265291,70.7175735 L158.532817,70.7766973 L158.532817,29.942058 L159.00165,29.790888 C162.082022,28.8019037 165.19597,27.7195661 168.250227,26.5825858 L169.164265,26.2422199 L169.164265,27.3361955 C169.1624,41.3056375 169.159291,55.2726523 169.164265,69.2394805 L169.164265,69.859346 L168.546201,69.915358 C165.457124,70.1923059 162.364316,70.4617856 159.265291,70.7175735 L159.265291,70.7175735 Z" id="path24" fill="#FFFFFF"></path>
                        <path d="M141.6629,159.088246 L159.957349,187.776943 C159.957349,187.776943 138.376714,197.822375 112.263818,195.604302 C99.0139911,194.479706 84.595812,190.198526 71.2340623,179.846274 C31.5442127,149.082645 62.6327741,106.452574 37.9027491,90.0323602 C37.9027491,90.0323602 38.0849349,90.0429402 38.4201446,90.0721909 C41.3700015,90.3211329 54.0283769,90.187949 64.2413574,98.6918073 C74.8535302,107.528626 65.5595625,118.605922 80.7357095,124.986927 C80.7357095,124.986927 84.2992158,113.54991 83.9677992,109.613515 C83.6363825,105.676497 79.4989596,94.4348993 79.4989596,94.4348993 C79.4989596,94.4348993 81.5440428,94.4025368 84.3906197,94.6446329 C88.772408,95.0143118 95.0512925,96.0387081 98.6825745,98.8237466 C98.6825745,98.8237466 113.946395,82.6611879 150.097548,83.422328 L139.207432,110.115755 C139.207432,110.115755 141.777311,109.400047 144.873849,109.663926 C147.083708,109.851254 149.560317,110.535223 151.567471,112.329472 C151.567471,112.329472 148.228432,119.76039 146.912714,127.499374 C145.600727,135.240848 144.980798,151.293872 118.106824,155.644756 L122.504779,162.224293 C122.504779,162.224293 133.333336,162.90266 141.6629,159.088246" id="path26" fill="#231F20"></path>
                        <path d="M103.656312,148.490785 C88.4776773,142.857228 85.2971966,129.240101 89.1691132,118.273584 C89.6385683,116.941122 89.9892606,115.660316 90.2448183,114.451702 L92.673549,115.522775 C92.0181772,117.340674 92.2662733,119.467883 93.5589848,121.409009 C95.6849015,124.586131 99.9081321,126.154465 103.508324,125.285035 L110.718657,137.182596 C120.171183,142.984811 129.726926,144.836317 132.748227,145.305573 C127.76392,148.964398 116.756286,153.358846 103.656312,148.490785" id="path28" fill="#1E5E3E"></path>
                        <path d="M100.050523,106.099076 C96.3533309,103.983692 92.5802797,102.584638 89.5459208,101.677867 C90.1944529,103.430418 91.0027862,106.535969 90.7584208,110.638533 L95.0282861,112.534227 C95.3764912,112.3052 95.7489463,112.09111 96.1593309,111.911872 C99.9821257,110.242716 105.016177,111.78989 107.409465,115.370921 C109.244382,118.112394 108.97701,121.250931 107.031414,123.315282 L113.863074,134.723049 C126.448202,142.315157 137.088356,141.552772 137.088356,141.552772 C137.088356,141.552772 140.779952,136.796113 141.034887,131.354241 C141.287336,125.912369 144.884419,114.414983 144.884419,114.414983 C144.279413,113.7111 142.236817,113.569203 142.236817,113.569203 C139.145253,130.664672 134.608016,131.249063 134.608016,131.249063 C125.379958,132.36619 111.47476,127.28155 111.47476,127.28155 C111.47476,127.28155 113.05101,112.737114 133.029901,111.602561 L141.854413,89.1747551 C141.854413,89.1747551 111.816125,90.8407993 100.050523,106.099076" id="path30" fill="#1E5E3E"></path>
                        <path d="M103.494645,123.110527 C103.104779,123.281675 102.700613,123.391209 102.283388,123.461535 C104.434799,122.298976 105.045401,119.746076 103.590401,117.577791 C102.310747,115.654715 99.8328949,114.653968 97.6224142,115.021157 C97.7355809,114.963278 97.8512347,114.898553 97.9718629,114.843786 C100.407433,113.780181 103.623978,114.764747 105.155459,117.054391 C106.678235,119.334077 105.937055,122.045678 103.494645,123.110527" id="path32" fill="#FFFFFF"></path>
                        <path d="M132.732683,145.297482 C132.732683,145.297482 122.221862,153.818144 105.884824,149.317895 C97.2213565,146.934276 90.53644,140.80968 88.4484529,132.890836 C88.4484529,132.890836 94.4506387,144.135545 106.025972,147.252299 C117.593843,150.362829 125.887965,143.780181 125.887965,143.780181 C125.887965,143.780181 129.397997,144.802087 132.732683,145.297482" id="path34" fill="#FFFFFF"></path>
                        <path d="M128.131401,140.573808 C128.131401,140.573808 130.137933,138.091234 129.993676,134.72616 L118.87101,129.503357 C118.87101,129.503357 127.98901,132.063726 134.925131,131.103432 C134.925131,131.103432 139.069394,130.168655 142.236817,113.569203 C142.236817,113.569203 144.243971,113.683094 144.884419,114.414983 C144.884419,114.414983 141.647977,125.46863 141.345163,128.545553 C141.036753,131.621231 141.108881,135.916103 137.088356,141.552772 C137.088356,141.552772 132.714651,141.740723 128.131401,140.573808" id="path36" fill="#FFFFFF"></path>
                        <path d="M116.988837,161.003232 L113.163555,155.60617 C113.163555,155.60617 85.2182286,152.819264 81.300921,129.64401 C81.300921,129.64401 80.6001582,154.905398 116.988837,161.003232" id="path38" fill="#0C744B"></path>
                        <path d="M152.496432,185.454937 L140.25267,165.937885 C140.25267,165.937885 115.944221,174.540075 94.3772669,162.78379 C72.8072033,151.023148 64.4198125,133.221928 64.2705817,118.681227 C64.2705817,118.681227 58.8249646,149.668903 88.8495106,170.26014 C116.118946,188.963774 146.091323,181.960414 146.091323,181.960414 L152.496432,185.454937" id="path40" fill="#1E5E3E"></path>
                        <path d="M140.25267,165.937885 C140.25267,165.937885 108.755029,178.683092 80.6051326,153.258647 C80.6051326,153.258647 102.838029,180.692054 141.325887,170.960289 L144.066137,171.875774 L140.25267,165.937885" id="path42" fill="#FFFFFF"></path>
                        <path d="M111.502741,127.28155 C111.502741,127.28155 113.076504,112.740226 133.051042,111.604428 L141.876176,89.1766221 C141.876176,89.1766221 136.459721,89.5855093 128.585311,91.1451309 L125.771067,108.556134 C125.771067,108.556134 108.399984,111.69467 111.502741,127.28155" id="path44" fill="#FFFFFF"></path>
                        <path d="M169.164265,69.2394805 C169.159291,55.2726523 169.1624,41.3056375 169.164265,27.3361955 L169.164265,26.2422199 L168.250227,26.5825858 C165.19597,27.7195661 162.082022,28.8019037 159.00165,29.790888 L158.532817,29.942058 L158.532817,70.7766973 L159.265291,70.7175735 C162.364316,70.4617856 165.457124,70.1923059 168.546201,69.915358 L169.164265,69.859346 L169.164265,69.2394805 Z M171.560041,83.5866297 C171.398996,83.5866297 171.240438,83.5860074 171.079393,83.5828956 C166.674598,83.5219048 161.945849,83.48892 156.620176,83.4876753 C151.604156,83.4739835 147.965413,82.4340283 145.806541,80.3976828 C143.659484,78.3557362 142.614246,75.0398288 142.614246,70.2576532 L142.614246,36.2154584 C142.614246,31.3591603 143.664458,27.6736364 145.828304,24.9464768 C147.910695,22.3194543 151.523945,20.0385855 156.864541,17.9704999 C161.751849,16.073562 166.632938,13.9246947 171.368528,11.5889342 C176.629534,8.97622581 179.933752,8.36264604 181.804111,9.66523501 C183.191335,10.6079783 184.834739,13.4042192 184.834739,21.3929544 L184.834739,66.2297718 C184.834739,72.7458284 183.77147,77.3643247 181.666072,79.961412 C179.705553,82.4010435 176.400714,83.5866297 171.560041,83.5866297 L171.560041,83.5866297 Z" id="path46" fill="#1E5E3E"></path>
                        <path d="M184.834739,21.3929544 C184.834739,13.4042192 183.191335,10.6079783 181.804111,9.66523501 C179.933752,8.36264604 176.629534,8.97622581 171.368528,11.5889342 C166.632938,13.9246947 161.751849,16.073562 156.864541,17.9704999 C151.523945,20.0385855 147.910695,22.3194543 145.828304,24.9464768 C143.664458,27.6736364 142.614246,31.3591603 142.614246,36.2154584 L142.614246,70.2576532 C142.614246,75.0398288 143.659484,78.3557362 145.806541,80.3976828 C147.965413,82.4340283 151.604156,83.4739835 156.620176,83.4876753 C161.945849,83.48892 166.674598,83.5219048 171.079393,83.5828956 C171.240438,83.5860074 171.398996,83.5866297 171.560041,83.5866297 C176.400714,83.5866297 179.705553,82.4010435 181.666072,79.961412 C183.77147,77.3643247 184.834739,72.7458284 184.834739,66.2297718 L184.834739,21.3929544 Z M182.720015,80.815283 C180.491502,83.5928533 176.839079,84.9452306 171.560041,84.9452306 C171.395265,84.9452306 171.224893,84.9433636 171.058874,84.9402518 C166.660919,84.8798834 161.938387,84.8481433 156.615823,84.8450315 C151.242272,84.8307173 147.292631,83.6662912 144.872605,81.3828708 C142.441387,79.0695773 141.256246,75.4306678 141.256246,70.2576532 L141.256246,36.2154584 C141.256246,31.0407012 142.405323,27.0761133 144.763791,24.0999496 C147.000387,21.2796858 150.800176,18.8610277 156.376432,16.7027006 C161.225188,14.8212593 166.067727,12.6892578 170.767874,10.3709856 C174.446412,8.54424923 177.275579,7.65621091 179.418284,7.65621091 C180.66063,7.65621091 181.727008,7.95618601 182.573271,8.54424923 C185.007598,10.2046923 186.193361,14.406273 186.193361,21.3929544 L186.193361,66.2297718 C186.193361,73.0638518 185.025008,77.9717431 182.720015,80.815283 L182.720015,80.815283 Z" id="path48" fill="#FFFFFF"></path>
                        <path d="M116.624465,83.6725147 C112.361439,76.5770456 108.030017,69.541945 103.83601,62.7352486 L101.18903,58.4323486 L100.611382,59.3658188 C97.7318501,64.0060975 94.8591579,68.5928536 91.9777605,73.1839663 C89.7840683,76.682846 87.5860235,80.1842151 85.392953,83.7117231 C78.9859788,83.6893183 72.574652,83.6513546 66.1776266,83.6121463 L66.1776266,72.7607649 C67.3534406,72.8111757 68.5267675,72.8603417 69.7007162,72.9101301 L70.4064534,72.9393808 L70.4064534,37.7757023 L69.8207226,37.6991527 C68.610088,37.5347887 67.3951009,37.3563595 66.1776266,37.1682216 L66.1776266,26.3387472 C72.4391008,27.541137 78.7957096,28.3837434 85.0901389,28.8449084 L85.0901389,60.751181 L87.7184658,56.6865806 C92.0455362,49.9957667 96.5143758,43.0844525 100.917927,36.0761753 C103.357228,39.9248185 105.791555,43.7379252 108.22526,47.5474223 C110.499164,51.1053012 112.767472,54.6583257 115.03951,58.2405387 L116.290561,60.2140886 L116.290561,28.1311917 C122.710593,27.3656329 129.149901,26.205501 135.447439,24.6827228 L135.447439,35.8357596 C134.257945,36.0662177 133.065965,36.2896431 131.875849,36.49919 L131.31499,36.6000738 L131.31499,72.5964632 L132.031298,72.560989 C133.172913,72.4975088 134.310176,72.4377627 135.447439,72.3730378 L135.447439,83.5592461 L133.726933,83.5704485 C128.036888,83.6096569 122.333785,83.6482429 116.624465,83.6725147" id="path50" fill="#1E5E3E"></path>
                        <path d="M135.447439,72.3730378 C134.310176,72.4377627 133.172913,72.4975088 132.031298,72.560989 L131.31499,72.5964632 L131.31499,36.6000738 L131.875849,36.49919 C133.065965,36.2896431 134.257945,36.0662177 135.447439,35.8357596 L135.447439,24.6827228 C129.149901,26.205501 122.710593,27.3656329 116.290561,28.1311917 L116.290561,60.2140886 L115.03951,58.2405387 C112.767472,54.6583257 110.499164,51.1053012 108.22526,47.5474223 C105.791555,43.7379252 103.357228,39.9248185 100.917927,36.0761753 C96.5143758,43.0844525 92.0455362,49.9957667 87.7184658,56.6865806 L85.0901389,60.751181 L85.0901389,28.8449084 C78.7957096,28.3837434 72.4391008,27.541137 66.1776266,26.3387472 L66.1776266,37.1682216 C67.3951009,37.3563595 68.610088,37.5347887 69.8207226,37.6991527 L70.4064534,37.7757023 L70.4064534,72.9393808 L69.7007162,72.9101301 C68.5267675,72.8603417 67.3534406,72.8111757 66.1776266,72.7607649 L66.1776266,83.6121463 C72.574652,83.6513546 78.9859788,83.6893183 85.392953,83.7117231 C87.5860235,80.1842151 89.7840683,76.682846 91.9777605,73.1839663 C94.8591579,68.5928536 97.7318501,64.0060975 100.611382,59.3658188 L101.18903,58.4323486 L103.83601,62.7352486 C108.030017,69.541945 112.361439,76.5770456 116.624465,83.6725147 C122.333785,83.6482429 128.036888,83.6096569 133.726933,83.5704485 L135.447439,83.5592461 L135.447439,72.3730378 Z M116.242683,85.033605 L115.856548,85.0342274 L115.659439,84.7037569 C111.338587,77.5012428 106.938767,70.3553629 102.681337,63.4466004 L101.184677,61.0138148 C98.5010104,65.3391818 95.8148566,69.6222288 93.1287028,73.9046534 C90.8691003,77.5099557 88.6070106,81.1177475 86.3424337,84.7523006 L86.144703,85.0740581 L85.7641645,85.0728134 C79.0046326,85.0472969 72.24137,85.0062214 65.497383,84.9645236 L64.8227356,84.9620342 L64.8227356,71.3386838 L65.5340689,71.3729133 C66.706774,71.4233241 67.8794791,71.4762243 69.049697,71.5241456 L69.049697,38.9625955 C67.8322227,38.7958044 66.6135047,38.6134543 65.3966522,38.4228893 L64.8227356,38.3322121 L64.8227356,24.6900044 L65.6329343,24.8494517 C72.3072802,26.1636787 79.0979019,27.0687695 85.8145299,27.537963 L86.4468953,27.5822124 L86.4468953,56.1512309 L86.5743632,55.9497123 C91.0898375,48.9718061 95.7570297,41.7556624 100.34401,34.4429914 L100.91544,33.5293743 L101.489356,34.4393195 C104.118927,38.5983934 106.744767,42.7078655 109.371228,46.8147237 C111.222933,49.7205614 113.077747,52.6237851 114.932561,55.5408251 L114.932561,26.9248811 L115.534459,26.8546172 C122.381664,26.0611146 129.254984,24.8188318 135.96415,23.1572063 L136.806682,22.948095 L136.806682,36.951082 L136.262612,37.0612388 C135.066279,37.2982938 133.86808,37.5236486 132.674856,37.7366184 L132.674856,71.1644244 C133.81274,71.1034336 134.951868,71.0411981 136.089131,70.9770956 L136.806682,70.9329084 L136.806682,84.9097564 L133.734394,84.9290494 C127.915016,84.9695025 122.081958,85.0080885 116.242683,85.033605 L116.242683,85.033605 Z" id="path52" fill="#FFFFFF"></path>
                    </g>
                </g>
            </g>
        </g>
    </g>
</svg>