<?xml version="1.0" encoding="UTF-8"?>
<svg width="200px" height="200px" viewBox="0 0 200 200" version="1.1" xmlns="http://www.w3.org/2000/svg" xmlns:xlink="http://www.w3.org/1999/xlink">
    <!-- Generator: Sketch 54.1 (76490) - https://sketchapp.com -->
    <title>newberry</title>
    <desc>Created with Sketch.</desc>
    <g id="newberry" stroke="none" stroke-width="1" fill="none" fill-rule="evenodd">
        <g id="newberry_BGD" fill="#FFFFFF">
            <g id="newberry" transform="translate(0.000000, 20.000000)">
                <g id="g10" transform="translate(100.000000, 80.923372) scale(-1, 1) rotate(-180.000000) translate(-100.000000, -80.923372) translate(0.000000, 0.923372)" fill-rule="nonzero">
                    <g id="g12">
                        <path d="M106.608937,18.2303444 C103.824774,23.5969343 99.4288609,27.766998 94.858746,31.8197182 C93.6086822,32.9328217 91.9591292,33.8415828 90.406128,33.2026045 C88.9001255,32.5899864 87.8303937,31.412413 86.0091933,31.2051078 C84.7974436,31.0666148 83.5719008,30.3100886 83.6408664,29.0846481 C84.1741997,19.5270493 82.0827566,9.52286055 79.4309048,2.36111361 C79.0104706,1.23583139 79.8395893,0.041307483 81.040611,0.041307483 L86.5113644,0.041307483 C88.1420157,0.0367177513 89.769091,0.379150948 91.202552,1.17915706 C96.9532543,4.40353501 101.886587,8.68153235 106.110342,13.8749422 C107.110598,15.1105488 107.33895,16.8251337 106.608937,18.2303444" id="path16"></path>
                        <path d="M131.747634,42.3587218 C130.830648,43.3281215 129.203062,43.1898329 128.615067,41.9815571 C123.005872,30.3137157 138.045974,23.5621961 142.377008,14.4566024 C142.723368,13.7466152 142.771899,12.9400252 142.608936,12.1783394 C141.857979,8.65598957 141.268962,5.5375733 140.871005,2.52873557 C140.701401,1.20310597 141.738438,0.0464958354 143.062576,0.013769144 C143.083521,0.013769144 143.10038,0.0101772156 143.121325,0.0101772156 L152.417365,0.00718390787 C152.428093,0.00718390787 152.441886,0.0101772156 152.452103,0.0101772156 C153.326688,0.0377155035 153.755807,1.05603573 153.140737,1.69500379 C142.429115,12.600766 142.307532,31.334814 131.747634,42.3587218" id="path18"></path>
                        <path d="M70.7928463,29.5847247 C69.9269459,19.9964235 65.1489128,10.2636013 63.3343535,1.37771644 C63.2485297,0.962441866 63.4390789,0.534804584 63.8022973,0.329063082 C64.174711,0.119532053 64.6053624,0.0536796921 65.0288617,0.0464958354 C65.0574696,0.0448994114 65.0860776,0.0448994114 65.1141746,0.0448994114 L65.82784,0.0448994114 C65.8503176,0.0448994114 65.873817,0.0448994114 65.8968055,0.0448994114 C66.826052,0.0520832682 67.7527442,0.176804082 68.5976994,0.55216346 C69.9616841,1.15820687 71.3307773,2.02705997 72.6794362,2.69835498 C74.0296278,3.36865381 75.1887593,4.5164852 75.345592,6.01731786 C76.3182612,15.449808 75.9203046,23.8615575 72.3785423,29.9463083 C71.9560646,30.6651333 70.8653878,30.4138945 70.7928463,29.5847247" id="path20"></path>
                        <path d="M132.385182,7.71034463 C132.212002,9.26344804 131.228605,10.6202296 129.826817,11.3403829 C127.122347,12.7392589 124.996676,14.5675603 122.604339,16.1947378 C121.669473,16.8287097 120.512896,16.0041375 120.336651,14.8786714 C119.024263,7.06457198 110.749423,4.73299605 103.617367,1.17915706 C103.028861,0.889409939 103.333331,0.0331258229 103.980585,0.0331258229 L130.844441,0.0189575474 C132.146101,0.0153655679 133.233202,1.12487864 133.063598,2.41678666 C132.821453,4.17165762 132.578796,5.92234979 132.385182,7.71034463" id="path22"></path>
                        <path d="M197.042652,159.540226 L132.596676,159.540226 C131.194377,159.540226 130.065386,158.413278 130.065386,157.010979 L130.065386,152.807659 C130.065386,151.284287 131.000252,149.913151 132.423496,149.359383 L151.967812,141.726178 C152.673815,141.448272 153.140737,140.759128 153.140737,139.997442 L153.140737,62.1803305 C153.140737,61.4738171 152.573176,60.9098324 151.877391,60.9098324 L151.150443,60.9098324 C150.357595,60.9098324 149.595909,61.2832679 149.128476,61.923881 L96.3959107,133.505999 L79.1366519,157.481988 C78.205362,158.776497 76.7131526,159.540226 75.1238806,159.540226 L4.1616755,159.540226 C2.76300887,159.540226 1.63433968,158.413278 1.63433968,157.010979 L1.63433968,152.807659 C1.63433968,151.284287 2.57243927,149.915194 3.99205609,149.362959 L21.8919535,142.473049 C22.6153251,142.196165 23.0829113,141.517238 23.0829113,140.756063 L23.0829113,19.6152741 C23.0829113,18.8531796 22.6153251,18.1681222 21.9057466,17.8911362 L2.36111361,10.2564493 C0.941890142,9.70268175 0,8.32853108 0,6.80515947 L0,2.60377005 C0,1.20509831 1.13405872,0.0760296277 2.53432433,0.0760296277 L52.3249029,0.0520832682 C53.9330766,0.0520832682 55.5412502,0.711606623 56.3673038,2.09291438 C60.0423995,8.21399724 60.3749666,18.801481 59.6097048,24.6871003 C57.7159628,39.0038304 35.2217105,45.1805864 34.5428344,59.3777763 C35.3218893,87.7006364 46.6954267,91.9902914 49.395963,117.527456 C49.468811,118.286076 50.0311099,118.943547 50.7842644,118.947123 C52.2901647,118.978286 52.4464866,118.008682 52.5501903,116.991057 C52.653894,115.916728 54.2257969,116.194122 54.4786704,117.246996 C55.1295005,119.923369 56.0122591,123.862577 59.2321824,124.067941 C60.0459755,124.119537 60.6482743,123.413535 60.8076613,122.623241 C63.6255412,109.287354 68.4745832,97.453382 76.4878653,87.9739442 C76.9936124,87.3542762 77.232182,86.349934 76.4725396,86.1149404 C75.6051067,85.8309046 74.1854388,86.2600234 72.8388232,86.5890144 C71.5734337,86.9006364 70.5088105,85.6715177 70.8618118,84.4112367 C75.8855664,66.2692193 109.780329,74.1251578 120.045463,59.8605349 C120.928733,58.6349921 122.399997,57.9386959 123.88863,58.1675592 C126.55121,58.5793089 129.216855,58.2676869 132.042398,56.6094494 C132.800508,56.1731787 133.444697,55.577521 134.06794,54.965005 C147.317493,41.8049543 167.855424,25.3420172 157.33384,2.25754273 C156.849038,1.21328222 157.593355,0.00718390787 158.749932,0.00718390787 L173.959638,8.47032947e-22 C175.355296,-0.00199552996 176.493993,1.1356577 176.493993,2.52873557 L176.493993,139.997442 C176.493993,140.759128 176.965002,141.448272 177.67458,141.726178 L197.215832,149.359383 C198.638565,149.913151 199.573431,151.284287 199.573431,152.807659 L199.573431,157.010979 C199.573431,158.413278 198.431157,159.540226 197.042652,159.540226" id="path24"></path>
                        <polyline id="path26" points="182.514427 4.8229986 184.341247 4.8229986 184.341247 0 185.485564 0 185.485564 4.8229986 187.345078 4.8229986 187.345078 5.78186448 182.514427 5.78186448 182.514427 4.8229986"></polyline>
                        <path d="M192.627837,5.78186448 L191.630647,2.91846225 C191.506509,2.50838308 191.378284,2.00111872 191.222473,1.48667174 L191.215832,1.48667174 C191.05951,2.08732562 190.973175,2.50838308 190.82094,2.95278664 L189.827326,5.78186448 L188.103188,5.78186448 L187.684286,0 L188.78518,0 L188.989012,3.39659251 C189.017109,3.93299096 189.041119,4.49033961 189.041119,5.01715952 L189.103444,5.01715952 C189.230136,4.50929746 189.404848,3.80188496 189.497824,3.37883006 L190.547122,0.0919938674 L191.732818,0.0919938674 L192.780583,3.30120554 C192.929242,3.82582877 193.116215,4.50929746 193.26845,5.01715952 L193.327198,5.01715952 C193.356828,4.4005414 193.356828,3.84319275 193.374197,3.39659251 L193.587224,0 L194.730008,0 L194.286074,5.78186448 L192.627837,5.78186448" id="path28"></path>
                    </g>
                </g>
            </g>
        </g>
    </g>
</svg>