<?xml version="1.0" encoding="UTF-8"?>
<svg width="200px" height="200px" viewBox="0 0 200 200" version="1.1" xmlns="http://www.w3.org/2000/svg" xmlns:xlink="http://www.w3.org/1999/xlink">
    <!-- Generator: Sketch 54.1 (76490) - https://sketchapp.com -->
    <title>north-greenville</title>
    <desc>Created with Sketch.</desc>
    <g id="north-greenville" stroke="none" stroke-width="1" fill="none" fill-rule="evenodd">
        <g id="north-greenville_BGD" transform="translate(0.000000, 0.000000)">
            <g id="north-greenville" transform="translate(0.000000, 61.000000)">
                <g id="g10" transform="translate(99.999998, 39.428185) scale(-1, 1) rotate(-180.000000) translate(-99.999998, -39.428185) translate(0.000000, 0.132793)" fill-rule="nonzero">
                    <g id="g12">
                        <path d="M159.486446,43.8672076 L160.590782,43.8672076 L171.837123,70.4495917 L170.850402,71.5620578 L159.486446,43.8672076 Z M166.078316,28.4246605 L143.183736,28.4246605 L135.33604,37.7243893 L147.55501,67.9932232 L139.830078,78.5195102 L199.864223,78.5195102 L193.340104,63.0769632 L190.152028,63.0769632 L180.105687,38.3119232 L180.059887,38.2173432 C178.849589,35.7108392 177.067475,33.5143623 174.763139,31.6886171 C171.986717,29.5184274 169.070456,28.4246605 166.078316,28.4246605 L166.078316,28.4246605 Z" id="path14" fill="#231F20"></path>
                        <path d="M122.811379,58.947966 L124.015986,58.947966 L125.670187,63.0769632 L124.497016,63.0769632 L122.811379,58.947966 Z M123.367206,28.4246605 L100.171542,28.4246605 L92.3520302,37.9176142 L105.470458,70.1195104 C106.510295,72.7211364 108.750404,74.8764209 112.120322,76.5059601 C114.888073,77.8425455 117.736853,78.5195102 120.58997,78.5195102 L142.189156,78.5195102 L150.135227,69.272627 L145.826013,58.947966 L145.956907,58.947966 L137.423032,38.399457 C136.359075,35.8086712 134.556094,33.5200534 132.069102,31.6089423 C129.311108,29.4953922 126.384279,28.4246605 123.367206,28.4246605 L123.367206,28.4246605 Z" id="path16" fill="#231F20"></path>
                        <path d="M79.4081281,28.4246605 L70.5132774,28.4246605 L66.9411907,43.2899718 L60.8766922,28.4246605 L31.1476957,28.4246605 L45.6569094,42.5742537 L55.9113807,67.8975593 L46.31653,78.5195102 L78.7159872,78.5195102 L82.3682906,64.1249306 L88.0861767,78.5195102 L113.196474,78.5195102 L106.501081,62.6956624 L103.371271,62.6956624 L93.8235749,39.1346874 C92.1509462,35.3482376 90.5994557,32.9111103 88.9428162,31.4691049 C86.6710005,29.4490508 83.4631415,28.4246605 79.4081281,28.4246605" id="path18" fill="#231F20"></path>
                        <path d="M166.046608,30.9991862 L144.358804,30.9991862 L138.285904,38.199186 L150.455281,68.3598899 L144.891324,75.9449846 L169.832516,75.9449846 L155.621405,41.2926819 L162.267205,41.2926819 L174.804332,70.9428167 L170.369643,75.9449846 L195.935225,75.9449846 L191.588613,65.6514889 L188.375063,65.6514889 L177.704332,39.3371264 C176.664223,37.1826549 175.124928,35.288346 173.129535,33.7067742 C170.830619,31.9092133 168.448776,30.9991862 166.046608,30.9991862" id="path20" fill="#FFFFFF"></path>
                        <path d="M144.988614,32.3541997 L166.046608,32.3541997 C168.139291,32.3541997 170.240375,33.1674788 172.291324,34.7712728 C174.115714,36.2173433 175.524386,37.9457985 176.474521,39.9067741 L187.462597,67.0065024 L190.689968,67.0065024 L193.892136,74.589971 L173.381838,74.589971 L176.385361,71.2021662 L163.165308,39.9376684 L153.60108,39.9376684 L167.812191,74.589971 L147.566121,74.589971 L151.994305,68.5528438 L139.847964,38.4490505 L144.988614,32.3541997" id="path22" fill="#231F20"></path>
                        <path d="M123.357178,30.9991862 L101.386989,30.9991862 L95.3197808,38.3688337 L107.85203,69.1482368 C108.651759,71.1498627 110.463683,72.8468816 113.236041,74.188345 C115.648778,75.3539277 118.120051,75.9449846 120.581027,75.9449846 L140.988343,75.9449846 L147.125742,68.7989143 L143.904603,61.0764212 L127.629536,61.0764212 L129.461514,65.6514889 L122.757721,65.6514889 L112.818425,41.2926819 L119.516528,41.2926819 L121.791867,46.8425463 L117.735227,46.8425463 L121.682924,56.3734403 L142.080484,56.3734403 L135.029807,39.3869909 C134.137395,37.2124652 132.608669,35.2818419 130.48726,33.6509477 C128.192409,31.8910561 125.793764,30.9991862 123.357178,30.9991862" id="path24" fill="#FFFFFF"></path>
                        <path d="M102.026556,32.3541997 L123.357178,32.3541997 C125.488886,32.3541997 127.610024,33.1520317 129.662056,34.7254734 C131.590783,36.2086712 132.975877,37.9512186 133.777503,39.903793 L140.051216,55.0184268 L122.588615,55.0184268 L119.763141,48.1975598 L123.812192,48.1975598 L120.4252,39.9376684 L110.802165,39.9376684 L121.847151,67.0065024 L131.463953,67.0065024 L129.631975,62.4314348 L143.001622,62.4314348 L145.553655,68.5495918 L140.36585,74.589971 L120.581027,74.589971 C118.325742,74.589971 116.052843,74.0444426 113.826013,72.9682909 C111.367748,71.779131 109.780756,70.3233045 109.108398,68.6411907 L96.8794014,38.6062321 L102.026556,32.3541997" id="path26" fill="#231F20"></path>
                        <path d="M79.4203232,30.9991862 L72.5577218,30.9991862 L67.5948493,51.6626003 L59.1693752,30.9991862 L37.5084001,30.9991862 L47.8685625,41.107587 L58.9254728,68.4265566 L52.1371261,75.9449846 L76.7270984,75.9449846 L81.8382093,55.7897005 L89.8403772,75.9449846 L109.30894,75.9449846 L104.794306,65.2701881 L101.637667,65.2701881 L91.4834665,40.1945789 C89.9769625,36.7815709 88.5937647,34.5650398 87.2468813,33.3986442 C85.4691036,31.8089423 82.8330603,30.9991862 79.4203232,30.9991862" id="path28" fill="#FFFFFF"></path>
                        <path d="M73.6257434,32.3541997 L79.4203232,32.3541997 C82.4896998,32.3541997 84.8219491,33.0479667 86.3517594,34.4157173 C87.5354992,35.4409205 88.8395642,37.5604327 90.2354991,40.7224922 L100.724659,66.6252016 L103.896203,66.6252016 L107.264767,74.589971 L90.7604313,74.589971 L81.5533855,51.4005407 L75.6726268,74.589971 L55.1861775,74.589971 L60.4997275,68.7046053 L49.018156,40.3360424 L40.8373974,32.3541997 L58.2585351,32.3541997 L67.9295376,56.0718143 L73.6257434,32.3541997" id="path30" fill="#231F20"></path>
                        <path d="M15.7851758,25.9531701 C16.0900538,26.2685359 16.428482,26.5122216 16.8158261,26.5636579 L16.8158261,26.6208394 L33.5550127,27.1626009 L34.682926,27.0441728 L34.688075,19.4281296 L33.5346875,19.3073437 L16.8158261,19.8488342 L16.8158261,19.9062055 C16.4908397,19.9496201 16.1965308,20.1233328 15.926585,20.3566391 C15.1995389,20.6953924 14.7478316,25.1233327 15.7851758,25.9531701" id="path32" fill="#231F20"></path>
                        <path d="M17.5513546,21.8585902 L32.6541997,21.3694033 L32.6517607,25.0997284 L17.5499725,24.6110563 L17.2949589,24.5769913 C17.1360429,23.9918964 17.2092137,22.5995116 17.3842001,21.8807041 L17.5513546,21.8585902 Z M33.6081292,17.2712462 L14.7833059,17.8810023 L14.7833059,18.6661513 C14.7678587,18.6783193 14.7523845,18.6902976 14.7369373,18.7026825 C13.9234956,19.2587529 13.4419509,20.352845 13.2321406,22.1018694 C13.0567205,23.5645252 12.9828181,26.1649858 14.3937395,27.4368557 C14.5209752,27.563956 14.6509752,27.6807581 14.7833059,27.7872622 L14.7833059,28.5886172 L33.6287254,29.1986443 L36.7143622,28.874254 L36.7216793,17.5978044 L33.6081292,17.2712462 L33.6081292,17.2712462 Z" id="path34" fill="#231F20"></path>
                        <path d="M34.6799449,27.0457446 L34.586178,33.8040642 C34.586178,33.8040642 35.2728988,39.9579936 35.5046062,41.5902429 C35.9073162,44.4238471 37.5214083,43.8414623 37.5214083,43.8414623 C37.5214083,43.8414623 38.295392,43.7008119 39.7520315,43.2891588 C41.2086711,42.8775057 40.2940369,40.9856358 40.2940369,40.9856358 C40.2940369,40.9856358 38.2615167,35.2945791 38.1260153,33.3975601 C38.0525736,32.3685629 38.6566386,29.3102974 39.2249313,26.7233056 L44.0585355,26.3805142 C45.816801,27.9243895 47.8384812,29.3325196 49.3726275,29.3325196 C50.62195,29.3325196 164.277774,26.8935224 164.277774,26.8935224 L177.973166,23.0463409 L164.277774,19.3054467 C164.277774,19.3054467 50.62195,16.8664223 49.3726275,16.8664223 C47.7555544,16.8664223 45.6037929,18.431463 43.7826547,20.0705144 L39.3479665,19.7564223 C38.7476955,17.0693492 38.0471535,13.6303791 38.1260153,12.526043 C38.2615167,10.6290241 40.2940369,4.93796736 40.2940369,4.93796736 C40.2940369,4.93796736 41.2086711,3.04601618 39.7520315,2.63444167 C38.295392,2.22275062 37.5214083,2.0818509 37.5214083,2.0818509 C37.5214083,2.0818509 35.9073162,1.49951216 35.5046062,4.33327902 C35.2728988,5.9653386 34.586178,12.119539 34.586178,12.119539 L34.687533,19.4265578 L34.6799449,27.0457446" id="path36" fill="#231F20"></path>
                        <path d="M37.6029801,41.7460694 C37.5734408,41.6330613 37.5428175,41.4878038 37.5168012,41.304064 C37.4233053,40.6449854 37.2509476,39.2056901 37.0810289,37.7457985 C37.5799449,39.3910559 38.1243893,40.9506765 38.3428175,41.5650396 C38.0395654,41.6433594 37.792411,41.702709 37.6029801,41.7460694 L37.6029801,41.7460694 Z M36.6864489,28.9292676 L36.7121942,27.0740102 L36.7200533,19.4135225 L36.6864489,16.9897557 C36.8596197,17.8742272 37.0810289,18.931761 37.3642267,20.1994304 L37.694308,21.6769371 L44.5002699,22.158807 L45.1422753,21.5813545 C48.0392942,18.9740104 49.2444432,18.8989426 49.3726275,18.8989426 C50.8986437,18.9062597 158.011649,21.2040645 163.983736,21.3322488 L170.359887,23.0737664 L163.976148,24.866937 C157.930619,24.9967202 50.8981017,27.2926822 49.3693755,27.2999993 C49.2509473,27.2999993 48.1081289,27.2314356 45.3994569,24.8533869 L44.7615165,24.2929533 L37.5655817,24.8031972 L37.2398365,26.2872622 C37.0159882,27.3054194 36.8338744,28.1783191 36.6864489,28.9292676 Z M37.0810289,8.17783177 C37.2509476,6.71810281 37.4233053,5.27831965 37.5170722,4.61921398 C37.5430885,4.43555544 37.5734408,4.2905148 37.6029801,4.17745247 C37.79214,4.2208671 38.0395654,4.2802438 38.3428175,4.35859068 C38.1246603,4.9726828 37.5799449,6.53222206 37.0810289,8.17783177 Z M37.1802159,0 C36.4498636,0 34.0260154,0.291856361 33.4921401,4.04715437 C33.2588068,5.69105677 32.5943081,11.6417883 32.5661238,11.8940647 L32.5520317,12.0205688 L32.6550127,19.4401079 L32.6474247,27.043956 L32.5520317,33.9029802 L32.5661238,34.0295384 C32.5943081,34.282113 33.2588068,40.2325193 33.4921401,41.8758797 C34.0260154,45.6317062 36.4498636,45.9233051 37.1802159,45.9233051 C37.5173432,45.9233051 37.797289,45.8723566 37.996205,45.8197821 C38.2785898,45.7636845 39.0579936,45.5975598 40.304606,45.2449853 C41.2330613,44.9826547 41.9506765,44.3794027 42.3249312,43.5468824 C42.9311642,42.1989149 42.4252022,40.7715437 42.1777767,40.2173432 C41.3739827,37.9555546 40.2319773,34.3544707 40.1533865,33.2528447 C40.1474245,33.1631428 40.1252022,32.3357715 40.8926819,28.6425467 L43.3726276,28.466937 C45.7289961,30.4154464 47.6970178,31.3650399 49.3726275,31.3650399 C50.629267,31.3650399 159.679671,29.0252025 164.321405,28.9254735 L164.579129,28.9200535 L185.586174,23.0187257 L164.571812,17.2786446 L164.321405,17.2734684 C159.679671,17.1737394 50.629267,14.8339021 49.3726275,14.8339021 C47.6070449,14.8339021 45.5943078,15.838211 43.0802157,17.9832516 L41.0092131,17.8363139 C40.1238472,13.6760972 40.1468825,12.7682382 40.1533865,12.6707585 C40.2322483,11.5674794 41.3739827,7.96663937 42.1780477,5.70598902 C42.4254732,5.15181559 42.9311642,3.72439015 42.3249312,2.37667203 C41.9504055,1.54386988 41.2330613,0.940674773 40.304606,0.678566379 C39.0579936,0.326262864 38.2788608,0.159849318 37.996476,0.103849049 C37.79756,0.0509189689 37.5173432,0 37.1802159,0 L37.1802159,0 Z" id="path38" fill="#231F20"></path>
                        <path d="M12.819268,20.3552569 C11.880081,18.4528451 9.96972875,17.1352028 7.74008111,17.1352028 C4.58788606,17.1352028 2.03252027,19.7436038 2.03252027,22.9617609 C2.03252027,26.1797012 4.58788606,28.7883462 7.74008111,28.7883462 C9.81579921,28.7883462 11.6150133,27.6455278 12.6139021,25.9544438 C13.0567205,26.2698909 13.211707,20.1219507 12.819268,20.3552569" id="path40" fill="#231F20"></path>
                        <path d="M7.74008111,15.1026825 C3.47222214,15.1026825 0,18.6284819 0,22.9617609 C0,27.2951213 3.47222214,30.8208664 7.74008111,30.8208664 C10.2907857,30.8208664 12.6200539,29.570189 14.0712734,27.4485088 C14.789024,26.7328178 14.9060972,25.5070725 14.9610565,24.9327907 C15.0327097,24.1812731 15.0760159,23.1959344 15.0765308,22.2967474 C15.0767476,21.8645252 15.067127,21.2422759 15.0189427,20.7325469 C14.989295,20.4172895 14.8786717,19.7053925 14.4748235,19.1352299 C13.102249,16.6385091 10.5533331,15.1026825 7.74008111,15.1026825" id="path42" fill="#231F20"></path>
                        <path d="M34.6799449,27.0457446 L34.586178,33.8040642 C34.586178,33.8040642 35.2728988,39.9579936 35.5046062,41.5902429 C35.9073162,44.4238471 37.5214083,43.8414623 37.5214083,43.8414623 C37.5214083,43.8414623 38.295392,43.7008119 39.7520315,43.2891588 C41.2086711,42.8775057 40.2940369,40.9856358 40.2940369,40.9856358 C40.2940369,40.9856358 38.2615167,35.2945791 38.1260153,33.3975601 C38.0525736,32.3685629 38.6566386,29.3102974 39.2249313,26.7233056 L44.0585355,26.3805142 C45.816801,27.9243895 47.8384812,29.3325196 49.3726275,29.3325196 C50.62195,29.3325196 164.277774,26.8935224 164.277774,26.8935224 L177.96341,23.0994845 L177.936581,23.0994845 L177.96341,23.0991593 L164.277774,19.3054467 C164.277774,19.3054467 50.62195,16.8664223 49.3726275,16.8664223 C47.7555544,16.8664223 45.6037929,18.431463 43.7826547,20.0705144 L39.3479665,19.7564223 C38.7476955,17.0693492 38.0471535,13.6303791 38.1260153,12.526043 C38.2615167,10.6290241 40.2940369,4.93796736 40.2940369,4.93796736 C40.2940369,4.93796736 41.2086711,3.04601618 39.7520315,2.63444167 C38.295392,2.22275062 37.5214083,2.0818509 37.5214083,2.0818509 C37.5214083,2.0818509 35.9073162,1.49951216 35.5046062,4.33327902 C35.2728988,5.9653386 34.586178,12.119539 34.586178,12.119539 L34.687533,19.4265578 L34.6799449,27.0457446" id="path44" fill="#231F20"></path>
                        <path d="M20.725555,24.9016525 L18.1937123,19.9829534 L17.909051,19.9829534 L20.9869371,26.4317609 L24.6571268,26.562601 C24.6571268,26.562601 22.2776959,26.2352839 21.8522488,26.1268828 C21.3614629,26.0021674 20.725555,24.9016525 20.725555,24.9016525" id="path46" fill="#FFFFFF"></path>
                        <path d="M25.6036037,24.9888883 L22.9903517,19.9425198 L22.7465577,19.9425198 L25.8649858,26.5186714 L29.5352296,26.6498367 C29.5352296,26.6498367 27.1558259,26.3225197 26.7302974,26.2137934 C26.2395115,26.0891863 25.6036037,24.9888883 25.6036037,24.9888883" id="path48" fill="#FFFFFF"></path>
                        <path d="M30.4818421,25.0699723 L27.7872622,19.7363139 L27.5433597,19.7363139 L30.7430887,26.6002974 L34.4132783,26.7309207 C34.4132783,26.7309207 32.0338745,26.4034953 31.6084003,26.2954194 C31.1176144,26.170704 30.4818421,25.0699723 30.4818421,25.0699723" id="path50" fill="#FFFFFF"></path>
                        <path d="M39.9552836,42.8826548 L37.7195113,43.4246602 C37.7195113,43.4246602 36.7032511,43.8311642 36.2289964,42.4084 C35.7547417,40.9856358 35.1449856,34.4138203 35.1449856,34.4138203 L35.2127362,18.8311919 C35.2127362,18.8311919 36.0514896,32.7260154 36.1612457,34.481571 C36.2967471,36.6495926 36.7758798,40.8284543 37.1775058,41.4598906 C37.3013541,41.6544705 39.9552836,42.8826548 39.9552836,42.8826548" id="path52" fill="#FFFFFF"></path>
                        <polyline id="path54" fill="#231F20" points="35.0772349 18.9666933 35.0772349 12.123875 36.1612457 3.38403786 35.686991 12.0561244 35.890243 17.0019237 35.0772349 18.9666933"></polyline>
                        <path d="M39.6842809,5.75531151 C39.6842809,5.75531151 40.4295383,4.33254732 40.2262863,3.79054191 C40.0230342,3.2485365 39.7520315,3.18078583 39.7520315,3.18078583 L37.3130072,2.4355311 C37.3130072,2.4355311 39.4132781,3.65504056 39.4810288,3.99379394 C39.5487795,4.33254732 39.6842809,5.75531151 39.6842809,5.75531151" id="path56" fill="#231F20"></path>
                        <path d="M172.772082,23.5162596 L163.87127,25.9450129 L50.7826546,27.8420047 C49.0078579,27.8070454 46.1205951,26.758021 44.4945788,22.6929805 L172.772082,23.5162596" id="path58" fill="#FFFFFF"></path>
                        <path d="M12.819268,20.3552569 C11.880081,18.4528451 9.96972875,17.1352028 7.74008111,17.1352028 C4.58788606,17.1352028 2.03252027,19.7436038 2.03252027,22.9617609 C2.03252027,26.1797012 4.58788606,28.7883462 7.74008111,28.7883462 C9.81579921,28.7883462 11.6150133,27.6455278 12.6139021,25.9544438 C13.0567205,26.2698909 13.211707,20.1219507 12.819268,20.3552569" id="path60" fill="#231F20"></path>
                        <path d="M6.39999984,20.443658 L7.10948492,20.443658 C7.10948492,20.443658 7.1681299,20.443658 7.1681299,20.5021946 L7.1681299,22.4761783 L11.5810295,22.4761783 C11.5810295,22.4761783 11.6396745,22.4761783 11.6396745,22.5347149 L11.6396745,23.2442 C11.6396745,23.2442 11.6396745,23.3027365 11.5810295,23.3027365 L7.1681299,23.3027365 L7.1681299,25.2767202 C7.1681299,25.2767202 7.1681299,25.3352568 7.10948492,25.3352568 L6.39999984,25.3352568 C6.39999984,25.3352568 6.34146326,25.3352568 6.34146326,25.2767202 L6.34146326,23.3027365 L4.24552835,23.3027365 C4.24552835,23.3027365 4.18710017,23.3027365 4.18710017,23.2442 L4.18710017,22.5347149 C4.18710017,22.5347149 4.18710017,22.4761783 4.24552835,22.4761783 L6.34146326,22.4761783 L6.34146326,20.5021946 C6.34146326,20.5021946 6.34146326,20.443658 6.39999984,20.443658" id="path62" fill="#FFFFFF"></path>
                        <path d="M6.47696461,20.5791594 L7.03262855,20.5791594 L7.03262855,22.6116797 L11.5041732,22.6116797 L11.5041732,23.1672352 L7.03262855,23.1672352 L7.03262855,25.1997555 L6.47696461,25.1997555 L6.47696461,23.1672352 L4.32260152,23.1672352 L4.32260152,22.6116797 L6.47696461,22.6116797 L6.47696461,20.5791594 Z M7.10948492,20.3081567 L6.39999984,20.3081567 C6.27859063,20.3081567 6.2059619,20.4068288 6.2059619,20.5021946 L6.2059619,22.3406769 L4.24552835,22.3406769 C4.12411914,22.3406769 4.05159881,22.439349 4.05159881,22.5347149 L4.05159881,23.2442 C4.05159881,23.3656092 4.1501625,23.4382379 4.24552835,23.4382379 L6.2059619,23.4382379 L6.2059619,25.2767202 C6.2059619,25.3981294 6.30463399,25.4707582 6.39999984,25.4707582 L7.10948492,25.4707582 C7.23089413,25.4707582 7.30363125,25.3720861 7.30363125,25.2767202 L7.30363125,23.4382379 L11.5810295,23.4382379 C11.7024387,23.4382379 11.7751759,23.3395658 11.7751759,23.2442 L11.7751759,22.5347149 C11.7751759,22.4133057 11.6763954,22.3406769 11.5810295,22.3406769 L7.30363125,22.3406769 L7.30363125,20.5021946 C7.30363125,20.3807854 7.20485077,20.3081567 7.10948492,20.3081567 L7.10948492,20.3081567 Z" id="path64" fill="#FFFFFF"></path>
                        <path d="M12.7472897,20.9384548 C11.9707043,18.9915713 10.0763141,17.6116798 7.85219493,17.6116798 C4.93734405,17.6116798 2.57452568,19.9747962 2.57452568,22.8894574 C2.57452568,23.8048233 2.82869912,24.6523571 3.23869911,25.4030075 C2.9975338,24.7986444 2.85601619,24.1430617 2.85601619,23.45233 C2.85601619,20.5376689 5.21891586,18.1747421 8.13379383,18.1747421 C10.1332789,18.1747421 11.8520322,19.2997285 12.7472897,20.9384548" id="path66" fill="#FFFFFF"></path>
                        <path d="M12.7472897,24.9216525 C11.9707043,26.8685359 10.0763141,28.2485088 7.85219493,28.2485088 C4.93734405,28.2485088 2.57452568,25.8854194 2.57452568,22.9707582 C2.57452568,22.055284 2.82869912,21.2078585 3.23869911,20.4572082 C2.9975338,21.0615713 2.85601619,21.7170455 2.85601619,22.4079127 C2.85601619,25.3224384 5.21891586,27.6856362 8.13379383,27.6856362 C10.1332789,27.6856362 11.8520322,26.5604871 12.7472897,24.9216525" id="path68" fill="#231F20"></path>
                        <path d="M39.2777768,26.4192676 C39.2777768,26.4192676 39.6842809,23.5059886 39.6842809,22.9639832 C39.6842809,22.4219778 39.4132781,20.1184548 39.4132781,20.1184548 L43.8848228,20.3217068 C43.8848228,20.3217068 41.9200532,20.6604602 41.107045,21.6767203 C40.2940369,22.6929805 40.3617876,24.5222487 40.1585356,25.3352568 C39.9552836,26.1482649 39.2777768,26.4192676 39.2777768,26.4192676" id="path70" fill="#231F20"></path>
                    </g>
                </g>
            </g>
        </g>
    </g>
</svg>