<?xml version="1.0" encoding="UTF-8"?>
<svg width="200px" height="200px" viewBox="0 0 200 200" version="1.1" xmlns="http://www.w3.org/2000/svg" xmlns:xlink="http://www.w3.org/1999/xlink">
    <!-- Generator: Sketch 54.1 (76490) - https://sketchapp.com -->
    <title>rochester-inst</title>
    <desc>Created with Sketch.</desc>
    <g id="rochester-inst" stroke="none" stroke-width="1" fill="none" fill-rule="evenodd">
        <g id="rochester-inst_BGL">
            <g id="rochester-inst" transform="translate(0.000000, 9.000000)">
                <g id="g10" transform="translate(100.000000, 91.500000) scale(-1, 1) rotate(-180.000000) translate(-100.000000, -91.500000) ">
                    <g id="g12">
                        <path d="M174.254912,59.7425272 C175.694503,57.5367546 176.269727,54.9301647 176.520046,53.0627828 C176.782626,51.1142771 176.714171,48.3393091 176.601783,46.0464867 L176.587479,45.7410972 L176.745844,45.4837281 C176.949165,45.1556566 177.13716,44.8296285 177.29246,44.5282237 C177.992332,43.1568827 178.913916,40.9051331 178.988501,38.1577513 C179.090672,34.1774704 177.699101,28.8051078 173.538692,25.4182369 C172.944056,24.9337414 172.395397,24.5118768 171.905998,24.1555039 L171.593354,23.7691948 C170.884286,22.1954528 169.809446,20.0870493 168.306509,17.8688118 C165.398718,13.5899869 160.236011,7.96815306 152.176752,6.19971377 C149.943291,5.70921059 138.004594,1.52339204 133.687863,0 L134.274325,3.53288369 L129.38748,2.24058232 L129.609191,10.1947686 L128.940992,10.4318771 C128.481222,10.5922858 128.010213,10.77507 127.534096,10.9773688 C124.057212,12.4608937 119.687353,15.352439 117.422219,20.8297313 C116.737672,22.4856189 116.233968,23.8130262 115.821197,24.9565256 L115.658745,25.4110849 L107.860022,27.8527707 C100.791823,29.0074067 94.1741987,27.4461296 91.9959102,25.3587733 C90.1363955,23.5747631 89.2526152,22.0976751 88.8480175,21.2547632 C88.683522,20.9091183 88.5793074,20.6314171 88.5231133,20.4373941 C88.5108528,20.3982626 88.4873534,20.2646227 88.4761146,20.0571132 L88.4515935,19.7812511 L88.2165999,17.8747377 L87.5269447,11.9775221 C85.6827558,12.879591 82.2641096,14.5581606 80.7652591,15.3368068 C78.7616832,16.3769089 76.2268173,17.7410979 74.7708787,18.7544312 C72.1512108,20.5730774 68.7125391,23.3492714 65.6414791,27.1080453 C64.5347614,28.4618128 63.5361408,29.8555293 62.6409173,31.2296288 L61.8531778,32.4393351 L61.0262047,31.2572151 C60.670547,30.7474833 60.401939,30.298952 60.2387717,29.9577004 C60.0731523,29.6124641 59.9685291,29.3342521 59.9134588,29.1391053 C59.9015048,29.1003824 59.8771881,28.9667426 59.8648254,28.7599482 L59.8412239,28.4841883 L59.6061281,26.5796162 L58.9172903,20.678518 C57.0725905,21.5816087 53.6546595,23.2615064 52.1556046,24.039744 C50.1513135,25.0798461 47.6158346,26.442809 46.1618372,27.4545076 C43.541352,29.2751972 40.1026803,32.0522086 37.0307008,35.8109825 C36.3833445,36.6028088 35.7723611,37.4122085 35.1972398,38.2231408 L34.7330763,38.8781599 L34.0011223,38.5500884 C32.3508542,37.8064869 30.7460522,37.232183 29.4189513,36.8039838 C26.8451583,35.9654653 16.4224765,33.8462316 12.2749415,33.0144564 L13.7017614,36.8295265 C13.7360909,36.9216849 16.9912632,45.6600755 17.6433194,49.7533576 C17.732004,50.3100881 17.8026042,51.0193602 17.8557332,51.8294751 L17.9151968,52.7190791 L17.0342773,52.8572145 C13.4582876,53.4151711 10.4570105,54.4540472 8.56050994,55.3747113 C7.33680627,55.9734341 5.6809187,57.2465886 4.494814,58.2048517 C3.60163395,58.9251582 1.38176172,60.8724378 0.130574009,61.9739448 L2.35126361,63.6474058 L4.10165948,64.9736893 C4.90625716,65.5834466 5.81343466,66.2743278 5.93563134,66.3844683 C6.24847935,66.6718757 6.74217027,67.1631145 7.31524816,67.8783125 C8.04924559,68.793868 8.91892628,70.0841873 9.70319191,71.7967798 L10.2874065,73.0718756 L8.88858145,73.1729228 C8.00653805,73.2403558 7.13491611,73.3385422 6.41011408,73.4323353 C5.20960326,73.585592 2.31407332,74.0820416 0.707330061,74.3654643 C1.94329427,77.9932548 6.02094423,90.1333311 9.1061038,101.379308 C13.1889645,116.267685 23.5250051,127.621964 29.6341237,132.857213 C31.7757329,134.693228 34.5180061,137.501912 37.0207902,140.200252 L37.7027825,140.934862 L36.9500878,141.594888 C35.3676613,142.982372 33.6990023,144.69476 32.0466907,146.800507 C28.8270739,150.901657 24.0530255,158.430647 22.8516973,163.317493 L22.582272,164.412767 L22.9722593,166.787224 C23.9519783,171.377773 27.2534341,174.064874 31.1846728,174.799485 C32.5898325,175.061043 34.0865374,175.102933 35.4857711,175.075347 C36.7166267,175.051847 38.1501899,174.969089 39.8045449,174.8802 C45.7830888,174.559383 57.1217348,174.458233 64.8364728,175.377773 C72.6058723,176.303444 85.9708784,179.621962 85.9708784,179.621962 C89.5877365,180.47407 95.0099586,181.607147 101.612257,182.30702 L102.375476,182.38467 L102.760661,182.423495 C104.605872,182.599229 108.386203,182.867939 112.891951,182.672792 C116.674326,182.509319 121.158617,181.313916 124.319792,180.346356 C126.123112,179.79361 127.693483,179.251081 128.757084,178.868961 L129.080967,178.812767 C131.349166,178.800506 134.925156,178.268195 139.463597,176.015321 C141.054402,175.212256 144.495526,173.121835 147.382882,171.307275 L147.682243,171.118259 L148.034734,171.167301 C148.9696,171.296037 149.951464,171.418642 150.897569,171.510596 C152.511873,171.669983 154.89246,171.849804 156.716215,171.48914 C160.663086,170.707531 162.557339,167.79361 163.189778,165.355807 C163.37573,164.62937 163.46564,163.927454 163.5014,163.295015 L163.528986,162.746356 L164.014299,162.486841 C166.380583,161.231158 170.687096,158.570622 172.342268,153.941248 C172.850059,152.520047 173.197441,151.232691 173.428347,150.077135 L173.534605,149.546867 L174.041374,149.356829 C175.89578,148.655935 177.942268,147.868196 180.075601,147.01711 C185.225027,144.962448 189.111617,142.970111 191.877389,139.978541 C192.633456,139.161171 193.282242,138.286587 193.841118,137.38135 C194.375473,136.579307 194.992587,135.580073 195.590288,134.448017 C197.219918,131.361427 199.025282,126.799486 199.1673,121.432436 C199.307274,116.122602 197.742012,111.055936 196.36168,107.593356 C195.892715,106.411236 195.202038,104.944059 194.485818,103.516728 L194.393864,103.223497 C194.046482,100.881632 193.547887,98.2264088 192.832689,95.4657447 C191.805869,91.5093719 190.07509,87.5993848 188.127709,84.6527693 C187.169343,83.2039826 185.987223,81.7225011 184.597696,80.6090401 C183.434988,79.6739699 180.790799,77.9433952 177.497824,78.8844936 C174.648271,79.7014539 173.05951,81.7473287 172.2779,83.4849532 C171.567811,85.0606364 171.393098,86.6319263 171.319535,87.412616 C171.217364,88.4697807 171.215321,89.7370093 171.189778,91.0867921 L171.129497,94.3621943 L169.389523,91.584059 C166.603316,87.1348126 163.219408,80.4936889 163.554529,75.4146597 C163.774197,72.0366776 164.628348,68.2216075 165.664363,64.6611478 L165.873814,63.9447238 L166.619663,63.960356 C170.178284,64.0345322 172.789778,61.9902922 174.254912,59.7425272" id="path34" fill="#F36917" fill-rule="nonzero"></path>
                        <path d="M166.560404,33.592745 C166.376496,32.9022725 166.103699,32.2637029 165.683775,31.7731793 C164.425027,30.2969086 161.313916,29.3945331 161.313916,29.3945331 C161.313916,29.3945331 161.269982,29.3985178 160.669216,27.98968 C160.053124,26.5429368 159.082499,24.63438 157.670493,22.7514681 C156.36066,21.0053635 154.545078,19.7242396 152.991056,18.8681477 L152.531285,18.6246739 C152.531285,18.6246739 152.495526,19.3187224 152.409702,19.7537671 C152.200251,20.7857977 151.318514,22.2222217 151.318514,22.2222217 C151.318514,22.2222217 150.51034,20.609859 149.763469,19.747739 C149.057467,18.9355806 147.84163,18.0738693 147.672026,17.9442141 C147.629114,18.0738693 147.791566,18.3009957 147.568833,19.3266917 C147.376752,20.2127198 146.651337,21.3721578 146.651337,21.3721578 C146.651337,21.3721578 142.180328,17.6644695 142.003572,17.580587 C141.897314,17.8583904 141.761426,18.1457978 141.589779,18.4347377 C141.109574,19.2429114 140.381094,19.6463852 139.72209,19.8538948 C139.455424,19.9397185 139.154019,20.0091949 138.819919,20.0615065 C138.562448,20.1033967 138.279434,20.1369088 137.975986,20.1748143 C137.47126,20.2350953 136.892972,20.3004848 136.244185,20.4446483 C135.639332,20.5763469 134.975219,20.773435 134.254913,21.1043673 C131.600507,22.3139713 130.11596,24.6967044 125.149421,35.9857973 C120.066408,47.5434982 112.778541,50.0343283 112.377008,50.1580575 L108.068451,51.5373678 C108.068451,51.5373678 111.369601,45.3843156 113.743036,41.1801778 C101.596932,44.4272786 80.0786691,50.8883768 69.8244675,58.3037533 C60.0790783,65.3516203 54.244187,77.7306749 54.244187,77.7306749 C54.244187,77.7306749 52.1748128,70.3611732 56.6060771,61.3569333 C59.1096785,56.2695261 63.1837525,52.247355 65.6925647,50.0782618 C62.9666388,49.7724636 60.1548892,49.2301393 57.5268433,48.3001776 C52.6776991,46.5879937 50.3169329,44.3646477 49.3487592,43.3389517 C49.1511603,43.5005864 48.9093212,43.7160653 48.6299853,44.0022467 C47.7734847,44.8755033 46.5625524,46.3764995 45.2311604,48.8581342 C43.907329,51.3265888 43.1167287,53.7655159 42.657776,55.587125 C42.2043405,57.3934085 41.9589255,59.7058478 41.9589255,59.7058478 L34.5838043,55.9051838 C34.6815821,56.7711863 34.8324889,57.9086576 35.0667673,59.2652859 C35.6186957,62.4581338 36.627227,66.823089 38.4547621,71.4994618 C42.1748131,81.0196659 44.4716202,90.4553745 44.4716202,90.4553745 L26.1666398,72.1472268 C26.5158607,73.6338168 26.8470995,75.2889892 27.1747623,77.0657452 C27.9491174,81.2699852 28.7313396,86.2324372 29.7019654,91.1745571 C31.1758861,98.6985416 35.0866906,104.099103 38.6442895,107.625029 C40.4219651,109.388503 45.1872268,114.273305 45.1872268,114.273305 C45.1872268,114.273305 42.894813,113.901402 40.0991043,113.114684 C37.3128975,112.332053 33.6822462,111.080457 30.3345068,109.209704 C29.8739194,108.952232 29.431314,108.67024 28.9991301,108.3719 C29.2382106,109.029882 29.5235746,109.759384 29.8608415,110.539972 C31.2485298,113.73282 33.493434,117.695016 36.9437532,120.888886 C43.762859,127.198975 57.6461792,140.789779 59.1132545,142.226306 C59.9509557,142.626816 64.0517985,144.53333 68.7325646,145.755296 C73.993152,147.129498 81.8196652,147.569856 81.8196652,147.569856 L80.602807,149.18416 C80.4188989,149.428349 75.4625772,155.77522 60.5352724,156.12158 C49.4229355,156.379051 44.0182868,158.852614 41.4061796,161.067684 C40.6055666,161.747122 37.6939958,163.577007 35.4674824,164.946101 C37.3248515,164.816343 39.9561669,164.526177 42.9642894,164.288118 C46.9054387,163.97854 51.4552215,163.761937 55.7160643,164.105232 C65.7399721,164.913406 73.3933053,166.171132 78.8454635,167.335883 C78.3744546,166.690162 77.8962936,165.955551 77.4303933,165.121835 C74.8842886,160.558872 74.1432414,157.848272 74.1432414,157.848272 C74.1432414,157.848272 77.2996142,163.223495 86.0802015,167.68633 C88.3443138,168.834734 90.3243904,169.759383 92.0275832,170.499102 L96.3821169,171.299102 C96.2329471,171.078412 96.0715167,170.841375 95.8947606,170.587991 C94.4582345,168.523112 93.7491668,166.34278 93.7491668,166.34278 C93.7491668,166.34278 97.7082983,168.695781 104.290163,170.896547 C107.449294,171.952997 111.354275,172.316726 114.560405,172.40868 L118.435756,172.027582 C118.046484,171.929498 117.6378,171.824261 117.191312,171.704721 C112.437289,170.434734 111.007915,168.103189 111.007915,168.103189 C111.007915,168.103189 119.875348,169.217876 124.538438,168.899102 C129.198464,168.580328 132.89195,164.082755 134.887352,161.718514 C137.772665,158.296803 143.561682,156.989013 143.561682,156.989013 C143.561682,156.989013 141.779817,158.944568 139.170366,162.00868 C138.477646,162.819919 137.973942,163.59029 137.604083,164.288118 C140.931797,162.248783 144.625283,159.980583 146.042397,159.090673 C147.562703,158.138438 149.446739,157.341503 151.449293,156.570111 C153.44163,155.803828 155.642396,155.031414 157.898335,154.124134 C160.103188,153.237289 161.026815,152.571133 161.521323,152.006126 C161.763469,151.725156 161.934095,151.433968 162.102677,151.072282 C162.212,150.83218 162.316215,150.578796 162.421451,150.316216 C162.168067,150.266152 161.898335,150.224262 161.601017,150.196676 C160.648782,150.10983 159.687352,149.742014 158.907786,149.366024 C158.704465,149.658234 158.496036,149.964747 158.268195,150.268195 C158.015832,150.610469 157.743035,150.94559 157.450826,151.255169 C156.854146,151.885565 156.102167,152.481222 155.144823,152.750954 C154.251847,153.002295 153.345589,152.979817 152.695781,152.904211 C152.014299,152.828604 151.280711,152.612001 151.280711,152.612001 C151.280711,152.612001 156.738693,145.606127 158.55223,144.643675 C159.396164,144.195143 160.465896,143.774198 161.876879,143.283777 C163.269472,142.799486 165.03601,142.233457 167.31647,141.485565 C176.417875,138.493994 179.208169,137.36296 181.885052,135.756829 C182.999739,135.087608 183.93767,134.399997 184.688628,133.517238 C184.061297,133.371133 183.347121,133.241376 182.580838,133.181095 C180.245206,133.000252 175.382881,135.137672 171.797696,134.955808 C168.656955,134.800507 164.908297,134.565514 163.058999,131.230648 C163.000762,131.125412 162.954784,131.020176 162.906764,130.916983 C162.904721,130.922091 162.900634,130.93333 162.900634,130.93333 C162.900634,130.93333 162.867939,130.852615 162.825027,130.722858 C162.670749,130.339716 162.580838,129.957596 162.536905,129.593866 C162.321323,128.372921 162.301911,126.575731 163.627071,125.353764 C169.05951,120.346357 173.145333,120.388247 175.457466,118.798464 C176.675346,117.959639 176.867428,116.551721 176.779561,115.403318 C175.474835,115.466664 174.055678,115.484033 172.500634,115.442143 C168.711106,115.34508 163.367556,114.441887 157.967811,113.423241 C152.613022,112.414812 147.207148,111.292973 143.234734,110.750444 C135.300124,109.668452 124.353508,111.03448 116.762193,107.845719 C112.782627,106.174199 108.285054,102.204851 105.37522,94.5981075 C102.002551,85.7738931 102.890418,79.1631142 105.221963,74.1056431 C106.381606,71.5903941 107.889652,69.4795385 109.370112,67.685209 C110.836267,65.9115181 112.291184,64.4352474 113.378285,63.1712883 C117.693994,58.1517227 123.844696,49.3139196 129.914683,40.5395648 C136.168578,31.4890414 149.696036,29.3406889 159.010979,31.1845714 C162.180327,31.8131282 164.648782,32.6907782 166.560404,33.592745" id="path36" fill="#F36917" fill-rule="nonzero"></path>
                        <path d="M129.914683,40.5395648 C123.844696,49.3139196 117.693994,58.1517227 113.378285,63.1712883 C112.291184,64.4352474 110.836267,65.9115181 109.370112,67.685209 C107.889652,69.4795385 106.381606,71.5903941 105.221963,74.1056431 C102.890418,79.1631142 102.002551,85.7738931 105.37522,94.5981075 C108.285054,102.204851 112.782627,106.174199 116.762193,107.845719 C124.353508,111.03448 135.300124,109.668452 143.234734,110.750444 C147.207148,111.292973 152.613022,112.414812 157.967811,113.423241 C160.746866,113.948401 163.509574,114.439844 166.054657,114.80766 L166.051592,114.809703 C166.40306,114.860789 166.740225,114.903701 167.08352,114.9507 C167.293993,114.977264 167.510595,115.009959 167.716981,115.036523 C168.113405,115.086587 168.494503,115.128477 168.876623,115.170367 C169.058488,115.188758 169.248526,115.214301 169.426304,115.23167 C169.827837,115.272539 170.212,115.304212 170.595142,115.333841 C170.735116,115.34508 170.88633,115.360406 171.026304,115.371645 C171.538181,115.406383 172.030646,115.430904 172.500634,115.442143 C173.20868,115.462577 173.881987,115.465642 174.534861,115.461555 C174.748399,115.459512 174.951719,115.453382 175.157083,115.449295 C175.578028,115.441121 175.990799,115.430904 176.390289,115.414557 C176.518003,115.409448 176.656955,115.409448 176.779561,115.403318 C176.867428,116.551721 176.675346,117.959639 175.457466,118.798464 C173.145333,120.388247 169.05951,120.346357 163.627071,125.353764 C162.301911,126.575731 162.321323,128.372921 162.536905,129.593866 C162.576751,129.928988 162.662575,130.279435 162.796419,130.632947 C162.203827,131.23167 161.655168,131.860022 161.195398,132.504722 C158.765768,135.91826 158.324389,136.570112 158.324389,136.570112 C158.324389,136.570112 158.358105,132.641631 159.915193,129.218898 C161.473303,125.796165 164.730519,121.516217 164.730519,121.516217 C164.730519,121.516217 158.51647,127.07637 155.794631,130.166025 C156.429114,129.775731 156.810212,129.516216 156.810212,129.516216 C156.810212,129.516216 152.934861,135.965258 146.453125,137.444696 C145.605104,137.658234 144.70702,137.76347 143.760915,137.748145 C143.743546,137.748145 143.29195,137.733841 143.228604,137.729754 C135.443163,137.463087 131.687352,132.552743 126.984415,130.403062 C123.101912,128.629371 118.863853,127.209192 117.382372,126.728988 C115.721069,126.365259 114.14559,126.208937 112.471005,126.322347 C108.320814,126.603317 108.159384,126.919026 108.159384,126.919026 C108.159384,126.919026 111.952998,128.721325 113.540737,131.116216 C115.109064,133.478413 115.095782,135.992845 115.095782,136.061299 C115.131542,136.112385 115.152998,136.143036 115.152998,136.143036 C115.152998,136.143036 110.100635,135.079435 107.290929,135.905999 C104.482244,136.729498 94.7729216,143.719026 87.104978,143.652615 C76.1839054,143.557595 73.2926667,134.419409 73.2926667,134.419409 C73.2926667,134.419409 73.3688864,134.530776 73.513765,134.714684 L73.3904445,134.497059 C73.3904445,134.497059 77.3404827,137.330265 80.8316703,137.521325 C84.3218363,137.70932 87.8426536,136.946101 87.8426536,136.946101 C87.8426536,136.946101 77.5581072,132.507787 71.7409937,123.38697 C65.9247997,114.26411 65.0260002,103.433969 65.0260002,103.433969 C65.0260002,103.433969 73.7333308,111.469729 80.2421429,114.088375 C83.5964212,115.439078 85.9300099,116.477136 87.4084262,117.167813 C85.1667916,114.796421 82.691185,111.596421 80.6763702,107.475859 C73.2926667,92.3771114 73.2735607,84.0114411 73.2735607,84.0114411 C73.2735607,84.0114411 74.8638544,86.7033439 77.0656423,88.8214537 C79.2674303,90.9394613 79.901913,91.4942506 79.901913,91.4942506 C79.901913,91.4942506 79.9192821,91.6506746 79.94789,91.9213259 C81.105489,92.9562173 82.3621939,93.9679159 83.6832667,94.8423987 C86.6911849,96.836677 88.2635986,97.7553999 89.0779026,98.1812491 C88.6048502,96.4219644 88.2022959,94.5788993 87.9121299,92.658082 C86.0546587,80.3799724 88.1358847,64.2891427 96.7979535,59.2613012 C104.79591,54.6216078 110.951721,55.3943281 111.85287,55.5404328 C111.970367,55.5360395 112.082755,55.5300114 112.196165,55.5239833 C117.063598,49.6635492 119.270494,45.9709822 120.214556,44.1299606 C121.894249,42.1120807 123.61992,39.4615571 125.149421,35.9857973 C130.11596,24.6967044 131.600507,22.3139713 134.254913,21.1043673 C134.975219,20.773435 135.639332,20.5763469 136.244185,20.4446483 C136.892972,20.3004848 137.47126,20.2350953 137.975986,20.1748143 C138.279434,20.1369088 138.562448,20.1033967 138.819919,20.0615065 C139.154019,20.0091949 139.455424,19.9397185 139.72209,19.8538948 C140.381094,19.6463852 141.109574,19.2429114 141.589779,18.4347377 C141.761426,18.1457978 141.897314,17.8583904 142.003572,17.580587 C142.180328,17.6644695 146.651337,21.3721578 146.651337,21.3721578 C146.651337,21.3721578 147.376752,20.2127198 147.568833,19.3266917 C147.791566,18.3009957 147.629114,18.0738693 147.672026,17.9442141 C147.84163,18.0738693 149.057467,18.9355806 149.763469,19.747739 C150.51034,20.609859 151.318514,22.2222217 151.318514,22.2222217 C151.318514,22.2222217 152.200251,20.7857977 152.409702,19.7537671 C152.495526,19.3187224 152.531285,18.6246739 152.531285,18.6246739 L152.991056,18.8681477 C154.545078,19.7242396 156.36066,21.0053635 157.670493,22.7514681 C159.082499,24.63438 160.053124,26.5429368 160.669216,27.98968 C161.269982,29.3985178 161.313916,29.3945331 161.313916,29.3945331 C161.313916,29.3945331 164.425027,30.2969086 165.683775,31.7731793 C166.103699,32.2657463 166.378539,32.9043159 166.561426,33.5947884 C164.652869,32.6927195 162.183392,31.8131282 159.010979,31.1845714 C149.696036,29.3406889 136.168578,31.4890414 129.914683,40.5395648" id="path38" fill="#FFFFFF" fill-rule="nonzero"></path>
                        <path d="M159.245972,48.9962695 L159.711873,47.3228085 C159.629114,47.3163717 159.553507,47.3184152 159.46564,47.3084024 C158.749421,47.2142006 158.13435,46.9444688 157.73384,46.7281725 C157.281221,46.8710078 156.630391,47.0007651 155.780327,46.9926936 C154.92209,46.9883002 154.09246,46.7995901 153.504976,46.6319273 C153.319025,46.575631 153.151464,46.5217868 153.006381,46.4727447 C152.501656,46.6934343 151.665896,46.9752223 150.625794,47.0302926 C150.012767,47.0629873 150.097569,47.0609439 149.631669,46.9312887 C149.51928,47.729041 148.873559,49.1618889 148.519025,50.6205862 C147.429881,55.1201008 146.024006,59.1602539 144.194121,59.0752476 C142.887352,59.0142514 141.887097,57.6808159 141.153508,56.5956563 C140.309574,55.3480446 139.311362,53.5763971 138.0802,51.443166 C137.284287,50.0678404 136.338182,49.0421444 135.448272,48.2882236 C135.253125,48.6171124 135.061043,48.9603053 134.872027,49.3354777 C132.585437,53.9312375 133.04112,60.9482488 129.008425,65.9319524 C125.888119,69.7880953 118.179307,69.9688361 114.853636,69.8534848 C114.009703,70.893587 113.246484,71.8997683 112.568068,72.8807134 C115.207148,74.4795895 121.30983,77.8116966 126.590034,77.9505472 C133.541758,78.1322075 137.34559,76.6518499 140.251337,73.1995895 C143.292971,69.5856943 145.265896,65.721582 145.265896,65.721582 C145.265896,65.721582 144.92771,70.7894746 141.767556,75.1619905 C141.450826,75.5994873 141.085053,76.0396405 140.699868,76.4790785 C141.562192,76.8570096 142.959894,77.2557835 144.59974,76.881735 C147.325666,76.2603301 151.314427,73.2587466 153.504976,65.9757838 C155.698591,58.6941492 155.089651,54.8311608 157.300634,51.704622 C158.158871,50.4888876 158.789267,49.6172657 159.245972,48.9962695 Z M166.560404,33.592745 C166.376496,32.9022725 166.103699,32.2637029 165.683775,31.7731793 C164.425027,30.2969086 161.313916,29.3945331 161.313916,29.3945331 C161.313916,29.3945331 161.269982,29.3985178 160.669216,27.98968 C160.053124,26.5429368 159.082499,24.63438 157.670493,22.7514681 C156.36066,21.0053635 154.545078,19.7242396 152.991056,18.8681477 L152.531285,18.6246739 C152.531285,18.6246739 152.495526,19.3187224 152.409702,19.7537671 C152.200251,20.7857977 151.318514,22.2222217 151.318514,22.2222217 C151.318514,22.2222217 150.51034,20.609859 149.763469,19.747739 C149.057467,18.9355806 147.84163,18.0738693 147.672026,17.9442141 C147.629114,18.0738693 147.791566,18.3009957 147.568833,19.3266917 C147.376752,20.2127198 146.651337,21.3721578 146.651337,21.3721578 C146.651337,21.3721578 142.180328,17.6644695 142.003572,17.580587 C141.897314,17.8583904 141.761426,18.1457978 141.589779,18.4347377 C141.109574,19.2429114 140.381094,19.6463852 139.72209,19.8538948 C139.455424,19.9397185 139.154019,20.0091949 138.819919,20.0615065 C138.562448,20.1033967 138.279434,20.1369088 137.975986,20.1748143 C137.47126,20.2350953 136.892972,20.3004848 136.244185,20.4446483 C135.639332,20.5763469 134.975219,20.773435 134.254913,21.1043673 C131.600507,22.3139713 130.11596,24.6967044 125.149421,35.9857973 C120.066408,47.5434982 112.778541,50.0343283 112.377008,50.1580575 L108.068451,51.5373678 C108.068451,51.5373678 111.369601,45.3843156 113.743036,41.1801778 C101.596932,44.4272786 80.0786691,50.8883768 69.8244675,58.3037533 C60.0790783,65.3516203 54.244187,77.7306749 54.244187,77.7306749 C54.244187,77.7306749 52.1748128,70.3611732 56.6060771,61.3569333 C59.1096785,56.2695261 63.1837525,52.247355 65.6925647,50.0782618 C62.9666388,49.7724636 60.1548892,49.2301393 57.5268433,48.3001776 C52.6776991,46.5879937 50.3169329,44.3646477 49.3487592,43.3389517 C49.1511603,43.5005864 48.9093212,43.7160653 48.6299853,44.0022467 C47.7734847,44.8755033 46.5625524,46.3764995 45.2311604,48.8581342 C43.907329,51.3265888 43.1167287,53.7655159 42.657776,55.587125 C42.2043405,57.3934085 41.9589255,59.7058478 41.9589255,59.7058478 L34.5838043,55.9051838 C34.6815821,56.7711863 34.8324889,57.9086576 35.0667673,59.2652859 C35.6186957,62.4581338 36.627227,66.823089 38.4547621,71.4994618 C42.1748131,81.0196659 44.4716202,90.4553745 44.4716202,90.4553745 L26.1666398,72.1472268 C26.5158607,73.6338168 26.8470995,75.2889892 27.1747623,77.0657452 C27.9491174,81.2699852 28.7313396,86.2324372 29.7019654,91.1745571 C31.1758861,98.6985416 35.0866906,104.099103 38.6442895,107.625029 C40.4219651,109.388503 45.1872268,114.273305 45.1872268,114.273305 C45.1872268,114.273305 42.894813,113.901402 40.0991043,113.114684 C37.3128975,112.332053 33.6822462,111.080457 30.3345068,109.209704 C29.8739194,108.952232 29.431314,108.67024 28.9991301,108.3719 C29.2382106,109.029882 29.5235746,109.759384 29.8608415,110.539972 C31.2485298,113.73282 33.493434,117.695016 36.9437532,120.888886 C43.762859,127.198975 57.6461792,140.789779 59.1132545,142.226306 C59.9509557,142.626816 64.0517985,144.53333 68.7325646,145.755296 C73.993152,147.129498 81.8196652,147.569856 81.8196652,147.569856 L80.602807,149.18416 C80.4188989,149.428349 75.4625772,155.77522 60.5352724,156.12158 C49.4229355,156.379051 44.0182868,158.852614 41.4061796,161.067684 C40.6055666,161.747122 37.6939958,163.577007 35.4674824,164.946101 C37.3248515,164.816343 39.9561669,164.526177 42.9642894,164.288118 C46.9054387,163.97854 51.4552215,163.761937 55.7160643,164.105232 C65.7399721,164.913406 73.3933053,166.171132 78.8454635,167.335883 C78.3744546,166.690162 77.8962936,165.955551 77.4303933,165.121835 C74.8842886,160.558872 74.1432414,157.848272 74.1432414,157.848272 C74.1432414,157.848272 77.2996142,163.223495 86.0802015,167.68633 C88.3443138,168.834734 90.3243904,169.759383 92.0275832,170.499102 L96.3821169,171.299102 C96.2329471,171.078412 96.0715167,170.841375 95.8947606,170.587991 C94.4582345,168.523112 93.7491668,166.34278 93.7491668,166.34278 C93.7491668,166.34278 97.7082983,168.695781 104.290163,170.896547 C107.449294,171.952997 111.354275,172.316726 114.560405,172.40868 L118.435756,172.027582 C118.046484,171.929498 117.6378,171.824261 117.191312,171.704721 C112.437289,170.434734 111.007915,168.103189 111.007915,168.103189 C111.007915,168.103189 119.875348,169.217876 124.538438,168.899102 C129.198464,168.580328 132.89195,164.082755 134.887352,161.718514 C137.772665,158.296803 143.561682,156.989013 143.561682,156.989013 C143.561682,156.989013 141.779817,158.944568 139.170366,162.00868 C138.477646,162.819919 137.973942,163.59029 137.604083,164.288118 C140.931797,162.248783 144.625283,159.980583 146.042397,159.090673 C147.562703,158.138438 149.446739,157.341503 151.449293,156.570111 C153.44163,155.803828 155.642396,155.031414 157.898335,154.124134 C160.103188,153.237289 161.026815,152.571133 161.521323,152.006126 C161.763469,151.725156 161.934095,151.433968 162.102677,151.072282 C162.212,150.83218 162.316215,150.578796 162.421451,150.316216 C162.168067,150.266152 161.898335,150.224262 161.601017,150.196676 C160.648782,150.10983 159.687352,149.742014 158.907786,149.366024 C158.704465,149.658234 158.496036,149.964747 158.268195,150.268195 C158.015832,150.610469 157.743035,150.94559 157.450826,151.255169 C156.854146,151.885565 156.102167,152.481222 155.144823,152.750954 C154.251847,153.002295 153.345589,152.979817 152.695781,152.904211 C152.014299,152.828604 151.280711,152.612001 151.280711,152.612001 C151.280711,152.612001 156.738693,145.606127 158.55223,144.643675 C159.396164,144.195143 160.465896,143.774198 161.876879,143.283777 C163.269472,142.799486 165.03601,142.233457 167.31647,141.485565 C176.417875,138.493994 179.208169,137.36296 181.885052,135.756829 C182.999739,135.087608 183.93767,134.399997 184.688628,133.517238 C184.061297,133.371133 183.347121,133.241376 182.580838,133.181095 C180.245206,133.000252 175.382881,135.137672 171.797696,134.955808 C168.656955,134.800507 164.908297,134.565514 163.058999,131.230648 C163.000762,131.125412 162.954784,131.020176 162.906764,130.916983 C162.904721,130.922091 162.900634,130.93333 162.900634,130.93333 C162.900634,130.93333 162.867939,130.852615 162.825027,130.722858 C162.670749,130.339716 162.580838,129.957596 162.536905,129.593866 C162.321323,128.372921 162.301911,126.575731 163.627071,125.353764 C169.05951,120.346357 173.145333,120.388247 175.457466,118.798464 C176.675346,117.959639 176.867428,116.551721 176.779561,115.403318 C175.474835,115.466664 174.055678,115.484033 172.500634,115.442143 C168.711106,115.34508 163.367556,114.441887 157.967811,113.423241 C152.613022,112.414812 147.207148,111.292973 143.234734,110.750444 C135.300124,109.668452 124.353508,111.03448 116.762193,107.845719 C112.782627,106.174199 108.285054,102.204851 105.37522,94.5981075 C102.002551,85.7738931 102.890418,79.1631142 105.221963,74.1056431 C106.381606,71.5903941 107.889652,69.4795385 109.370112,67.685209 C110.836267,65.9115181 112.291184,64.4352474 113.378285,63.1712883 C117.693994,58.1517227 123.844696,49.3139196 129.914683,40.5395648 C136.168578,31.4890414 149.696036,29.3406889 159.010979,31.1845714 C162.180327,31.8131282 164.648782,32.6907782 166.560404,33.592745 L166.560404,33.592745 Z M186.051591,116.335118 C186.327453,116.792845 186.582881,117.216855 186.781093,117.627583 C186.974196,118.029116 187.168322,118.506255 187.357338,119.097826 C187.57905,119.263343 187.896802,119.444186 188.326942,119.68531 C188.693737,119.889652 189.08403,120.114429 189.469216,120.355553 C189.381348,117.113662 188.691693,114.58697 187.940735,112.775476 C187.032434,113.310853 185.827836,113.847251 184.241119,114.298848 C184.951208,114.909831 185.604082,115.596421 186.051591,116.335118 L186.051591,116.335118 Z M194.178283,121.419154 C194.066917,125.699103 192.612,129.455935 191.20306,132.123624 C190.664618,133.147379 190.115959,134.02605 189.640863,134.724901 C189.291438,135.300124 188.286074,136.5272 188.286074,136.5272 C186.395908,138.573687 183.492204,140.214556 178.384669,142.253892 C174.618641,143.755807 171.139714,145.055424 168.491438,146.01992 C168.587479,146.86181 168.633456,149.026816 167.368577,152.567046 C166.456189,155.126433 163.823239,156.972665 161.56117,158.171133 C160.015321,158.990545 158.491949,159.586203 157.428348,159.951976 C157.664363,160.622218 157.959638,161.541758 158.034223,162.12209 C158.165002,163.122346 158.480711,166.174198 155.742524,166.714683 C153.914683,167.07739 149.319025,166.442908 146.459255,165.982116 C143.507531,167.87739 138.799485,170.806637 136.874581,171.776241 C131.853891,174.27126 128.65287,174.066918 127.859,173.96066 C127.280711,174.181349 125.122857,174.984415 122.421452,175.810979 C119.270494,176.776496 115.317493,177.794121 112.259511,177.925921 C108.044952,178.106764 104.520048,177.858489 102.793356,177.693993 L101.671517,177.579561 C95.2766253,176.903188 86.5828835,174.991567 86.5828835,174.991567 C86.5828835,174.991567 72.6637012,171.547378 64.556626,170.580839 C56.456805,169.616343 44.5526419,169.710341 38.2739192,170.047505 C36.6770865,170.133329 35.2910329,170.215066 34.10125,170.236522 C32.9011479,170.260021 31.8159883,170.224261 30.8813268,170.052614 C28.836678,169.669472 27.3460012,168.317748 26.8292196,166.144568 C26.7557585,165.838055 26.8535363,165.265896 26.8535363,165.265896 C27.7710331,161.543802 31.954941,154.713662 35.1245961,150.677902 C39.005158,145.731797 42.8856176,143.379818 44.9278143,142.394888 C44.0490403,141.383394 42.6381592,139.783394 40.9854389,137.971899 C38.1673547,134.890418 34.6847494,131.24393 31.9257201,128.87969 C26.2078147,123.979563 16.6376489,113.385438 12.9135111,99.8060767 C9.13287263,86.0228842 6.45844103,78.3129482 6.45844103,78.3129482 C6.45844103,78.3129482 11.3777768,77.5143786 16.5078916,80.5763454 C15.8341751,77.5466647 15.1844689,74.7840594 14.6959887,73.0707517 C12.2801522,64.6140469 7.26620601,61.0759627 7.26620601,61.0759627 C7.26620601,61.0759627 10.0579301,58.7188746 16.1132045,57.7706244 C18.8391304,57.3455924 20.8026552,57.4733064 22.1596922,57.7534596 C22.1253627,54.0269718 22.0023487,50.2139451 21.6790792,48.1880959 C20.9175978,43.4103693 19.4676872,39.5473809 19.4676872,39.5473809 C19.4676872,39.5473809 23.3194368,40.3004843 26.3466653,41.2811229 C29.332821,42.2517486 32.9846217,43.7468188 35.2638554,45.8157843 C36.539462,43.4666656 38.1474313,40.8868444 40.0970609,38.5041114 C42.7798705,35.2174704 45.8266137,32.7470745 48.1953493,31.1006889 C50.5811475,29.4404079 53.2651832,28.1349674 53.2651832,28.1349674 C53.2651832,28.1349674 53.4356046,29.3821704 53.5417604,29.7573428 C53.6586442,30.1608166 53.8602278,30.7391052 54.2031142,31.4575726 C54.8982866,32.9102418 56.1886058,34.9557079 58.5592826,37.2290157 C59.6552724,38.2762698 61.1047743,39.1347117 62.7710833,39.8151714 C64.1755277,36.8714167 66.2684012,33.0839328 69.0358086,29.7002291 C71.7182095,26.4132816 74.7637267,23.9467682 77.1330753,22.297624 C79.5177495,20.6417364 82.2038287,19.3306764 82.2038287,19.3306764 C82.2038287,19.3306764 82.372411,20.5803315 82.4807124,20.9555039 C82.5961658,21.3569343 82.7984647,21.9392076 83.1417597,22.6552229 C83.8365234,24.1063596 85.1269448,26.1537669 87.4983368,28.4259508 C91.6985922,32.4556825 100.946102,33.7564232 108.813279,32.3339966 C112.816344,31.0784156 116.622219,29.8850567 119.66181,28.9339456 C120.286075,27.1335881 120.903189,25.2015319 122.24674,21.9472791 C125.326178,14.5051337 134.230392,13.6398464 135.122346,13.5141759 L134.977263,8.3197648 L141.05951,9.92816323 L140.602805,7.1835094 C140.602805,7.1835094 148.105232,9.82798443 151.038565,10.4725412 C157.187224,11.8202807 161.355806,16.1737927 163.926432,19.957292 C165.873814,22.8272791 167.000761,25.5151973 167.450314,26.6922088 C168.040864,27.0713659 169.05951,27.7662317 170.316215,28.785491 C172.770365,30.7870235 173.841119,34.2935368 173.766534,37.1934601 C173.724644,38.825031 173.163724,40.2566529 172.664107,41.2344306 C172.404593,41.740893 172.014299,42.3231662 171.68633,42.7737409 C171.59131,42.903907 171.415576,43.1313399 171.217364,43.3827831 C171.228603,43.4941496 171.243929,43.5983642 171.252102,43.7141241 C171.428858,46.4918507 171.564746,49.8379553 171.319535,51.6698838 C170.896547,54.8160395 169.581604,58.3376741 166.342779,57.7869717 C164.854146,57.5355286 163.987735,55.9171378 163.370621,54.1670485 C161.487607,59.0497048 158.636011,67.4584913 158.165002,74.6563455 C157.5908,83.483012 164.594631,94.1239312 167.140736,97.6776476 C167.318514,97.6664088 167.49527,97.648018 167.683265,97.6552721 C169.272026,97.7279158 170.347888,98.2559362 171.074325,98.6973155 C171.593354,98.4490397 172.353507,98.1497804 173.189267,98.0555786 C174.359126,97.9218366 175.31034,98.227124 176.049037,98.6450039 L176.133839,98.3895761 C176.484286,97.2608916 176.876623,95.4992569 176.991055,93.0535864 C177.084031,91.0895507 177.020685,89.1730246 177.160659,87.6823477 C177.288373,86.3325649 177.629624,84.4057195 179.385946,83.9048766 C181.892204,83.1868178 186.156827,89.7992315 187.945844,96.702935 C188.724388,99.7058468 189.228092,102.572667 189.552996,105.00434 C190.36117,106.573688 191.205103,108.302424 191.735371,109.636779 C193.01251,112.838822 194.288628,117.145336 194.178283,121.419154 L194.178283,121.419154 Z" id="path40" fill="#231F20" fill-rule="nonzero"></path>
                        <path d="M157.450826,151.255169 C157.743035,150.94559 158.015832,150.610469 158.268195,150.268195 C158.496036,149.964747 158.704465,149.658234 158.907786,149.366024 C159.687352,149.742014 160.648782,150.10983 161.601017,150.196676 C161.898335,150.224262 162.168067,150.266152 162.421451,150.316216 C162.316215,150.578796 162.212,150.83218 162.102677,151.072282 C161.934095,151.433968 161.763469,151.725156 161.521323,152.006126 C161.240353,152.325922 160.811234,152.682499 160.099101,153.08914 L157.247505,151.454402 C157.312894,151.386969 157.385436,151.324645 157.450826,151.255169" id="path42" fill="#FFFFFF" fill-rule="nonzero"></path>
                        <path d="M187.892715,132.217621 L187.964235,132.07969 C187.964235,132.07969 185.659254,129.456957 183.795652,129.311874 C181.445716,129.127966 176.890927,130.89144 174.031157,131.066153 C171.172409,131.241887 166.221196,130.381606 166.340736,127.689397 C165.815576,128.081734 165.456956,128.650827 165.428348,129.292462 C165.310851,131.983649 170.262064,132.846995 173.119791,132.671261 C175.980582,132.495527 180.535372,130.732053 182.883264,130.915961 C185.108552,131.08863 187.680199,131.980584 187.9438,132.07356 L187.892715,132.217621 L187.892715,132.217621" id="path44" fill="#FFFFFF"></path>
                        <path d="M187.896802,128.060278 C188.238053,125.377264 187.111106,124.620176 186.142523,124.195144 C184.569088,123.507532 184.314682,122.751466 184.20025,121.021708 C184.111361,119.682245 180.876623,115.490163 180.876623,115.490163 C180.876623,115.490163 182.759637,120.48531 182.837287,121.643931 C182.952741,123.371644 183.268449,124.009192 184.781604,124.817366 C187.493226,126.267174 187.517747,127.784416 187.896802,128.060278 L187.896802,128.060278" id="path46" fill="#FFFFFF" fill-rule="nonzero"></path>
                        <path d="M96.2809675,153.894249 C96.2196648,153.962704 96.1879918,154.003572 96.1879918,154.003572 C96.1879918,154.003572 99.249039,153.178029 105.641887,154.757595 C112.032691,156.337161 118.781095,158.214045 118.781095,158.214045 L125.074837,154.093483 C125.164747,154.035245 125.257723,153.978029 125.34559,153.917748 L135.350187,147.3696 C135.350187,147.3696 137.080966,146.642142 138.207914,146.807659 C140.98186,147.2143 141.869728,150.022985 142.05057,150.734096 C141.587735,150.263087 138.859766,147.658745 136.677391,149.178029 C129.849294,153.928987 120.394377,161.879945 120.394377,161.879945 C112.343292,161.528476 103.077391,156.65287 99.3696009,157.095271 C95.6618104,157.537672 89.5673023,159.597442 89.5673023,159.597442 C89.5673023,159.597442 91.2704951,156.090928 96.2809675,153.894249" id="path48" fill="#FFFFFF" fill-rule="nonzero"></path>
                        <path d="M118.411235,141.395654 C121.53665,141.832947 123.803828,143.122346 124.717238,144.359639 C123.196931,145.244441 121.888119,146.199741 120.768323,147.110086 C120.642653,146.834224 120.511874,146.562448 120.369856,146.303955 C119.098847,144.013279 118.202806,143.313406 118.202806,143.313406 C118.202806,143.313406 118.343802,146.247761 118.027072,148.081733 C118.002551,148.219664 117.972921,148.361682 117.941248,148.50983 C114.377519,148.16347 112.585437,147.922346 111.773177,147.796676 C111.28582,147.063087 111.042653,146.266152 111.121325,145.454913 C111.287864,143.73333 112.842908,142.345846 115.083521,141.620431 C116.11545,141.363981 117.258745,141.234224 118.411235,141.395654" id="path50" fill="#FFFFFF" fill-rule="nonzero"></path>
                        <path d="M184.090927,108.314684 C181.320046,109.051338 177.549931,109.800253 173.529497,109.866664 C169.515193,109.935119 164.26564,109.031926 159.019152,107.98365 C153.760404,106.931287 148.572154,105.752232 144.759127,105.300636 C140.119536,104.749934 131.912129,104.542526 126.186458,104.463854 C127.227582,102.806639 128.864364,101.273969 131.372665,101.333433 C133.138182,101.375323 134.092461,102.805617 134.092461,102.805617 C137.391567,98.6095505 138.98748,102.074991 140.731541,101.492616 C141.20255,100.051083 141.702167,98.3928456 141.987224,97.0310065 C142.982371,92.292105 142.883265,88.6949659 142.789268,84.6427565 C144.767301,86.5940208 146.955807,89.7186184 148.640609,93.501709 C150.337671,97.3167792 151.31034,103.87024 151.31034,103.87024 C151.31034,103.87024 153.953508,101.95637 155.782371,102.252871 C157.257722,102.492973 159.021196,104.297315 159.021196,104.297315 C159.021196,104.297315 160.585436,102.669729 161.896292,102.498082 C163.395142,102.302935 165.514171,103.885566 165.514171,103.885566 C165.514171,103.885566 167.456445,102.401019 168.884797,102.437801 C170.207913,102.471517 171.978539,103.836524 171.978539,103.836524 C171.978539,103.836524 173.302677,102.453126 174.620685,102.535885 C176.461808,102.651338 178.215065,104.133842 178.215065,104.133842 L179.258232,102.524646 C179.449292,102.19872 180.981859,99.4688098 181.241374,93.9595379 C181.301655,92.6193591 181.301655,91.3214792 181.336393,90.1536631 C182.496036,91.9008917 183.897824,94.6116962 184.859254,98.3233692 C185.773686,101.848273 186.285563,105.085055 186.575729,107.5719 C185.841119,107.815068 184.991055,108.074582 184.090927,108.314684" id="path52" fill="#FFFFFF" fill-rule="nonzero"></path>
                        <path d="M138.742269,39.8611484 C146.301911,35.5104972 153.246483,35.1991818 158.996675,36.5884027 C162.369344,37.4050565 165.067684,38.615478 166.920046,39.6200246 C167.017109,39.6711101 167.107019,39.7250565 167.198973,39.7793094 C167.278667,40.736755 167.367556,41.9085558 167.440097,43.139718 C167.603571,45.8297817 167.678156,48.5436514 167.496291,49.9026297 C167.282754,51.4982363 166.92209,52.4648774 166.598207,52.955401 C166.326432,52.4425019 166.015832,51.6251328 165.665385,50.4318761 C165.266917,49.0820933 164.542524,47.352336 163.911106,45.961889 C163.303188,44.6220168 161.671515,41.3872787 161.671515,41.3872787 C161.671515,41.3872787 161.123878,42.0402544 160.646739,42.2517486 C159.525921,42.7506503 158.296802,42.3886579 157.629625,41.3597946 C156.994121,42.0178789 156.443418,42.2753502 155.45951,42.260944 C153.888118,42.2417359 153.015577,40.9227065 153.015577,40.9227065 C153.015577,40.9227065 152.242141,42.2712633 150.030136,42.2397946 C148.222729,42.2170104 146.182371,40.1899351 146.182371,40.1899351 C146.182371,40.1899351 146.12209,43.4849542 145.416088,48.3740473 C144.92771,51.740484 144.183904,52.8316717 143.821196,53.9013013 C143.721069,53.771544 143.615832,53.616346 143.498335,53.4426551 C142.686075,52.247355 141.731797,50.5431405 140.547633,48.4933832 C138.865896,45.5787473 136.637544,43.876474 135.052869,42.9537665 C136.177774,41.6950181 137.353763,40.6609441 138.742269,39.8611484" id="path54" fill="#FFFFFF" fill-rule="nonzero"></path>
                        <path d="M167.496291,49.9026297 C167.282754,51.4982363 166.92209,52.4648774 166.598207,52.955401 C166.326432,52.4425019 166.015832,51.6251328 165.665385,50.4318761 C165.266917,49.0820933 164.542524,47.352336 163.911106,45.961889 C163.303188,44.6220168 161.671515,41.3872787 161.671515,41.3872787 C161.671515,41.3872787 161.123878,42.0402544 160.646739,42.2517486 C159.525921,42.7506503 158.296802,42.3886579 157.629625,41.3597946 C156.994121,42.0178789 156.443418,42.2753502 155.45951,42.260944 C153.888118,42.2417359 153.015577,40.9227065 153.015577,40.9227065 C153.015577,40.9227065 152.242141,42.2712633 150.030136,42.2397946 C148.232946,42.2170104 146.208936,40.2154779 146.185436,40.1919786 C146.119025,38.9887091 146.000507,38.2946606 146.000507,38.2946606 C146.000507,38.2946606 148.606892,40.3536133 150.412256,40.3799734 C152.623239,40.4118508 153.397697,39.0609441 153.397697,39.0609441 C153.397697,39.0609441 154.272282,40.3799734 155.842652,40.4015316 C156.82656,40.4158355 157.385436,40.1520296 158.01481,39.4975214 C158.663597,40.5148393 159.911106,40.8868444 161.030902,40.3871254 C161.509063,40.1775724 162.781094,38.9822723 162.781094,38.9822723 C162.781094,38.9822723 164.431157,42.8044945 164.935883,44.1829874 C165.540736,45.8348903 165.967811,47.1827319 166.374452,48.527304 C166.847505,50.0906245 166.709574,50.5786961 166.981349,51.0915951 C167.152996,50.8321826 167.334861,50.4409694 167.498335,49.8942516 C167.498335,49.8942516 167.498335,49.9001776 167.496291,49.9026297" id="path56" fill="#FFFFFF" fill-rule="nonzero"></path>
                        <path d="M138.742269,39.8611484 C139.612767,39.3602034 140.473048,38.921174 141.325155,38.5237283 C140.965513,39.6200246 140.823495,41.0696286 141.428348,42.7945839 C142.03218,44.5106502 143.87739,50.7730256 143.87739,50.7730256 C143.87739,50.7730256 144.113406,51.807917 144.608936,51.3633704 C144.715194,51.2655926 144.815321,51.0979298 144.909319,50.9079936 C144.505743,52.4125657 144.070494,53.1605606 143.821196,53.9013013 C143.721069,53.771544 143.615832,53.616346 143.498335,53.4426551 C142.686075,52.247355 141.731797,50.5431405 140.547633,48.4933832 C138.865896,45.5787473 136.637544,43.876474 135.052869,42.9537665 C136.177774,41.6950181 137.353763,40.6609441 138.742269,39.8611484" id="path58" fill="#FFFFFF" fill-rule="nonzero"></path>
                        <path d="M183.689394,94.7329734 C183.691172,94.7384845 183.694728,94.7455956 183.698283,94.7525289 L183.700061,94.7614178 C183.700061,94.7614178 183.694728,94.7455956 183.689394,94.7329734" id="path60" fill="#C8C7C7" fill-rule="nonzero"></path>
                        <path d="M182.468449,93.2259491 C182.101655,94.0728457 183.48403,97.6232926 182.518513,102.586971 C181.555039,107.552488 180.632434,107.042654 180.632434,107.042654 C180.632434,107.042654 180.619152,107.033458 180.613022,107.032437 L178.557338,106.348912 C178.557338,106.348912 176.80306,104.865387 174.962958,104.749934 C173.643929,104.668197 172.321834,106.050572 172.321834,106.050572 C172.321834,106.050572 170.555295,104.688631 169.229114,104.653893 C167.791566,104.615068 165.857466,106.100636 165.857466,106.100636 C165.857466,106.100636 163.742524,104.52107 162.237543,104.71213 C160.918514,104.881734 159.364491,106.511364 159.364491,106.511364 C159.364491,106.511364 157.608169,104.706 156.125666,104.467941 C154.287607,104.173688 151.655679,106.08531 151.655679,106.08531 C151.655679,106.08531 151.540225,105.219921 151.312384,103.869218 C151.330775,103.856958 153.958616,101.957596 155.782371,102.252871 C157.257722,102.492973 159.021196,104.297315 159.021196,104.297315 C159.021196,104.297315 160.585436,102.669729 161.896292,102.498082 C163.395142,102.302935 165.514171,103.885566 165.514171,103.885566 C165.514171,103.885566 167.456445,102.401019 168.884797,102.437801 C170.207913,102.471517 171.978539,103.836524 171.978539,103.836524 C171.978539,103.836524 173.302677,102.453126 174.620685,102.535885 C176.133839,102.628861 177.570365,103.63729 178.215065,104.133842 L179.258232,102.524646 C179.27458,102.492973 179.727198,101.605208 179.985691,100.886843 L179.985691,100.886843 C180.491438,99.4962938 181.086074,97.2178775 181.241374,93.9595379 C181.301655,92.6193591 181.301655,91.3214792 181.336393,90.1536631 C181.987223,91.1346082 182.71366,92.4301382 183.396163,94.0242122 C183.111106,93.4087333 182.699356,92.7051829 182.468449,93.2259491" id="path62" fill="#FFFFFF" fill-rule="nonzero"></path>
                        <path d="M141.987224,97.0310065 C142.982371,92.292105 142.883265,88.6949659 142.789268,84.6427565 C143.95504,85.7921818 145.192333,87.3575457 146.356062,89.2177755 C145.971899,88.7672008 145.072793,87.7937143 144.647761,88.0846977 C144.099102,88.4598701 145.339459,90.6800488 144.920558,95.5056937 C144.6355,98.8158341 143.798719,102.90881 143.30421,105.149423 C142.169089,105.045208 140.896037,104.955298 139.545334,104.878669 C139.574964,104.805106 141.332307,100.147226 141.987224,97.0310065" id="path64" fill="#FFFFFF" fill-rule="nonzero"></path>
                        <path d="M126.186458,104.463854 C127.227582,102.806639 128.864364,101.273969 131.372665,101.333433 C133.138182,101.375323 134.092461,102.805617 134.092461,102.805617 C135.785437,100.653688 137.028859,100.520049 138.07407,100.81941 C136.936905,102.370368 136.794887,103.67918 137.211746,104.760151 C133.472282,104.593612 129.431414,104.507788 126.186458,104.463854" id="path66" fill="#FFFFFF" fill-rule="nonzero"></path>
                        <path d="M159.320557,119.816089 C159.320557,119.816089 153.372154,129.53052 145.249549,129.460022 C137.130009,129.388503 133.342525,126.079179 128.512895,123.94789 C118.865897,119.692462 110.500124,121.318005 110.500124,121.318005 C110.500124,121.318005 119.112129,117.627583 129.953508,121.02886 C135.612767,122.804595 139.458489,125.559128 145.285309,125.611236 C151.108041,125.660278 159.320557,119.816089 159.320557,119.816089 L159.320557,119.816089" id="path68" fill="#231F20" fill-rule="nonzero"></path>
                        <path d="M158.843418,116.649806 C158.843418,116.649806 153.678667,119.813024 148.590545,119.767047 C143.499357,119.723113 136.830647,116.227839 130.551209,115.621964 C126.108808,115.191823 119.998975,116.081734 119.998975,116.081734 C119.998975,116.081734 125.532563,113.650061 132.955296,113.713407 C140.381094,113.778797 143.808936,115.87637 149.861554,116.249295 C155.912128,116.624263 158.843418,116.649806 158.843418,116.649806 L158.843418,116.649806" id="path70" fill="#231F20" fill-rule="nonzero"></path>
                        <path d="M73.2926667,134.419409 C73.2926667,134.419409 77.2587458,140.255424 85.1800738,140.324901 C93.1034452,140.393355 98.9394604,136.427072 98.9394604,136.427072 C98.9394604,136.427072 95.3512102,136.158362 91.8201758,134.079179 C88.1174939,131.900891 86.5552973,128.735629 86.5552973,128.735629 C86.5552973,128.735629 90.84955,133.558106 100.063343,133.949422 C105.097315,134.16296 106.721836,132.987992 109.803317,133.355808 C113.672538,133.815578 115.152998,136.143036 115.152998,136.143036 C115.152998,136.143036 110.100635,135.079435 107.290929,135.905999 C104.482244,136.729498 94.7729216,143.719026 87.104978,143.652615 C76.1839054,143.557595 73.2926667,134.419409 73.2926667,134.419409 L73.2926667,134.419409" id="path72" fill="#231F20" fill-rule="nonzero"></path>
                        <path d="M73.2735607,84.0114411 C73.2735607,84.0114411 74.8638544,86.7033439 77.0656423,88.8214537 C79.2674303,90.9394613 79.901913,91.4942506 79.901913,91.4942506 C79.901913,91.4942506 80.5680688,98.8629349 83.8712616,107.411492 C86.8873534,115.218388 93.5683239,122.375476 93.5683239,122.375476 C93.5683239,122.375476 85.6919512,117.729754 80.6763702,107.475859 C73.2926667,92.3771114 73.2735607,84.0114411 73.2735607,84.0114411 L73.2735607,84.0114411" id="path74" fill="#231F20" fill-rule="nonzero"></path>
                        <path d="M98.2211974,117.125923 C98.2211974,117.125923 90.0679409,106.906766 87.9121299,92.658082 C86.0546587,80.3799724 88.1358847,64.2891427 96.7979535,59.2613012 C105.461044,54.2365248 111.978541,55.5615823 111.978541,55.5615823 C111.978541,55.5615823 103.032436,56.1266908 96.0909292,67.5338936 C84.2411211,87.0091421 98.2211974,117.125923 98.2211974,117.125923 L98.2211974,117.125923" id="path76" fill="#231F20" fill-rule="nonzero"></path>
                        <path d="M156.810212,129.516216 C156.810212,129.516216 151.828348,137.82273 143.707786,137.75121 C135.587225,137.680712 131.786458,132.597698 126.984415,130.403062 C122.183393,128.210469 116.831669,126.554275 116.831669,126.554275 C116.831669,126.554275 125.407914,126.946612 130.75453,129.51826 C136.096037,132.088886 137.91264,134.401018 143.737416,134.451082 C149.562192,134.502168 156.810212,129.516216 156.810212,129.516216 L156.810212,129.516216" id="path78" fill="#231F20" fill-rule="nonzero"></path>
                        <path d="M157.670493,22.7514681 C158.803571,24.2616597 159.639331,25.7786967 160.249293,27.0673812 C157.51928,25.6725409 152.231924,23.4115958 147.040609,23.6710083 C139.59642,24.048122 134.785181,26.9436519 126.121069,38.1385431 C122.626816,42.6524638 119.677136,45.3783897 117.398719,47.0230384 C119.832436,44.9073807 122.738183,41.4691177 125.149421,35.9857973 C130.11596,24.6967044 131.600507,22.3139713 134.254913,21.1043673 C134.975219,20.773435 135.639332,20.5763469 136.244185,20.4446483 C136.892972,20.3004848 137.47126,20.2350953 137.975986,20.1748143 C138.279434,20.1369088 138.562448,20.1033967 138.819919,20.0615065 C139.154019,20.0091949 139.455424,19.9397185 139.72209,19.8538948 C140.381094,19.6463852 141.109574,19.2429114 141.589779,18.4347377 C141.761426,18.1457978 141.897314,17.8583904 142.003572,17.580587 C142.180328,17.6644695 146.651337,21.3721578 146.651337,21.3721578 C146.651337,21.3721578 147.376752,20.2127198 147.568833,19.3266917 C147.791566,18.3009957 147.629114,18.0738693 147.672026,17.9442141 C147.84163,18.0738693 149.057467,18.9355806 149.763469,19.747739 C150.51034,20.609859 151.318514,22.2222217 151.318514,22.2222217 C151.318514,22.2222217 152.200251,20.7857977 152.409702,19.7537671 C152.495526,19.3187224 152.531285,18.6246739 152.531285,18.6246739 L152.991056,18.8681477 C154.545078,19.7242396 156.36066,21.0053635 157.670493,22.7514681" id="path80" fill="#FFFFFF" fill-rule="nonzero"></path>
                        <path d="M186.051591,116.335118 C186.327453,116.792845 186.582881,117.216855 186.781093,117.627583 C186.974196,118.029116 187.168322,118.506255 187.357338,119.097826 C187.57905,119.263343 187.896802,119.444186 188.326942,119.68531 C188.693737,119.889652 189.08403,120.114429 189.469216,120.355553 C189.381348,117.113662 188.691693,114.58697 187.940735,112.775476 C187.032434,113.310853 185.827836,113.847251 184.241119,114.298848 C184.951208,114.909831 185.604082,115.596421 186.051591,116.335118" id="path82" fill="#FFFFFF" fill-rule="nonzero"></path>
                        <path d="M159.245972,48.9962695 L159.711873,47.3228085 C159.629114,47.3163717 159.553507,47.3184152 159.46564,47.3084024 C158.749421,47.2142006 158.13435,46.9444688 157.73384,46.7281725 C157.281221,46.8710078 156.630391,47.0007651 155.780327,46.9926936 C154.92209,46.9883002 154.09246,46.7995901 153.504976,46.6319273 C153.319025,46.575631 153.151464,46.5217868 153.006381,46.4727447 C152.501656,46.6934343 151.665896,46.9752223 150.625794,47.0302926 C150.012767,47.0629873 150.097569,47.0609439 149.631669,46.9312887 C149.51928,47.729041 148.873559,49.1618889 148.519025,50.6205862 C147.429881,55.1201008 146.024006,59.1602539 144.194121,59.0752476 C142.887352,59.0142514 141.887097,57.6808159 141.153508,56.5956563 C140.309574,55.3480446 139.311362,53.5763971 138.0802,51.443166 C137.284287,50.0678404 136.338182,49.0421444 135.448272,48.2882236 C135.253125,48.6171124 135.061043,48.9603053 134.872027,49.3354777 C132.585437,53.9312375 133.04112,60.9482488 129.008425,65.9319524 C125.888119,69.7880953 118.179307,69.9688361 114.853636,69.8534848 C114.009703,70.893587 113.246484,71.8997683 112.568068,72.8807134 C115.207148,74.4795895 121.30983,77.8116966 126.590034,77.9505472 C133.541758,78.1322075 137.34559,76.6518499 140.251337,73.1995895 C143.292971,69.5856943 145.265896,65.721582 145.265896,65.721582 C145.265896,65.721582 144.92771,70.7894746 141.767556,75.1619905 C141.450826,75.5994873 141.085053,76.0396405 140.699868,76.4790785 C141.562192,76.8570096 142.959894,77.2557835 144.59974,76.881735 C147.325666,76.2603301 151.314427,73.2587466 153.504976,65.9757838 C155.698591,58.6941492 155.089651,54.8311608 157.300634,51.704622 C158.158871,50.4888876 158.789267,49.6172657 159.245972,48.9962695" id="path84" fill="#F36917" fill-rule="nonzero"></path>
                        <path d="M41.4061796,161.067684 C44.0182868,158.852614 49.4229355,156.379051 60.5352724,156.12158 C61.8363196,156.092972 63.0560386,156.012257 64.2090398,155.90089 L71.3953487,163.30421 C71.3953487,163.30421 58.3146849,160.768323 47.8285549,161.846228 C42.7558603,162.367301 38.6307008,163.693482 35.7108541,164.925666 C35.6306498,164.931797 35.5441108,164.940992 35.4674824,164.946101 C37.6939958,163.577007 40.6055666,161.747122 41.4061796,161.067684" id="path86" fill="#FFFFFF" fill-rule="nonzero"></path>
                        <path d="M49.1974438,159.444185 C43.9424759,160.523112 39.8304964,162.390801 37.0522589,163.963214 C38.903702,162.806637 40.7863073,161.592844 41.4061796,161.067684 C44.0182868,158.852614 49.4229355,156.379051 60.5352724,156.12158 C61.8404064,156.092972 63.0644166,156.012257 64.2209939,155.899868 L69.4237524,161.27407 C65.4283502,160.036778 56.803676,157.879945 49.1974438,159.444185" id="path88" fill="#FFFFFF" fill-rule="nonzero"></path>
                        <path d="M111.121325,145.461044 C111.041631,146.274326 111.286842,147.068196 111.774198,147.803828 C112.590546,147.929498 114.373432,148.1696 117.938183,148.515961 C117.969856,148.368834 118.001529,148.223751 118.02605,148.088885 C118.344824,146.254913 118.203828,143.318515 118.203828,143.318515 C118.203828,143.318515 119.098847,144.020431 120.367812,146.309064 C120.50983,146.566535 120.632436,146.843419 120.757084,147.116216 C121.877902,146.203828 123.199996,145.247506 124.715194,144.366791 C123.802806,143.129498 121.537672,141.839077 118.411235,141.401784 C117.25568,141.240354 116.114428,141.370111 115.080456,141.626561 C112.842908,142.354019 111.286842,143.740482 111.121325,145.461044 Z M142.088374,150.904722 C142.088374,150.904722 141.38748,147.280712 138.206892,146.812768 C137.080966,146.648272 135.349166,147.376752 135.349166,147.376752 L125.337416,153.926944 C125.259766,153.983138 125.178029,154.033202 125.096292,154.086331 L118.782116,158.220175 C118.782116,158.220175 112.03167,156.343291 105.639843,154.764747 C99.2480173,153.185181 96.1890135,154.010724 96.1890135,154.010724 C96.1890135,154.010724 97.4252842,152.248272 102.850571,151.198975 C103.2378,151.12439 103.641376,151.061043 104.056191,151.005871 C103.513662,150.86794 102.976242,150.728987 102.409192,150.604339 C95.6188986,149.114683 88.6273279,151.47688 88.6273279,151.47688 C88.6273279,151.47688 91.2827556,149.374198 95.2071489,148.028604 C99.1335856,146.684032 102.924135,147.081478 102.924135,147.081478 C102.924135,147.081478 103.01098,145.766535 99.9795626,144.634479 C96.948145,143.503445 95.6618104,143.935629 95.6618104,143.935629 C95.6618104,143.935629 97.3312868,142.135373 101.964748,142.747378 C103.116216,142.899613 104.263598,143.281733 105.33946,143.770111 C106.493994,140.129754 112.007148,137.75734 118.357084,138.361172 C122.629881,138.767813 126.269217,140.425028 128.331031,142.620686 C129.72771,142.06794 131.22043,141.6143 132.807148,141.346612 C141.661298,139.856957 143.239842,143.849805 143.445206,145.752231 C143.742524,148.525156 142.088374,150.904722 142.088374,150.904722 L142.088374,150.904722 Z" id="path90" fill="#231F20"></path>
                    </g>
                </g>
            </g>
        </g>
    </g>
</svg>