<?xml version="1.0" encoding="UTF-8"?>
<svg width="200px" height="200px" viewBox="0 0 200 200" version="1.1" xmlns="http://www.w3.org/2000/svg" xmlns:xlink="http://www.w3.org/1999/xlink">
    <!-- Generator: Sketch 54.1 (76490) - https://sketchapp.com -->
    <title>tusculum</title>
    <desc>Created with Sketch.</desc>
    <g id="tusculum" stroke="none" stroke-width="1" fill="none" fill-rule="evenodd">
        <g id="tusculum_BGL">
            <g id="tusculum" transform="translate(0.000000, 47.000000)">
                <g id="g10" transform="translate(99.999998, 52.953847) scale(-1, 1) rotate(-180.000000) translate(-99.999998, -52.953847) translate(0.256410, 0.133336)" fill-rule="nonzero">
                    <g id="g12" transform="translate(0.461538, 0.461538)">
                        <path d="M175.372816,27.9891788 C175.019996,28.8297429 174.738457,29.6041531 174.548201,30.4122556 C174.25538,31.656871 174.078457,32.9214864 173.862047,34.1794863 C173.632816,35.5088196 173.396919,36.8359478 172.856919,38.0835375 C172.565637,38.7548195 172.216919,39.3922041 171.624098,39.8898452 C171.571278,39.7794349 171.514868,39.6985118 171.493329,39.6097939 C170.674868,36.3293324 170.008714,33.0148197 169.25897,29.7189736 C169.204098,29.4785634 169.256919,29.3619993 169.458457,29.2758454 C169.892816,29.0891275 170.339483,28.9378967 170.79897,28.8231275 C172.268714,28.456307 173.780508,28.3307172 175.372816,27.9891788 L175.372816,27.9891788 Z M191.919995,52.4558961 C191.649226,53.0092294 191.433329,53.5056397 191.172816,53.9769217 C189.907175,56.2661524 189.477944,58.7205114 189.626662,61.312819 C189.762559,63.6835882 190.165636,66.0148701 190.568713,68.3471778 C190.996405,70.8230752 191.323585,73.3066648 191.378457,75.8246135 C191.427688,78.0753827 191.399482,80.3261518 191.432816,82.5758954 C191.446662,83.516921 191.099995,84.0999979 190.445123,84.6871774 C187.332816,87.4779465 183.756406,89.4748696 179.887175,90.9912798 C176.641534,92.2635874 173.292816,93.2117925 169.949227,94.1764079 C165.514355,95.4553822 161.113329,96.8564078 156.608714,97.8820488 C151.859483,98.9625616 147.073842,99.6958949 142.17692,99.4005103 C140.041022,99.2717924 137.938458,98.9717924 135.874356,98.4107668 C135.726663,98.3707668 135.527689,98.4087155 135.446663,98.141536 C136.799997,97.1717924 138.16974,96.190254 139.539484,95.2097412 C139.055894,95.0779463 138.638971,95.1097412 138.221022,95.1769207 C137.518458,95.2892284 136.808202,95.3533309 136.097432,95.3323053 C134.198458,95.2758951 132.326663,94.9994848 130.470766,94.5943566 C126.481535,93.7230746 122.619484,92.4410233 118.822048,90.9579464 C113.562561,88.9046132 108.469741,86.5097414 103.622049,83.5948697 C97.1825617,79.7230749 93.0092284,74.1410238 90.8702541,66.9805111 C90.6574336,66.2676907 90.5630747,65.5523061 90.6287157,64.8071779 C90.8133311,62.7076907 90.9784593,60.607178 91.1528182,58.507178 C91.1999977,57.9405114 91.2487157,57.3748704 91.1430746,56.8076909 C91.0297413,56.2005114 91.0348695,56.204614 90.4394849,56.130255 C88.2005106,55.8497422 85.9533312,55.7579473 83.7010235,55.8794858 C81.6087159,55.9928191 79.559998,56.3307678 77.6225622,57.1835883 C76.1707673,57.8230755 74.7056392,58.4333319 73.2584597,59.0835883 C70.7451264,60.2138446 68.3620496,61.5615369 66.1697419,63.2512805 C64.2189728,64.755383 62.2158959,66.1933317 60.1497421,67.5374342 C59.0174344,68.2748701 57.8820498,69.0087162 56.6230755,69.5184598 C54.7323063,70.283588 52.7917936,70.8938444 50.8046654,71.3574341 C47.1818963,72.2025623 43.5046143,72.4358956 39.7966657,72.3871777 C37.5895375,72.3574341 35.3876401,72.2841008 33.231794,71.7733315 C30.5156403,71.1302546 27.957948,70.0938444 25.6302045,68.5317932 C25.4064609,68.3815368 25.1399994,68.2615368 24.9925635,67.9317932 C26.3050763,67.3999983 27.5883583,66.8794855 28.871589,66.3594855 C26.379384,65.8430753 24.2231789,64.6702548 22.1167687,63.3958959 C19.089538,61.5646138 16.2704098,59.441537 13.5585125,57.1748704 C12.4318971,56.2333319 11.2772305,55.318973 10.3834356,54.1348704 C9.76984591,53.3220499 9.13461516,52.5225628 8.56369209,51.6805115 C6.88082034,49.1978962 5.72497422,46.4924091 5.24682038,43.5194348 C5.15745115,42.9631271 5.05208192,42.3922041 5.14283064,41.811281 C5.33471782,41.8503579 5.38861525,41.9631272 5.46774345,42.0476913 C5.56512807,42.1508195 5.66087165,42.2557938 5.76041011,42.3573836 C7.77282032,44.4010245 10.1943074,45.8149219 12.8143074,46.917845 C17.6768714,48.965127 22.7900507,49.8599988 28.0236403,50.134409 C30.4597428,50.2619987 32.9006658,50.2317936 35.3403581,50.0594859 C38.5596913,49.8313321 41.7415887,49.372409 44.8856399,48.6544603 C49.4539475,47.6113834 53.9805115,46.3934347 58.592819,45.5348707 C63.6887164,44.5867168 68.7666649,43.5456912 73.9297417,43.0015887 C76.417434,42.7395887 78.8415365,42.9385117 81.2241005,43.7143579 C83.41128,44.4266656 85.3553825,45.5953322 87.2610235,46.843127 C88.6482029,47.7517937 89.996408,48.7235372 91.4399977,49.5410757 C96.7676899,52.5574346 102.315895,55.1005114 108.063587,57.2087165 C114.774356,59.6707677 121.66051,61.4517933 128.730766,62.5035882 C132.599484,63.0789728 136.494356,63.37846 140.404099,63.4835882 C142.987176,63.5533317 145.56974,63.535383 148.150253,63.3999984 C149.498458,63.329742 150.852817,63.4307676 152.197432,63.2461523 C152.337432,63.2271779 152.496406,63.1312805 152.725637,63.2887164 C149.901022,65.0235881 147.137945,66.721024 144.375894,68.4174342 C144.687689,68.5538444 144.94615,68.5502547 145.204099,68.5548701 C146.652817,68.577947 148.085125,68.3871778 149.523586,68.252306 C153.822047,67.8487163 158.059996,67.0928188 162.26974,66.1615368 C167.788201,64.9399984 173.094355,63.0574343 178.327175,60.9553831 C180.224611,60.1923062 182.038457,59.267178 183.648201,57.990255 C186.066149,56.0723063 188.667175,54.4225627 191.241534,52.7323064 C191.413841,52.6194859 191.563585,52.4492295 191.919995,52.4558961 L191.919995,52.4558961 Z M164.630765,47.0543065 C164.928714,47.0312296 165.224098,47.0292296 165.505124,47.1528193 C165.563586,47.1778963 165.53538,47.2488193 165.494355,47.2267681 C165.416919,47.1847168 165.449227,47.3385629 165.42615,47.2462039 C165.263586,47.2768193 165.100509,47.3050757 164.937945,47.3385629 C159.602047,48.4250757 154.246663,49.3846142 148.82256,49.9365116 C145.327176,50.2922552 141.826663,50.4425116 138.318458,50.2744603 C136.092817,50.1672808 133.885125,49.8793834 131.726663,49.2974859 C129.631279,48.732768 127.655894,47.911845 125.923587,46.5656911 C125.446151,46.1943065 125.171792,45.7389732 125.058971,45.1532296 C124.866664,44.1630758 124.928715,43.1708707 125.008202,42.1788707 C125.084099,41.2333836 125.11333,40.2866657 125.087176,39.3385631 C125.075894,38.9318965 124.998971,38.5378452 124.861023,38.1580503 C124.644612,37.5605119 124.569228,37.5328709 123.988715,37.7564093 C123.222048,38.0518965 122.588715,38.5420503 122.005125,39.1041529 C121.371792,39.7133323 120.826151,40.4010246 120.251279,41.0625118 C119.706151,41.6887169 119.145125,42.2974861 118.462561,42.7826656 C117.369228,43.5610758 116.167177,43.7389733 114.88051,43.4385117 C114.709228,43.3984605 114.489228,43.3948194 114.415895,43.1686656 C114.188202,42.4661528 113.945125,41.7672297 114.384613,41.049281 C114.569741,40.7471785 114.742048,40.4343067 114.886151,40.1113836 C115.170254,39.4737426 115.364613,38.8118965 115.371279,38.0733324 C114.558459,38.2698452 113.926664,38.683076 113.306151,39.1184093 C112.667177,39.5671272 112.061536,40.0647169 111.366664,40.4318964 C110.227177,41.0344605 109.139484,40.9158451 108.082561,40.214358 C107.84051,40.0538964 107.721536,39.88764 107.761023,39.5769221 C107.983074,37.8455375 108.777433,36.4984093 110.325125,35.6292299 C110.968715,35.2682042 111.648715,35.0046145 112.354356,34.7984607 C114.088202,34.2908709 115.881536,34.107794 117.656407,33.8247171 C118.288715,33.724153 118.289228,33.733794 118.414356,33.1374351 C119.239997,29.1847172 121.007689,25.7429737 123.95692,22.9456917 C126.219484,20.800461 128.865638,19.2544098 131.706663,18.0174354 C135.363586,16.4256919 139.190253,15.3655894 143.065125,14.474974 C147.122048,13.5426663 151.191791,12.6656407 155.254355,11.7590253 C156.029227,11.5857433 156.799483,11.3898459 157.619483,11.1929228 C157.583586,11.3389228 157.572817,11.4046664 157.552304,11.4667689 C156.476406,14.6949227 155.846663,18.0075893 155.609227,21.4020507 C155.264099,26.3379481 155.708201,31.1949223 157.011791,35.9671273 C157.144611,36.4529222 157.079483,36.801076 156.79897,37.2045119 C155.215894,39.4861529 153.159996,41.2373836 150.796406,42.6568707 C148.781022,43.8677938 146.638971,44.8021014 144.438971,45.6153835 C143.985125,45.7826655 143.531791,45.9513322 143.074355,46.1209732 C143.157945,46.3149219 143.292304,46.2892809 143.400509,46.3010758 C145.756407,46.565127 148.118458,46.7221527 150.48974,46.7626142 C155.204099,46.8425629 159.922047,46.7185629 164.630765,47.0543065 L164.630765,47.0543065 Z M0.240585122,31.3790249 C0.180689226,32.706153 0.106169741,33.9272812 0.0743189212,35.1486145 C-0.00681076906,38.2820503 0.10476769,41.4004605 0.754405109,44.4831784 C2.09334867,50.8349218 5.32471782,55.9979473 10.4509228,59.9764088 C11.4803587,60.7748703 12.5182048,61.5625626 13.553692,62.3533318 C13.6282048,62.4102548 13.7147689,62.4523061 13.894615,62.5605113 C12.9076407,63.0492292 11.9851792,63.1661523 11.0610766,63.2338446 C10.1191792,63.3025625 9.17287157,63.3107676 8.23215364,63.3461523 C8.17610236,63.6179471 8.35758953,63.7287164 8.46456389,63.8625625 C10.2397946,66.0907676 12.1538459,68.1994855 14.2604099,70.1128188 C16.5404611,72.1825623 19.181897,73.7123058 22.0232302,74.8943571 C25.6039481,76.3835878 29.333948,77.3205109 33.1592299,77.9102545 C36.563076,78.4358955 39.9857939,78.614357 43.4286656,78.6235878 C49.4034347,78.639998 54.9984602,77.2199981 60.2651267,74.4215366 C62.83846,73.0543571 65.3220496,71.5399982 67.7856393,69.9882034 C70.369229,68.3610239 72.9410238,66.7138445 75.6456391,65.289742 C78.1861519,63.9517933 80.8128185,62.8317933 83.6241005,62.1876908 C83.808203,62.1456395 83.9866646,62.0769215 84.2092287,62.132819 C84.4066646,63.2846138 84.5702543,64.4543574 84.7989722,65.6133317 C86.9646132,76.5733314 92.8810233,84.8471774 102.536921,90.4579465 C106.942049,93.0174336 111.652818,94.8317925 116.532818,96.2384591 C117.553843,96.5323053 118.581535,96.8035873 119.621535,97.0897412 C119.564612,97.3420488 119.363587,97.4364078 119.214869,97.5646129 C118.225125,98.4189719 117.125638,99.1169206 116.015382,99.7994847 C114.926151,100.469228 113.827689,101.1241 112.798459,101.886151 C112.61692,102.02051 112.408715,102.130254 112.234869,102.403074 C113.017433,102.529228 113.731792,102.654356 114.448715,102.759485 C118.245638,103.316408 122.050253,103.812305 125.870766,104.16769 C132.767689,104.808715 139.675381,105.113331 146.603586,104.805638 C152.151791,104.559485 157.657945,103.981536 163.08256,102.776921 C171.405637,100.929741 179.454867,98.2948693 186.99179,94.2410233 C189.352816,92.9707669 191.601534,91.5241003 193.654867,89.7897413 C194.03538,89.4687157 194.393328,89.1220491 194.769226,88.7969209 C196.447175,87.3420491 197.390251,85.468203 197.884098,83.3389723 C198.447687,80.91128 198.457944,78.4558955 198.23538,75.9892289 C198.090764,74.3815366 197.754354,72.8087161 197.437431,71.2302546 C197.247175,70.2810239 197.178457,69.3082034 197.056918,68.3461521 C196.83179,66.5605112 196.578457,64.7789727 196.402559,62.9871779 C196.079482,59.6958959 196.18461,56.4630755 197.405123,53.3297423 C197.807175,52.2964089 198.129226,51.2297423 198.352816,50.1354346 C198.749226,48.1949219 198.424098,46.4303065 197.219995,44.8277425 C195.065123,41.9595374 192.518457,39.5088195 189.544611,37.4999991 C188.771277,36.9779478 187.93179,36.6123581 187.030765,36.3773837 C186.573329,36.257435 186.11897,36.1271786 185.665636,35.9927683 C184.469739,35.6379991 183.589226,34.8990248 182.987175,33.8092812 C182.112816,32.2291787 181.457944,30.5538967 180.861021,28.8573839 C179.477944,24.9236917 178.366149,20.9154867 177.602047,16.8123073 C177.163585,14.4609227 177.205124,12.0959484 177.341534,9.72717924 C177.413842,8.47174338 177.413329,7.2169229 177.39538,5.95994857 C177.389739,5.56769217 177.279483,5.22097423 177.081534,4.88662039 C176.528201,3.95072298 175.776406,3.20572812 174.900508,2.57852814 C173.606662,1.65084098 172.165637,0.978964078 170.779996,0.209735379 C170.531278,0.0713141008 170.273842,0.111778972 170.01897,0.104567177 C166.628714,0.0138221022 163.240509,0.0246394353 159.855381,0.247796404 C150.437945,0.867789722 141.284612,2.68209224 132.554356,6.36317933 C126.261022,9.01641003 120.512305,12.5298458 115.537946,17.2511791 C115.04051,17.723538 114.492818,18.1430252 113.968202,18.5861534 C113.370766,19.0913329 112.778972,19.6025636 112.224613,20.1558456 C111.57692,20.8030764 111.114869,21.5426661 110.838459,22.4318969 C110.006151,25.1055891 109.318972,27.8056916 109.158459,30.678871 C108.695382,30.4296915 108.274869,30.1912813 107.843587,29.9743582 C106.513843,29.3014864 105.146151,28.7097429 103.776408,28.123589 C102.146151,27.4256916 100.522049,26.7169224 98.9399975,25.9112814 C97.7574335,25.3083071 96.5287155,24.8313327 95.1917925,24.6532302 C94.0364079,24.4989737 92.9235874,24.731384 91.8071772,24.9214866 C86.7943568,25.7774353 81.996921,27.3773839 77.2507673,29.1538454 C74.9035879,30.032871 72.5512802,30.8980505 70.2805111,31.964153 C70.0728188,32.062512 69.809229,32.0789223 69.669229,32.3389223 C73.1984597,34.0332299 76.8143571,35.5216401 80.5405108,36.7528196 C79.3825621,36.6410247 78.2317929,36.5272299 77.0769211,36.4497427 C74.7292289,36.2928709 72.3871777,36.3707683 70.0476906,36.5835375 C64.221024,37.1127683 58.5938447,38.6055888 52.9738448,40.1317939 C49.0026142,41.2107169 45.0364604,42.3107169 40.9997938,43.1292297 C36.8101016,43.9779476 32.5851274,44.5030245 28.302307,44.4451271 C23.4206661,44.3790245 18.6997431,43.5400502 14.2347689,41.4819477 C10.7884613,39.8938452 7.70671776,37.7497939 4.7970768,35.3389222 C3.44651273,34.2199479 2.13441533,33.056512 0.832933313,31.8810248 C0.664861522,31.7287684 0.487179475,31.5877428 0.240585122,31.3790249 L0.240585122,31.3790249 Z" id="path14" fill="#110F0E"></path>
                        <path d="M191.919995,52.4558961 C191.563585,52.4492295 191.413841,52.6194859 191.241534,52.7323064 C188.667175,54.4225627 186.066149,56.0723063 183.648201,57.990255 C182.038457,59.267178 180.224611,60.1923062 178.327175,60.9553831 C173.094355,63.0574343 167.788201,64.9399984 162.26974,66.1615368 C158.059996,67.0928188 153.822047,67.8487163 149.523586,68.252306 C148.085125,68.3871778 146.652817,68.577947 145.204099,68.5548701 C144.94615,68.5502547 144.687689,68.5538444 144.375894,68.4174342 C147.137945,66.721024 149.901022,65.0235881 152.725637,63.2887164 C152.496406,63.1312805 152.337432,63.2271779 152.197432,63.2461523 C150.852817,63.4307676 149.498458,63.329742 148.150253,63.3999984 C145.56974,63.535383 142.987176,63.5533317 140.404099,63.4835882 C136.494356,63.37846 132.599484,63.0789728 128.730766,62.5035882 C121.66051,61.4517933 114.774356,59.6707677 108.063587,57.2087165 C102.315895,55.1005114 96.7676899,52.5574346 91.4399977,49.5410757 C89.996408,48.7235372 88.6482029,47.7517937 87.2610235,46.843127 C85.3553825,45.5953322 83.41128,44.4266656 81.2241005,43.7143579 C78.8415365,42.9385117 76.417434,42.7395887 73.9297417,43.0015887 C68.7666649,43.5456912 63.6887164,44.5867168 58.592819,45.5348707 C53.9805115,46.3934347 49.4539475,47.6113834 44.8856399,48.6544603 C41.7415887,49.372409 38.5596913,49.8313321 35.3403581,50.0594859 C32.9006658,50.2317936 30.4597428,50.2619987 28.0236403,50.134409 C22.7900507,49.8599988 17.6768714,48.965127 12.8143074,46.917845 C10.1943074,45.8149219 7.77282032,44.4010245 5.76041011,42.3573836 C5.66087165,42.2557938 5.56512807,42.1508195 5.46774345,42.0476913 C5.38861525,41.9631272 5.33471782,41.8503579 5.14283064,41.811281 C5.05208192,42.3922041 5.15745115,42.9631271 5.24682038,43.5194348 C5.72497422,46.4924091 6.88082034,49.1978962 8.56369209,51.6805115 C9.13461516,52.5225628 9.76984591,53.3220499 10.3834356,54.1348704 C11.2772305,55.318973 12.4318971,56.2333319 13.5585125,57.1748704 C16.2704098,59.441537 19.089538,61.5646138 22.1167687,63.3958959 C24.2231789,64.6702548 26.379384,65.8430753 28.871589,66.3594855 C27.5883583,66.8794855 26.3050763,67.3999983 24.9925635,67.9317932 C25.1399994,68.2615368 25.4064609,68.3815368 25.6302045,68.5317932 C27.957948,70.0938444 30.5156403,71.1302546 33.231794,71.7733315 C35.3876401,72.2841008 37.5895375,72.3574341 39.7966657,72.3871777 C43.5046143,72.4358956 47.1818963,72.2025623 50.8046654,71.3574341 C52.7917936,70.8938444 54.7323063,70.283588 56.6230755,69.5184598 C57.8820498,69.0087162 59.0174344,68.2748701 60.1497421,67.5374342 C62.2158959,66.1933317 64.2189728,64.755383 66.1697419,63.2512805 C68.3620496,61.5615369 70.7451264,60.2138446 73.2584597,59.0835883 C74.7056392,58.4333319 76.1707673,57.8230755 77.6225622,57.1835883 C79.559998,56.3307678 81.6087159,55.9928191 83.7010235,55.8794858 C85.9533312,55.7579473 88.2005106,55.8497422 90.4394849,56.130255 C91.0348695,56.204614 91.0297413,56.2005114 91.1430746,56.8076909 C91.2487157,57.3748704 91.1999977,57.9405114 91.1528182,58.507178 C90.9784593,60.607178 90.8133311,62.7076907 90.6287157,64.8071779 C90.5630747,65.5523061 90.6574336,66.2676907 90.8702541,66.9805111 C93.0092284,74.1410238 97.1825617,79.7230749 103.622049,83.5948697 C108.469741,86.5097414 113.562561,88.9046132 118.822048,90.9579464 C122.619484,92.4410233 126.481535,93.7230746 130.470766,94.5943566 C132.326663,94.9994848 134.198458,95.2758951 136.097432,95.3323053 C136.808202,95.3533309 137.518458,95.2892284 138.221022,95.1769207 C138.638971,95.1097412 139.055894,95.0779463 139.539484,95.2097412 C138.16974,96.190254 136.799997,97.1717924 135.446663,98.141536 C135.527689,98.4087155 135.726663,98.3707668 135.874356,98.4107668 C137.938458,98.9717924 140.041022,99.2717924 142.17692,99.4005103 C147.073842,99.6958949 151.859483,98.9625616 156.608714,97.8820488 C161.113329,96.8564078 165.514355,95.4553822 169.949227,94.1764079 C173.292816,93.2117925 176.641534,92.2635874 179.887175,90.9912798 C183.756406,89.4748696 187.332816,87.4779465 190.445123,84.6871774 C191.099995,84.0999979 191.446662,83.516921 191.432816,82.5758954 C191.399482,80.3261518 191.427688,78.0753827 191.378457,75.8246135 C191.323585,73.3066648 190.996405,70.8230752 190.568713,68.3471778 C190.165636,66.0148701 189.762559,63.6835882 189.626662,61.312819 C189.477944,58.7205114 189.907175,56.2661524 191.172816,53.9769217 C191.433329,53.5056397 191.649226,53.0092294 191.919995,52.4558961" id="path16" fill="#F25422"></path>
                        <path d="M164.630765,47.0543065 C159.922047,46.7185629 155.204099,46.8425629 150.48974,46.7626142 C148.118458,46.7221527 145.756407,46.565127 143.400509,46.3010758 C143.292304,46.2892809 143.157945,46.3149219 143.074355,46.1209732 C143.531791,45.9513322 143.985125,45.7826655 144.438971,45.6153835 C146.638971,44.8021014 148.781022,43.8677938 150.796406,42.6568707 C153.159996,41.2373836 155.215894,39.4861529 156.79897,37.2045119 C157.079483,36.801076 157.144611,36.4529222 157.011791,35.9671273 C155.708201,31.1949223 155.264099,26.3379481 155.609227,21.4020507 C155.846663,18.0075893 156.476406,14.6949227 157.552304,11.4667689 C157.572817,11.4046664 157.583586,11.3389228 157.619483,11.1929228 C156.799483,11.3898459 156.029227,11.5857433 155.254355,11.7590253 C151.191791,12.6656407 147.122048,13.5426663 143.065125,14.474974 C139.190253,15.3655894 135.363586,16.4256919 131.706663,18.0174354 C128.865638,19.2544098 126.219484,20.800461 123.95692,22.9456917 C121.007689,25.7429737 119.239997,29.1847172 118.414356,33.1374351 C118.289228,33.733794 118.288715,33.724153 117.656407,33.8247171 C115.881536,34.107794 114.088202,34.2908709 112.354356,34.7984607 C111.648715,35.0046145 110.968715,35.2682042 110.325125,35.6292299 C108.777433,36.4984093 107.983074,37.8455375 107.761023,39.5769221 C107.721536,39.88764 107.84051,40.0538964 108.082561,40.214358 C109.139484,40.9158451 110.227177,41.0344605 111.366664,40.4318964 C112.061536,40.0647169 112.667177,39.5671272 113.306151,39.1184093 C113.926664,38.683076 114.558459,38.2698452 115.371279,38.0733324 C115.364613,38.8118965 115.170254,39.4737426 114.886151,40.1113836 C114.742048,40.4343067 114.569741,40.7471785 114.384613,41.049281 C113.945125,41.7672297 114.188202,42.4661528 114.415895,43.1686656 C114.489228,43.3948194 114.709228,43.3984605 114.88051,43.4385117 C116.167177,43.7389733 117.369228,43.5610758 118.462561,42.7826656 C119.145125,42.2974861 119.706151,41.6887169 120.251279,41.0625118 C120.826151,40.4010246 121.371792,39.7133323 122.005125,39.1041529 C122.588715,38.5420503 123.222048,38.0518965 123.988715,37.7564093 C124.569228,37.5328709 124.644612,37.5605119 124.861023,38.1580503 C124.998971,38.5378452 125.075894,38.9318965 125.087176,39.3385631 C125.11333,40.2866657 125.084099,41.2333836 125.008202,42.1788707 C124.928715,43.1708707 124.866664,44.1630758 125.058971,45.1532296 C125.171792,45.7389732 125.446151,46.1943065 125.923587,46.5656911 C127.655894,47.911845 129.631279,48.732768 131.726663,49.2974859 C133.885125,49.8793834 136.092817,50.1672808 138.318458,50.2744603 C141.826663,50.4425116 145.327176,50.2922552 148.82256,49.9365116 C154.246663,49.3846142 159.602047,48.4250757 164.937945,47.3385629 C165.100509,47.3050757 165.263586,47.2768193 165.424611,47.2466142 C165.158457,47.1830757 164.894355,47.1189732 164.630765,47.0543065" id="path18" fill="#FFFFFF"></path>
                        <path d="M175.372816,27.9891788 C173.780508,28.3307172 172.268714,28.456307 170.79897,28.8231275 C170.339483,28.9378967 169.892816,29.0891275 169.458457,29.2758454 C169.256919,29.3619993 169.204098,29.4785634 169.25897,29.7189736 C170.008714,33.0148197 170.674868,36.3293324 171.493329,39.6097939 C171.514868,39.6985118 171.571278,39.7794349 171.624098,39.8898452 C172.216919,39.3922041 172.565637,38.7548195 172.856919,38.0835375 C173.396919,36.8359478 173.632816,35.5088196 173.862047,34.1794863 C174.078457,32.9214864 174.25538,31.656871 174.548201,30.4122556 C174.738457,29.6041531 175.019996,28.8297429 175.372816,27.9891788" id="path20" fill="#FFFFFF"></path>
                        <path d="M164.630765,47.0682096 C164.894355,47.2061406 165.158457,47.3428683 165.424611,47.4783929 C165.449227,47.6745152 165.416919,47.3463686 165.494355,47.436062 C165.53538,47.4830963 165.563586,47.3318207 165.505124,47.2783328 C165.224098,47.0147217 164.928714,47.0189876 164.630765,47.0682096" id="path22" fill="#F25B19"></path>
                    </g>
                </g>
            </g>
        </g>
    </g>
</svg>